<?xml version="1.0" standalone="no"?>
 <!DOCTYPE svg PUBLIC "-//W3C//DTD SVG 1.1//EN" 
 "http://www.w3.org/Graphics/SVG/1.1/DTD/svg11.dtd"> 
<svg
  xmlns:svg="http://www.w3.org/2000/svg"
  xmlns="http://www.w3.org/2000/svg"
  xmlns:xlink="http://www.w3.org/1999/xlink"
  version="1.1"
  width="29.700220cm" height="21.000720cm" viewBox="0 0 297002200 210007200">
<title>SVG Picture created as coils-B_Cu.svg date 2022/11/06 15:34:06 </title>
  <desc>Picture generated by PCBNEW </desc>
<g style="fill:#000000; fill-opacity:1.000000;stroke:#000000; stroke-opacity:1.000000;
stroke-linecap:round; stroke-linejoin:round;"
 transform="translate(0 0) scale(1 1)">
</g>
<g style="fill:#000000; fill-opacity:0.0; 
stroke:#000000; stroke-width:0.000000; stroke-opacity:1; 
stroke-linecap:round; stroke-linejoin:round;">
<g >
</g>
<g style="fill:#ECECEC; fill-opacity:0.0; 
stroke:#ECECEC; stroke-width:0.000000; stroke-opacity:1; 
stroke-linecap:round; stroke-linejoin:round;">
</g>
<g style="fill:#ECECEC; fill-opacity:1.0; 
stroke:#ECECEC; stroke-width:1.000000; stroke-opacity:1; 
stroke-linecap:round; stroke-linejoin:round;">
<circle cx="163685400.000000" cy="107814400.000000" r="300000.000000" /> 
</g>
<g style="fill:#ECECEC; fill-opacity:1.0; 
stroke:#ECECEC; stroke-width:21200.000000; stroke-opacity:1; 
stroke-linecap:round; stroke-linejoin:round;">
</g>
<g style="fill:#ECECEC; fill-opacity:1.0; 
stroke:#ECECEC; stroke-width:1.000000; stroke-opacity:1; 
stroke-linecap:round; stroke-linejoin:round;">
<circle cx="146044400.000000" cy="92917200.000000" r="300000.000000" /> 
</g>
<g style="fill:#ECECEC; fill-opacity:1.0; 
stroke:#ECECEC; stroke-width:21200.000000; stroke-opacity:1; 
stroke-linecap:round; stroke-linejoin:round;">
</g>
<g style="fill:#ECECEC; fill-opacity:1.0; 
stroke:#ECECEC; stroke-width:1.000000; stroke-opacity:1; 
stroke-linecap:round; stroke-linejoin:round;">
<circle cx="167889700.000000" cy="94737100.000000" r="300000.000000" /> 
</g>
<g style="fill:#ECECEC; fill-opacity:1.0; 
stroke:#ECECEC; stroke-width:21200.000000; stroke-opacity:1; 
stroke-linecap:round; stroke-linejoin:round;">
</g>
<g style="fill:#ECECEC; fill-opacity:1.0; 
stroke:#ECECEC; stroke-width:1.000000; stroke-opacity:1; 
stroke-linecap:round; stroke-linejoin:round;">
<circle cx="165216400.000000" cy="102614400.000000" r="300000.000000" /> 
</g>
<g style="fill:#ECECEC; fill-opacity:1.0; 
stroke:#ECECEC; stroke-width:21200.000000; stroke-opacity:1; 
stroke-linecap:round; stroke-linejoin:round;">
</g>
<g style="fill:#ECECEC; fill-opacity:1.0; 
stroke:#ECECEC; stroke-width:1.000000; stroke-opacity:1; 
stroke-linecap:round; stroke-linejoin:round;">
<circle cx="141419200.000000" cy="107686400.000000" r="300000.000000" /> 
</g>
<g style="fill:#ECECEC; fill-opacity:1.0; 
stroke:#ECECEC; stroke-width:21200.000000; stroke-opacity:1; 
stroke-linecap:round; stroke-linejoin:round;">
</g>
<g style="fill:#ECECEC; fill-opacity:1.0; 
stroke:#ECECEC; stroke-width:1.000000; stroke-opacity:1; 
stroke-linecap:round; stroke-linejoin:round;">
<circle cx="163773600.000000" cy="97371600.000000" r="300000.000000" /> 
</g>
<g style="fill:#ECECEC; fill-opacity:1.0; 
stroke:#ECECEC; stroke-width:21200.000000; stroke-opacity:1; 
stroke-linecap:round; stroke-linejoin:round;">
</g>
<g style="fill:#ECECEC; fill-opacity:1.0; 
stroke:#ECECEC; stroke-width:1.000000; stroke-opacity:1; 
stroke-linecap:round; stroke-linejoin:round;">
<circle cx="147845900.000000" cy="92171000.000000" r="300000.000000" /> 
</g>
<g style="fill:#ECECEC; fill-opacity:1.0; 
stroke:#ECECEC; stroke-width:21200.000000; stroke-opacity:1; 
stroke-linecap:round; stroke-linejoin:round;">
</g>
<g style="fill:#ECECEC; fill-opacity:1.0; 
stroke:#ECECEC; stroke-width:1.000000; stroke-opacity:1; 
stroke-linecap:round; stroke-linejoin:round;">
<circle cx="156359200.000000" cy="115271600.000000" r="300000.000000" /> 
</g>
<g style="fill:#ECECEC; fill-opacity:1.0; 
stroke:#ECECEC; stroke-width:21200.000000; stroke-opacity:1; 
stroke-linecap:round; stroke-linejoin:round;">
</g>
<g style="fill:#ECECEC; fill-opacity:1.0; 
stroke:#ECECEC; stroke-width:1.000000; stroke-opacity:1; 
stroke-linecap:round; stroke-linejoin:round;">
<circle cx="154560500.000000" cy="110929300.000000" r="300000.000000" /> 
</g>
<g style="fill:#ECECEC; fill-opacity:1.0; 
stroke:#ECECEC; stroke-width:21200.000000; stroke-opacity:1; 
stroke-linecap:round; stroke-linejoin:round;">
</g>
<g style="fill:#ECECEC; fill-opacity:1.0; 
stroke:#ECECEC; stroke-width:1.000000; stroke-opacity:1; 
stroke-linecap:round; stroke-linejoin:round;">
<circle cx="142801500.000000" cy="106058500.000000" r="300000.000000" /> 
</g>
<g style="fill:#ECECEC; fill-opacity:1.0; 
stroke:#ECECEC; stroke-width:21200.000000; stroke-opacity:1; 
stroke-linecap:round; stroke-linejoin:round;">
</g>
<g style="fill:#ECECEC; fill-opacity:1.0; 
stroke:#ECECEC; stroke-width:1.000000; stroke-opacity:1; 
stroke-linecap:round; stroke-linejoin:round;">
<circle cx="147672300.000000" cy="110929300.000000" r="300000.000000" /> 
</g>
<g style="fill:#ECECEC; fill-opacity:1.0; 
stroke:#ECECEC; stroke-width:21200.000000; stroke-opacity:1; 
stroke-linecap:round; stroke-linejoin:round;">
</g>
<g style="fill:#ECECEC; fill-opacity:1.0; 
stroke:#ECECEC; stroke-width:1.000000; stroke-opacity:1; 
stroke-linecap:round; stroke-linejoin:round;">
<circle cx="159431300.000000" cy="106058500.000000" r="300000.000000" /> 
</g>
<g style="fill:#ECECEC; fill-opacity:1.0; 
stroke:#ECECEC; stroke-width:21200.000000; stroke-opacity:1; 
stroke-linecap:round; stroke-linejoin:round;">
</g>
<g style="fill:#ECECEC; fill-opacity:1.0; 
stroke:#ECECEC; stroke-width:1.000000; stroke-opacity:1; 
stroke-linecap:round; stroke-linejoin:round;">
<circle cx="146044400.000000" cy="112311600.000000" r="300000.000000" /> 
</g>
<g style="fill:#ECECEC; fill-opacity:1.0; 
stroke:#ECECEC; stroke-width:21200.000000; stroke-opacity:1; 
stroke-linecap:round; stroke-linejoin:round;">
</g>
<g style="fill:#ECECEC; fill-opacity:1.0; 
stroke:#ECECEC; stroke-width:1.000000; stroke-opacity:1; 
stroke-linecap:round; stroke-linejoin:round;">
<circle cx="159431300.000000" cy="99170300.000000" r="300000.000000" /> 
</g>
<g style="fill:#ECECEC; fill-opacity:1.0; 
stroke:#ECECEC; stroke-width:21200.000000; stroke-opacity:1; 
stroke-linecap:round; stroke-linejoin:round;">
</g>
<g style="fill:#ECECEC; fill-opacity:1.0; 
stroke:#ECECEC; stroke-width:1.000000; stroke-opacity:1; 
stroke-linecap:round; stroke-linejoin:round;">
<circle cx="141419200.000000" cy="97542400.000000" r="300000.000000" /> 
</g>
<g style="fill:#ECECEC; fill-opacity:1.0; 
stroke:#ECECEC; stroke-width:21200.000000; stroke-opacity:1; 
stroke-linecap:round; stroke-linejoin:round;">
</g>
<g style="fill:#ECECEC; fill-opacity:1.0; 
stroke:#ECECEC; stroke-width:1.000000; stroke-opacity:1; 
stroke-linecap:round; stroke-linejoin:round;">
<circle cx="147672300.000000" cy="94299500.000000" r="300000.000000" /> 
</g>
<g style="fill:#ECECEC; fill-opacity:1.0; 
stroke:#ECECEC; stroke-width:21200.000000; stroke-opacity:1; 
stroke-linecap:round; stroke-linejoin:round;">
</g>
<g style="fill:#ECECEC; fill-opacity:1.0; 
stroke:#ECECEC; stroke-width:1.000000; stroke-opacity:1; 
stroke-linecap:round; stroke-linejoin:round;">
<circle cx="142801500.000000" cy="99170300.000000" r="300000.000000" /> 
</g>
<g style="fill:#ECECEC; fill-opacity:1.0; 
stroke:#ECECEC; stroke-width:21200.000000; stroke-opacity:1; 
stroke-linecap:round; stroke-linejoin:round;">
</g>
<g style="fill:#ECECEC; fill-opacity:1.0; 
stroke:#ECECEC; stroke-width:1.000000; stroke-opacity:1; 
stroke-linecap:round; stroke-linejoin:round;">
<circle cx="145873600.000000" cy="89957200.000000" r="300000.000000" /> 
</g>
<g style="fill:#ECECEC; fill-opacity:1.0; 
stroke:#ECECEC; stroke-width:21200.000000; stroke-opacity:1; 
stroke-linecap:round; stroke-linejoin:round;">
</g>
<g style="fill:#ECECEC; fill-opacity:1.0; 
stroke:#ECECEC; stroke-width:1.000000; stroke-opacity:1; 
stroke-linecap:round; stroke-linejoin:round;">
<circle cx="140673000.000000" cy="105884900.000000" r="300000.000000" /> 
</g>
<g style="fill:#ECECEC; fill-opacity:1.0; 
stroke:#ECECEC; stroke-width:21200.000000; stroke-opacity:1; 
stroke-linecap:round; stroke-linejoin:round;">
</g>
<g style="fill:#ECECEC; fill-opacity:1.0; 
stroke:#ECECEC; stroke-width:1.000000; stroke-opacity:1; 
stroke-linecap:round; stroke-linejoin:round;">
<circle cx="156323900.000000" cy="90042500.000000" r="300000.000000" /> 
</g>
<g style="fill:#ECECEC; fill-opacity:1.0; 
stroke:#ECECEC; stroke-width:21200.000000; stroke-opacity:1; 
stroke-linecap:round; stroke-linejoin:round;">
</g>
<g style="fill:#ECECEC; fill-opacity:1.0; 
stroke:#ECECEC; stroke-width:1.000000; stroke-opacity:1; 
stroke-linecap:round; stroke-linejoin:round;">
<circle cx="168547100.000000" cy="108904600.000000" r="300000.000000" /> 
</g>
<g style="fill:#ECECEC; fill-opacity:1.0; 
stroke:#ECECEC; stroke-width:21200.000000; stroke-opacity:1; 
stroke-linecap:round; stroke-linejoin:round;">
</g>
<g style="fill:#ECECEC; fill-opacity:1.0; 
stroke:#ECECEC; stroke-width:1.000000; stroke-opacity:1; 
stroke-linecap:round; stroke-linejoin:round;">
<circle cx="147845900.000000" cy="113057800.000000" r="300000.000000" /> 
</g>
<g style="fill:#ECECEC; fill-opacity:1.0; 
stroke:#ECECEC; stroke-width:21200.000000; stroke-opacity:1; 
stroke-linecap:round; stroke-linejoin:round;">
</g>
<g style="fill:#ECECEC; fill-opacity:1.0; 
stroke:#ECECEC; stroke-width:1.000000; stroke-opacity:1; 
stroke-linecap:round; stroke-linejoin:round;">
<circle cx="145908900.000000" cy="115186300.000000" r="300000.000000" /> 
</g>
<g style="fill:#ECECEC; fill-opacity:1.0; 
stroke:#ECECEC; stroke-width:21200.000000; stroke-opacity:1; 
stroke-linecap:round; stroke-linejoin:round;">
</g>
<g style="fill:#ECECEC; fill-opacity:1.0; 
stroke:#ECECEC; stroke-width:1.000000; stroke-opacity:1; 
stroke-linecap:round; stroke-linejoin:round;">
<circle cx="154560500.000000" cy="94299500.000000" r="300000.000000" /> 
</g>
<g style="fill:#ECECEC; fill-opacity:1.0; 
stroke:#ECECEC; stroke-width:21200.000000; stroke-opacity:1; 
stroke-linecap:round; stroke-linejoin:round;">
</g>
<g style="fill:#ECECEC; fill-opacity:1.0; 
stroke:#ECECEC; stroke-width:1.000000; stroke-opacity:1; 
stroke-linecap:round; stroke-linejoin:round;">
<circle cx="140673000.000000" cy="99343900.000000" r="300000.000000" /> 
</g>
<g style="fill:#ECECEC; fill-opacity:1.0; 
stroke:#ECECEC; stroke-width:21200.000000; stroke-opacity:1; 
stroke-linecap:round; stroke-linejoin:round;">
</g>
<g style="fill:#ECECEC; fill-opacity:1.0; 
stroke:#ECECEC; stroke-width:1.000000; stroke-opacity:1; 
stroke-linecap:round; stroke-linejoin:round;">
<circle cx="138459200.000000" cy="107857200.000000" r="300000.000000" /> 
</g>
<g style="fill:#ECECEC; fill-opacity:1.0; 
stroke:#ECECEC; stroke-width:21200.000000; stroke-opacity:1; 
stroke-linecap:round; stroke-linejoin:round;">
</g>
<g style="fill:#ECECEC; fill-opacity:1.0; 
stroke:#ECECEC; stroke-width:1.000000; stroke-opacity:1; 
stroke-linecap:round; stroke-linejoin:round;">
<circle cx="138548000.000000" cy="97465600.000000" r="300000.000000" /> 
</g>
<g style="fill:#ECECEC; fill-opacity:1.0; 
stroke:#ECECEC; stroke-width:21200.000000; stroke-opacity:1; 
stroke-linecap:round; stroke-linejoin:round;">
</g>
<g >
</g>
<g style="fill:#4D7FC4; fill-opacity:1.0; 
stroke:#4D7FC4; stroke-width:21200.000000; stroke-opacity:1; 
stroke-linecap:round; stroke-linejoin:round;">
</g>
<g style="fill:#4D7FC4; fill-opacity:1.0; 
stroke:#4D7FC4; stroke-width:200000.000000; stroke-opacity:1; 
stroke-linecap:round; stroke-linejoin:round;">
</g>
<g style="fill:#4D7FC4; fill-opacity:0.0; 
stroke:#4D7FC4; stroke-width:200000.000000; stroke-opacity:1; 
stroke-linecap:round; stroke-linejoin:round;">
<path d="M161573900 93927800
L161402200 93745400
" />
<path d="M141554700 105223400
L141666900 105448200
" />
<path d="M160333800 103110500
L160317200 102862300
" />
<path d="M153036700 112481900
L153268500 112385100
" />
<path d="M144723500 90508800
L144501100 90634000
" />
<path d="M152802700 112573500
L153036700 112481900
" />
<path d="M160575200 94564200
L160381100 94404800
" />
<path d="M160966300 109099200
L161058400 108868400
" />
<path d="M148363700 115010900
L148614400 115025400
" />
<path d="M152325200 114579200
L152562800 114506600
" />
<path d="M162366600 109637300
L162475900 109407100
" />
<path d="M152109400 116027300
L152355900 115986800
" />
<path d="M157829900 92861600
L157601200 92764500
" />
<path d="M155484000 94727800
L155256600 94613500
" />
<path d="M145921600 90723300
L145707400 90854600
" />
<path d="M157862700 94833300
L157642400 94712400
" />
<path d="M160234600 102109100
L160196300 101857400
" />
<path d="M137591700 101125900
L137579100 101373700
" />
<path d="M146905100 115643300
L147145500 115714600
" />
<path d="M142164800 106320800
L142300000 106529600
" />
<path d="M163512900 105367100
L163527400 105116400
" />
<path d="M161772200 105685500
L161787200 105428700
" />
<path d="M156944700 114097400
L157149600 113952100
" />
<path d="M141248900 104534600
L141345700 104766500
" />
<path d="M146200100 111220300
L146438400 111300000
" />
<path d="M152089400 112816500
L152328900 112740800
" />
<path d="M138026300 105069800
L138098500 105308900
" />
<path d="M160295300 102614500
L160267600 102361500
" />
<path d="M141234200 93436100
L141079900 93632500
" />
<path d="M156826400 115066000
L157056500 114955700
" />
<path d="M150123000 111849000
L150371700 111843000
" />
<path d="M160066900 106323300
L160119000 106080100
" />
<path d="M161162100 111584300
L161314900 111380400
" />
<path d="M158897500 109360700
L159018400 109140400
" />
<path d="M158486900 112813000
L158662900 112633700
" />
<path d="M143937900 110139200
L144152600 110269800
" />
<path d="M163419500 96597600
L163304700 96375000
" />
<path d="M143925800 92240600
L143745800 92415900
" />
<path d="M140537100 101862400
L140574300 102113900
" />
<path d="M139022000 103343400
L139084100 103584000
" />
<path d="M139473000 104763500
L139566000 104993900
" />
</g>
<g style="fill:#4D7FC4; fill-opacity:1.0; 
stroke:#4D7FC4; stroke-width:1.000000; stroke-opacity:1; 
stroke-linecap:round; stroke-linejoin:round;">
<circle cx="163134000.000000" cy="107592300.000000" r="100000.000000" /> 
</g>
<g style="fill:#4D7FC4; fill-opacity:1.0; 
stroke:#4D7FC4; stroke-width:200000.000000; stroke-opacity:1; 
stroke-linecap:round; stroke-linejoin:round;">
</g>
<g style="fill:#4D7FC4; fill-opacity:0.0; 
stroke:#4D7FC4; stroke-width:200000.000000; stroke-opacity:1; 
stroke-linecap:round; stroke-linejoin:round;">
<path d="M161877800 98686400
L161746100 98475700
" />
<path d="M161559200 107204200
L161609800 106960900
" />
<path d="M142884200 107334800
L143040900 107528100
" />
<path d="M140776900 98049400
L140623000 98267900
" />
<path d="M144949600 95745900
L144785800 95933100
" />
<path d="M154822800 111566000
L155031600 111430800
" />
<path d="M164529300 101621400
L164488800 101374900
" />
<path d="M146138600 90596800
L145921600 90723300
" />
<path d="M162944100 108222900
L163021800 107980200
" />
<path d="M146138500 114632000
L146381400 114696000
" />
<path d="M153846400 93486700
L153599600 93455600
" />
<path d="M156083700 112649400
L156283500 112487400
" />
<path d="M143293900 111808100
L143510700 111929600
" />
<path d="M142510500 97698100
L142430800 97936400
" />
<path d="M161227400 108401000
L161304200 108164600
" />
<path d="M160286800 92725800
L160086300 92568600
" />
<path d="M157206600 95809500
L157001600 95658700
" />
<path d="M161796300 105171600
L161799700 104914400
" />
<path d="M160822800 97251300
L160651800 97059100
" />
<path d="M137572900 102118000
L137581400 102366100
" />
<path d="M152355900 115986800
L152601400 115941000
" />
<path d="M142868500 111551100
L143079800 111681900
" />
<path d="M140928600 97064200
L140857000 97302100
" />
<path d="M141100000 97623700
L140935900 97834700
" />
<path d="M149610000 93681000
L149362500 93740300
" />
<path d="M143707700 108266300
L143884100 108441800
" />
<path d="M163060900 95937400
L162932000 95722600
" />
<path d="M145797500 115775900
L146042900 115771200
" />
<path d="M155026800 94503900
L154794700 94399300
" />
<path d="M143726900 95224300
L143591600 95435900
" />
<path d="M155327500 89585500
L155087100 89514200
" />
<path d="M160983900 100694200
L160887100 100462300
" />
<path d="M142731800 107138200
L142884200 107334800
" />
<path d="M163536300 104865300
L163539600 104614100
" />
<path d="M148282400 91265200
L148058600 91373100
" />
<path d="M148335800 113286700
L148589800 113295000
" />
<path d="M147908400 94204400
L147672300 94299500
" />
<path d="M156406400 110364400
L156589200 110195600
" />
<path d="M159339100 95829100
L159136100 95671000
" />
<path d="M159018400 109140400
L159134300 108917500
" />
<path d="M152374000 111601900
L152622800 111547800
" />
<path d="M161659400 103121000
L161616200 102867400
" />
<path d="M157283200 109482900
L157447000 109295600
" />
<path d="M142430800 97936400
L142356500 98176400
" />
<path d="M164283800 106339100
L164344500 106096100
" />
<path d="M141465700 95674300
L141363600 95900900
" />
<path d="M160864400 93220900
L160677700 93053900
" />
<path d="M142987700 96536800
L142881900 96764600
" />
<path d="M146202700 94538900
L146012800 94699600
" />
<path d="M146012800 94699600
L145826500 94864400
" />
<path d="M150123400 89201500
L149876900 89242000
" />
<path d="M147025400 90137200
L146800000 90244900
" />
<path d="M161754500 103886700
L161728600 103630800
" />
<path d="M154119500 90237900
L153869100 90217900
" />
<path d="M151365600 116116600
L151614200 116092200
" />
<path d="M163529500 104111800
L163516100 103861000
" />
<path d="M145026200 109419300
L145231200 109570100
" />
<path d="M150868400 114904900
L151116200 114863700
" />
<path d="M155803500 89743400
L155566400 89661900
" />
<path d="M151116000 113065200
L151361300 113011200
" />
<path d="M138048700 97132800
L137958600 97353300
" />
<path d="M137581400 102366100
L137595200 102613800
" />
<path d="M145406400 90162800
L145176300 90273100
" />
<path d="M163698300 97189900
L163773600 97371600
" />
<path d="M161442200 107687200
L161503300 107446300
" />
<path d="M155566400 89661900
L155327500 89585500
" />
<path d="M150615900 113156500
L150866500 113113600
" />
<path d="M149666100 92569000
L149430100 92655300
" />
<path d="M153930700 91943600
L153673600 91934500
" />
<path d="M162008600 110312500
L162132900 110090100
" />
<path d="M146043600 112940200
L146284500 113001300
" />
<path d="M147253000 90034500
L147025400 90137200
" />
<path d="M155256600 94613500
L155026800 94503900
" />
<path d="M148901600 89457300
L148661000 89524300
" />
<path d="M160008800 106567700
L160066900 106323300
" />
<path d="M140857000 97302100
L140790600 97541600
" />
<path d="M151877500 92033900
L151623000 92071400
" />
<path d="M141268900 97416700
L141100000 97623700
" />
<path d="M155361500 90421100
L155114900 90373500
" />
<path d="M163134000 107592300
L163685400 107814400
" />
<path d="M149858800 93626900
L149610000 93681000
" />
<path d="M142743200 113087800
L142952200 113224400
" />
<path d="M156525400 114374200
L156736600 114238100
" />
<path d="M144160700 96729200
L144014100 96937300
" />
<path d="M156966200 94379900
L156736000 94279200
" />
<path d="M158641200 109792900
L158771800 109578200
" />
<path d="M140477900 105902300
L140673000 105884900
" />
<path d="M148146500 94114400
L147908400 94204400
" />
<path d="M137958600 97353300
L137961300 97591400
" />
<path d="M150364100 116161100
L150614800 116158000
" />
<path d="M161787200 105428700
L161796300 105171600
" />
<path d="M164146800 106820900
L164217800 106580700
" />
<path d="M151618000 89070800
L151367400 89079300
" />
<path d="M141467100 110500900
L141657600 110664600
" />
<path d="M163185100 96154900
L163060900 95937400
" />
<path d="M145918700 112461900
L146044400 112311600
" />
<path d="M141345700 104766500
L141447700 104996100
" />
<path d="M145873300 115271400
L145908900 115186300
" />
<path d="M140784200 94035100
L140643000 94241200
" />
<path d="M143884100 108441800
L144064200 108613500
" />
<path d="M156368100 95232400
L156151100 95099300
" />
<path d="M146976200 110615300
L147206000 110724900
" />
<path d="M155044400 113375800
L155255100 113244100
" />
<path d="M157137600 92585400
L156903000 92503400
" />
<path d="M158168200 96615000
L157984600 96447400
" />
<path d="M145169000 93453300
L144991500 93635200
" />
<path d="M158307000 112988200
L158486900 112813000
" />
<path d="M139987900 105893600
L140105600 106112500
" />
<path d="M164660000 103115400
L164651500 102865100
" />
<path d="M163527400 105116400
L163536300 104865300
" />
<path d="M152855900 93393800
L152607300 93383800
" />
<path d="M163008600 101168000
L162930800 100932000
" />
<path d="M145638900 90057400
L145406400 90162800
" />
<path d="M159722300 107530700
L159802000 107292400
" />
<path d="M143816700 113724700
L144039300 113837900
" />
<path d="M157607000 96124100
L157408400 95964700
" />
<path d="M141777500 108380200
L141955300 108561800
" />
<path d="M153865200 89236100
L153617600 89196400
" />
<path d="M138705400 100112500
L138696500 100363500
" />
<path d="M158059800 110634100
L158213300 110427600
" />
<path d="M151603500 114765800
L151845400 114708800
" />
<path d="M139540400 109879700
L139684500 110090300
" />
<path d="M137961300 97591400
L138056400 97809600
" />
<path d="M153268500 112385100
L153498100 112283100
" />
<path d="M142066800 99393100
L142025200 99638300
" />
<path d="M137841000 104343900
L137897500 104587200
" />
<path d="M139098800 97636500
L139034800 97879400
" />
<path d="M161314900 95243900
L161135700 95067800
" />
<path d="M147438100 110829500
L147672300 110929300
" />
<path d="M152613800 90201300
L152362900 90214700
" />
<path d="M138796600 99112100
L138765500 99361400
" />
<path d="M145600000 115154100
L145873300 115271400
" />
<path d="M137579100 101373700
L137571700 101621800
" />
<path d="M156283500 112487400
L156479500 112320800
" />
<path d="M147840700 93404100
L147623900 93531100
" />
<path d="M156481900 90708900
L156523100 90609500
" />
<path d="M157744400 113489400
L157935600 113326600
" />
<path d="M156666700 92426600
L156428700 92355000
" />
<path d="M139317600 96920000
L139239500 97157300
" />
<path d="M159925600 96330600
L159733900 96159000
" />
<path d="M159971600 112913400
L160154000 112734800
" />
<path d="M164663100 103365900
L164660000 103115400
" />
<path d="M149376900 111835000
L149625500 111845000
" />
<path d="M159990500 100860500
L159925900 100614300
" />
<path d="M144683200 91580700
L144488400 91739400
" />
<path d="M159347400 97892600
L159190800 97699500
" />
<path d="M168477200 109080300
L168477300 109080300
" />
<path d="M147714800 89844100
L147482900 89936800
" />
<path d="M161728600 103630800
L161696900 103375500
" />
<path d="M137880900 99164100
L137826500 99406300
" />
<path d="M137638600 103112200
L137668300 103360100
" />
<path d="M142033100 106106800
L142164800 106320800
" />
<path d="M142512800 109081900
L142706200 109246800
" />
<path d="M145289000 95382100
L145117300 95562200
" />
<path d="M160506700 112365900
L160676900 112175700
" />
<path d="M160119000 106080100
L160166000 105835700
" />
<path d="M141071000 104064700
L141157300 104300700
" />
<path d="M142078900 92494000
L141900500 92676500
" />
<path d="M157766100 108906400
L157921300 108704600
" />
<path d="M138258400 105782100
L138346100 106016000
" />
<path d="M143510700 111929600
L143730100 112046200
" />
<path d="M162244900 99335200
L162127200 99116300
" />
<path d="M163974400 99446700
L163886700 99212800
" />
<path d="M143308100 109714900
L143515600 109861700
" />
<path d="M147387400 115780600
L147630700 115841500
" />
<path d="M156359200 115271600
L156593900 115171400
" />
<path d="M146995200 93937600
L146792300 94081500
" />
<path d="M141937500 102614300
L141965200 102867300
" />
<path d="M156589200 110195600
L156768400 110023100
" />
<path d="M158366800 91478400
L158139100 91364100
" />
<path d="M158592300 114046300
L158799800 113897500
" />
<path d="M155237600 111291200
L155440500 111147300
" />
<path d="M148615100 116032400
L148863500 116066900
" />
<path d="M138867100 102614300
L138913400 102858400
" />
<path d="M138833300 98863600
L138796600 99112100
" />
<path d="M140445000 100850200
L140459500 101104000
" />
<path d="M161661400 95607600
L161490200 95423800
" />
<path d="M151369400 92114600
L151116800 92163600
" />
<path d="M147407500 111564900
L147650700 111617000
" />
<path d="M139986500 110501900
L140144100 110702600
" />
<path d="M158524400 96961800
L158348200 96786500
" />
<path d="M144484000 94204200
L144323500 94401300
" />
<path d="M145804100 112873800
L146043600 112940200
" />
<path d="M143379000 113484000
L143596500 113606700
" />
<path d="M138438800 106247900
L138536500 106477800
" />
<path d="M158502700 93182600
L158280800 93070700
" />
<path d="M153617600 89196400
L153369200 89161900
" />
<path d="M153033100 114345900
L153265500 114257800
" />
<path d="M160199700 99121900
L160068000 98908000
" />
<path d="M145329800 112725400
L145566200 112802200
" />
<path d="M162599400 96786100
L162454100 96581200
" />
<path d="M144818100 93821100
L144648900 94010800
" />
<path d="M154825300 93663900
L154582100 93611800
" />
<path d="M152620500 89090600
L152370100 89077600
" />
<path d="M140444100 99833800
L140435800 100087800
" />
<path d="M138459200 107857200
L138559400 108091900
" />
<path d="M140742600 109805000
L140917900 109985000
" />
<path d="M154618700 90294600
L154369400 90263500
" />
<path d="M159117300 106754600
L159226900 106524800
" />
<path d="M157797500 96283700
L157607000 96124100
" />
<path d="M140241400 109242400
L140404300 109433600
" />
<path d="M159250700 91985400
L159034000 91851300
" />
<path d="M139664100 105222200
L139767200 105448400
" />
<path d="M140817400 111469600
L140996000 111651900
" />
<path d="M145496200 90990700
L145288100 91131400
" />
<path d="M141881100 101372200
L141881800 101621000
" />
<path d="M162798500 95510700
L162660600 95301700
" />
<path d="M163794000 98980900
L163696300 98751000
" />
<path d="M149606000 113271300
L149859400 113251100
" />
<path d="M146438400 111300000
L146678400 111374300
" />
<path d="M142781200 96994800
L142685700 97227200
" />
<path d="M155880200 112806900
L156083700 112649400
" />
<path d="M162004900 98900000
L161877800 98686400
" />
<path d="M163539600 104614100
L163537300 104362900
" />
<path d="M141887800 101869700
L141899000 102118200
" />
<path d="M137694500 100138800
L137661000 100384700
" />
<path d="M160351000 103607800
L160345000 103359100
" />
<path d="M142660100 111415800
L142868500 111551100
" />
<path d="M156479500 112320800
L156671700 112149800
" />
<path d="M144281500 90764100
L144064800 90898900
" />
<path d="M159499800 98089000
L159347400 97892600
" />
<path d="M162660600 95301700
L162518100 95095600
" />
<path d="M149143600 89395500
L148901600 89457300
" />
<path d="M145176300 90273100
L144948600 90388500
" />
<path d="M160989400 97447400
L160822800 97251300
" />
<path d="M140355000 106542400
L140486700 106753100
" />
<path d="M152870600 89109000
L152620500 89090600
" />
<path d="M156903000 92503400
L156666700 92426600
" />
<path d="M145329700 115029900
L145315500 115274900
" />
<path d="M168320100 109452700
L168320200 109452800
" />
<path d="M145422000 114413200
L145659300 114491300
" />
<path d="M145536200 93101700
L145350600 93275500
" />
<path d="M153495900 114164800
L153724200 114066700
" />
<path d="M137668300 103360100
L137703500 103607400
" />
<path d="M158218700 108291500
L158360800 108080200
" />
<path d="M158719800 95368800
L158506500 95224900
" />
<path d="M139010800 109007300
L139136000 109229700
" />
<path d="M146429100 115485300
L146666300 115566900
" />
<path d="M156032700 94008500
L155794400 93928800
" />
<path d="M155087100 89514200
L154845200 89448100
" />
<path d="M155114900 90373500
L154867200 90331300
" />
<path d="M143214400 96088400
L143098500 96311300
" />
<path d="M157447000 109295600
L157606700 109104900
" />
<path d="M139136000 109229700
L139266100 109449300
" />
<path d="M156428700 92355000
L156189200 92288600
" />
<path d="M160326700 99338700
L160199700 99121900
" />
<path d="M164206500 100159000
L164134300 99919900
" />
<path d="M139778700 108647600
L139928500 108849300
" />
<path d="M153846400 111199400
L154086300 111114400
" />
<path d="M150146800 90582100
L149907600 90649600
" />
<path d="M161991400 95986400
L161828500 95795200
" />
<path d="M143104000 109563400
L143308100 109714900
" />
<path d="M164400000 105851800
L164450200 105606500
" />
<path d="M167616400 109173000
L168320100 109452700
" />
<path d="M163256100 97854500
L163134000 97636600
" />
<path d="M163256500 107105100
L163309700 106859500
" />
<path d="M138923100 98369300
L138875500 98615900
" />
<path d="M142583500 106938500
L142731800 107138200
" />
<path d="M151848200 112886900
L152089400 112816500
" />
<path d="M153265500 114257800
L153495900 114164800
" />
<path d="M161905200 94303500
L161741600 94113900
" />
<path d="M161161800 101164100
L161075500 100928100
" />
<path d="M140228000 106328800
L140355000 106542400
" />
<path d="M147163000 111506800
L147407500 111564900
" />
<path d="M150614800 116158000
L150865400 116149500
" />
<path d="M154395600 113742900
L154614500 113625200
" />
<path d="M162150100 96181200
L161991400 95986400
" />
<path d="M139633400 108442700
L139778700 108647600
" />
<path d="M146396000 94382200
L146202700 94538900
" />
<path d="M159245100 108692000
L159350900 108464100
" />
<path d="M158213300 110427600
L158362000 110217700
" />
<path d="M159882300 92415900
L159675000 92267700
" />
<path d="M157549500 113648100
L157744400 113489400
" />
<path d="M147365600 114897500
L147614100 114934200
" />
<path d="M140990000 103826900
L141071000 104064700
" />
<path d="M147297500 92035900
L147033200 92075300
" />
<path d="M163989200 107296400
L164070600 107059400
" />
<path d="M147623900 93531100
L147410000 93662900
" />
<path d="M146284500 113001300
L146526600 113057200
" />
<path d="M138746900 106930900
L138859400 107153900
" />
<path d="M163485900 98298000
L163373400 98075000
" />
<path d="M153367300 90194500
L153116100 90191200
" />
<path d="M152086000 114646700
L152325200 114579200
" />
<path d="M156030100 110689900
L156220000 110529100
" />
<path d="M138965000 103101500
L139022000 103343400
" />
<path d="M151369300 111765600
L151621700 111732600
" />
<path d="M164495200 105360100
L164534900 105112800
" />
<path d="M151873400 111694300
L152124200 111650800
" />
<path d="M147402000 91725900
L147188400 91853000
" />
<path d="M158139100 91364100
L157908900 91254900
" />
<path d="M141363600 95900900
L141266500 96129600
" />
<path d="M159777900 111276100
L159917800 111070700
" />
<path d="M160066500 98905700
L159931400 98697000
" />
<path d="M161314900 111380400
L161463000 111173100
" />
<path d="M140574300 102113900
L140617200 102364400
" />
<path d="M159595500 113258400
L159785400 113088000
" />
<path d="M144813300 110632300
L145038800 110743100
" />
<path d="M153352100 93429700
L153104200 93409100
" />
<path d="M159785400 113088000
L159971600 112913400
" />
<path d="M144064200 108613500
L144247900 108781200
" />
<path d="M159003900 113744300
L159204600 113586700
" />
<path d="M153725400 112176000
L153950200 112063900
" />
<path d="M162568700 100006600
L162465600 99780400
" />
<path d="M147875200 115897200
L148120800 115947500
" />
<path d="M159931400 98697000
L159791900 98491300
" />
<path d="M138859400 107153900
L138976700 107374400
" />
<path d="M145918700 92766900
L146044400 92917200
" />
<path d="M157676300 91150800
L157441500 91051800
" />
<path d="M159226900 106524800
L159331500 106292700
" />
<path d="M151116300 111793300
L151369300 111765600
" />
<path d="M150143400 92412300
L149903900 92488000
" />
<path d="M142537100 112946600
L142743200 113087800
" />
<path d="M138826000 102366400
L138867100 102614300
" />
<path d="M160660100 109778800
L160767100 109554500
" />
<path d="M160086300 92568600
L159882300 92415900
" />
<path d="M159003000 106982000
L159117300 106754600
" />
<path d="M145873600 89957200
L145638900 90057400
" />
<path d="M162252300 109865000
L162366600 109637300
" />
<path d="M160166000 105835700
L160207600 105590500
" />
<path d="M147828500 91975900
L147562600 92002800
" />
<path d="M161004900 111784900
L161162100 111584300
" />
<path d="M158294900 95089600
L158080200 94959000
" />
<path d="M143115500 98474200
L143005900 98704000
" />
<path d="M144323500 94401300
L144167400 94602000
" />
<path d="M138765500 99361400
L138739900 99611300
" />
<path d="M151623000 92071400
L151369400 92114600
" />
<path d="M161751300 105941900
L161772200 105685500
" />
<path d="M156094200 114632000
L156311200 114505500
" />
<path d="M154048400 115554900
L154284100 115472400
" />
<path d="M159464400 92124200
L159250700 91985400
" />
<path d="M142706400 105822400
L142801500 106058500
" />
<path d="M152562800 114506600
L152798900 114428800
" />
<path d="M159945300 106810800
L160008800 106567700
" />
<path d="M144015900 94806100
L143869100 95013600
" />
<path d="M138696500 100363500
L138693200 100614700
" />
<path d="M140479700 101357300
L140505600 101610200
" />
<path d="M148058600 91373100
L147837200 91485900
" />
<path d="M140719600 102859300
L140779100 103103400
" />
<path d="M163007500 97419600
L162876200 97205400
" />
<path d="M160152800 101606600
L160103900 101356800
" />
<path d="M157509300 114720000
L157731700 114594800
" />
<path d="M138004900 98683600
L137940300 98923200
" />
</g>
<g style="fill:#4D7FC4; fill-opacity:1.0; 
stroke:#4D7FC4; stroke-width:1.000000; stroke-opacity:1; 
stroke-linecap:round; stroke-linejoin:round;">
<circle cx="147828500.000000" cy="113252900.000000" r="100000.000000" /> 
</g>
<g style="fill:#4D7FC4; fill-opacity:1.0; 
stroke:#4D7FC4; stroke-width:200000.000000; stroke-opacity:1; 
stroke-linecap:round; stroke-linejoin:round;">
</g>
<g style="fill:#4D7FC4; fill-opacity:0.0; 
stroke:#4D7FC4; stroke-width:200000.000000; stroke-opacity:1; 
stroke-linecap:round; stroke-linejoin:round;">
<path d="M158348200 96786500
L158168200 96615000
" />
<path d="M157204500 90958100
L156965500 90869700
" />
<path d="M159648000 98288600
L159499800 98089000
" />
<path d="M161797100 104657100
L161788800 104400000
" />
<path d="M144824400 109264100
L145026200 109419300
" />
<path d="M138739900 99611300
L138719900 99861700
" />
<path d="M141745100 112338100
L141938100 112496600
" />
<path d="M138703300 101117000
L138716700 101367900
" />
<path d="M144625800 109104700
L144824400 109264100
" />
<path d="M138735700 101618400
L138760300 101868400
" />
<path d="M156923000 90010700
L156855800 89765000
" />
<path d="M142451400 105102700
L142531400 105344400
" />
<path d="M162740100 96994200
L162599400 96786100
" />
<path d="M160431600 110220100
L160548200 110000700
" />
<path d="M149352200 113285800
L149606000 113271300
" />
<path d="M167889700 94737100
L167964500 94910500
" />
<path d="M138439400 97420000
L138548000 97465600
" />
<path d="M162930800 100932000
L162847900 100697700
" />
<path d="M161609800 98267900
L161461800 98057500
" />
<path d="M137940300 98923200
L137880900 99164100
" />
<path d="M150387400 90520000
L150146800 90582100
" />
<path d="M143515600 109861700
L143726300 110003900
" />
<path d="M141666900 105448200
L141784000 105670500
" />
<path d="M157044200 111795000
L157224400 111611300
" />
<path d="M158631500 107649100
L158760000 107429300
" />
<path d="M138775100 108554500
L138890500 108782200
" />
<path d="M159781400 100126100
L159701400 99884400
" />
<path d="M156943800 109846700
L157115500 109666600
" />
<path d="M138890500 108782200
L139010800 109007300
" />
<path d="M145643600 95033100
L145464500 95205700
" />
<path d="M154794700 94399300
L154560500 94299500
" />
<path d="M142048900 94577800
L141922700 94791900
" />
<path d="M150108600 93578000
L149858800 93626900
" />
<path d="M145864700 109996400
L146081700 110129500
" />
<path d="M148386400 111742100
L148633200 111773200
" />
<path d="M141938100 112496600
L142134500 112650900
" />
<path d="M161606600 110962500
L161745400 110748800
" />
<path d="M153950200 112063900
L154172500 111946800
" />
<path d="M146301400 110258000
L146523900 110381800
" />
<path d="M158722100 93299200
L158502700 93182600
" />
<path d="M143640500 91182500
L143433000 91331300
" />
<path d="M142287500 98418000
L142224000 98661000
" />
<path d="M142128900 103872000
L142183000 104120800
" />
<path d="M139224200 104060800
L139302000 104296900
" />
<path d="M153120200 89132800
L152870600 89109000
" />
<path d="M151116600 90365100
L150872400 90411400
" />
<path d="M160113300 96506400
L159925600 96330600
" />
</g>
<g style="fill:#4D7FC4; fill-opacity:1.0; 
stroke:#4D7FC4; stroke-width:1.000000; stroke-opacity:1; 
stroke-linecap:round; stroke-linejoin:round;">
<circle cx="156094200.000000" cy="90596800.000000" r="100000.000000" /> 
</g>
<g style="fill:#4D7FC4; fill-opacity:1.0; 
stroke:#4D7FC4; stroke-width:200000.000000; stroke-opacity:1; 
stroke-linecap:round; stroke-linejoin:round;">
</g>
<g style="fill:#4D7FC4; fill-opacity:0.0; 
stroke:#4D7FC4; stroke-width:200000.000000; stroke-opacity:1; 
stroke-linecap:round; stroke-linejoin:round;">
<path d="M144311500 96524200
L144160700 96729200
" />
<path d="M162932000 95722600
L162798500 95510700
" />
<path d="M148865500 115034300
L149116700 115037600
" />
<path d="M152601400 115941000
L152845900 115889800
" />
<path d="M145650600 109858800
L145864700 109996400
" />
<path d="M163467300 105867500
L163492900 105617500
" />
<path d="M140779100 103103400
L140843900 103346200
" />
<path d="M164637600 102614300
L164618600 102365200
" />
<path d="M159153000 93546900
L158938900 93420700
" />
<path d="M140458100 99579900
L140444100 99833800
" />
<path d="M140105600 106112500
L140228000 106328800
" />
<path d="M155948400 92227500
L155706200 92171600
" />
<path d="M143098500 96311300
L142987700 96536800
" />
<path d="M146336700 112794900
L146551400 112953900
" />
<path d="M164273500 100399600
L164206500 100159000
" />
<path d="M138976300 98123700
L138923100 98369300
" />
<path d="M154699700 92006200
L154443900 91979500
" />
<path d="M140436200 100596200
L140445000 100850200
" />
<path d="M145918700 92766900
L145725500 92932200
" />
<path d="M143591600 95435900
L143461000 95650600
" />
<path d="M149362200 116119800
L149612300 116138200
" />
<path d="M145898100 114564300
L146138500 114632000
" />
<path d="M161047400 93391900
L160864400 93220900
" />
<path d="M137661000 100384700
L137632600 100631200
" />
<path d="M139151600 103823200
L139224200 104060800
" />
<path d="M148844000 113297700
L149098200 113294600
" />
<path d="M154867200 90331300
L154618700 90294600
" />
<path d="M163406900 102862400
L163365700 102614600
" />
<path d="M161226700 93566800
L161047400 93391900
" />
<path d="M142306900 104614500
L142376600 104859400
" />
<path d="M143228900 91484500
L143028200 91642100
" />
<path d="M164134300 99919900
L164056900 99682400
" />
<path d="M138790300 102117800
L138826000 102366400
" />
<path d="M139225300 107809200
L139356600 108023400
" />
<path d="M160869200 109327900
L160966300 109099200
" />
<path d="M141801200 95008700
L141684600 95228100
" />
<path d="M161402200 93745400
L161226700 93566800
" />
<path d="M149434000 90800000
L149199700 90882900
" />
<path d="M159481000 111681400
L159631700 111480400
" />
<path d="M143734400 97362700
L143601300 97579700
" />
<path d="M162518100 95095600
L162371300 94892700
" />
<path d="M153599600 93455600
L153352100 93429700
" />
<path d="M159733900 96159000
L159538400 95991800
" />
<path d="M149196200 92746900
L148964300 92843700
" />
<path d="M141079900 93632500
L140929800 93832200
" />
<path d="M149128600 111819700
L149376900 111835000
" />
<path d="M157370400 92672400
L157137600 92585400
" />
<path d="M138676200 96880000
L138554400 97148500
" />
<path d="M149112500 116096000
L149362200 116119800
" />
<path d="M137826500 99406300
L137777300 99649500
" />
<path d="M141922700 94791900
L141801200 95008700
" />
<path d="M140996000 111651900
L141178500 111830300
" />
<path d="M140472400 111093500
L140642800 111283400
" />
<path d="M155432900 114983900
L155655900 114871400
" />
<path d="M151116500 93435500
L150863500 93463200
" />
<path d="M163773200 108407900
L164025400 108308700
" />
<path d="M156094200 90596800
L156323900 90042500
" />
<path d="M152112400 90233700
L151862400 90258300
" />
<path d="M143229900 92965100
L143066200 93155600
" />
<path d="M139034800 97879400
L138976300 98123700
" />
<path d="M138438200 96875700
L138217400 96964800
" />
<path d="M156208500 89453700
L155974600 89554600
" />
<path d="M143066200 93155600
L142906800 93349800
" />
<path d="M144297200 91902300
L144109600 92069400
" />
<path d="M142903300 109407300
L143104000 109563400
" />
<path d="M162666800 100234900
L162568700 100006600
" />
<path d="M152607300 93383800
L152358600 93379100
" />
<path d="M147206000 110724900
L147438100 110829500
" />
<path d="M141005400 96827800
L140928600 97064200
" />
<path d="M167889700 94737100
L167962000 94911600
" />
<path d="M139928500 108849300
L140082700 109047600
" />
<path d="M164208300 108108700
L164284400 107848600
" />
<path d="M144501100 90634000
L144281500 90764100
" />
<path d="M147895100 111664000
L148140300 111705600
" />
<path d="M161609900 106960800
L161653900 106707300
" />
<path d="M157284200 114840300
L157509300 114720000
" />
<path d="M141572700 95450000
L141465700 95674300
" />
<path d="M140917900 109985000
L141097100 110161000
" />
<path d="M143745800 92415900
L143569800 92595100
" />
<path d="M158506500 95224900
L158294900 95089600
" />
<path d="M148508600 91162100
L148282400 91265200
" />
<path d="M161388900 101882600
L161318500 101641400
" />
<path d="M151614200 116092200
L151862100 116062500
" />
<path d="M141726100 92862900
L141555900 93053100
" />
<path d="M159856200 100369400
L159781400 100126100
" />
<path d="M164391800 100884900
L164335300 100641600
" />
<path d="M160765700 94727900
L160575200 94564200
" />
<path d="M143726300 110003900
L143937900 110139200
" />
<path d="M162465600 99780400
L162357700 99556600
" />
<path d="M162772600 108702700
L162861000 108463700
" />
<path d="M155931400 94970800
L155708900 94847000
" />
<path d="M159675000 92267700
L159464400 92124200
" />
<path d="M148736900 91064000
L148508600 91162100
" />
<path d="M140477900 99326500
L140673000 99343900
" />
<path d="M145725500 92932200
L145536200 93101700
" />
<path d="M159136100 95671000
L158929700 95517500
" />
<path d="M147828500 91975900
L147845900 92171000
" />
<path d="M142165900 98905500
L142113800 99148700
" />
<path d="M163529500 96822600
L163419500 96597600
" />
<path d="M154111800 89281200
L153865200 89236100
" />
<path d="M160843300 111981900
L161004900 111784900
" />
<path d="M139400900 109666000
L139540400 109879700
" />
<path d="M156189200 92288600
L155948400 92227500
" />
<path d="M164488800 101374900
L164443000 101129400
" />
<path d="M142049400 110979100
L142250400 111129700
" />
<path d="M154187500 91958600
L153930700 91943600
" />
<path d="M148614400 115025400
L148865500 115034300
" />
<path d="M139356600 108023400
L139492700 108234600
" />
<path d="M160154000 112734800
L160332300 112552300
" />
<path d="M147188400 91853000
L146977700 91984700
" />
<path d="M153159100 91933700
L152902000 91942000
" />
<path d="M149386900 89339000
L149143600 89395500
" />
<path d="M152362900 90214700
L152112400 90233700
" />
<path d="M156724600 90786600
L156481900 90708900
" />
<path d="M150619700 114940500
L150868400 114904900
" />
<path d="M144590400 110516400
L144813300 110632300
" />
<path d="M141784000 105670500
L141906100 105890100
" />
<path d="M151361300 113011200
L151605400 112951700
" />
<path d="M159547100 108001500
L159637400 107767100
" />
<path d="M139166500 97396100
L139098800 97636500
" />
<path d="M152109800 93379800
L151861100 93385800
" />
<path d="M144039300 113837900
L144264400 113946300
" />
<path d="M141603700 108194600
L141777500 108380200
" />
<path d="M159982400 94099100
L159778100 93952900
" />
<path d="M142901300 98936100
L142801500 99170300
" />
<path d="M144152600 110269800
L144370100 110395500
" />
<path d="M150113300 116158900
L150364100 116161100
" />
<path d="M148140300 111705600
L148386400 111742100
" />
<path d="M160196300 101857400
L160152800 101606600
" />
<path d="M155640300 110999000
L155836800 110846500
" />
<path d="M140459500 101104000
L140479700 101357300
" />
<path d="M154614500 113625200
L154830800 113502800
" />
<path d="M159802000 107292400
L159876400 107052400
" />
<path d="M151862100 116062500
L152109400 116027300
" />
<path d="M148628100 93949400
L148386400 94029400
" />
<path d="M154749900 115292000
L154979800 115194300
" />
<path d="M155207500 115091500
L155432900 114983900
" />
<path d="M141364900 112004700
L141555100 112174900
" />
<path d="M142376600 104859400
L142451400 105102700
" />
<path d="M138149300 98208700
L138074600 98445400
" />
<path d="M142356500 98176400
L142287500 98418000
" />
<path d="M164217800 106580700
L164283800 106339100
" />
<path d="M160381100 94404800
L160183400 94249700
" />
<path d="M162580000 109174500
L162678900 108939700
" />
<path d="M153331200 115771500
L153571800 115704500
" />
<path d="M149612300 116138200
L149862700 116151200
" />
<path d="M164450200 105606500
L164495200 105360100
" />
<path d="M141955300 108561800
L142137200 108739300
" />
<path d="M143164200 113356500
L143379000 113484000
" />
<path d="M140505600 101610200
L140537100 101862400
" />
<path d="M146551400 112953900
L146769900 113107800
" />
<path d="M140306100 110899800
L140472400 111093500
" />
<path d="M148081900 113272700
L148335800 113286700
" />
<path d="M157571800 111231900
L157739000 111036300
" />
<path d="M146042900 115771200
L146265900 115668600
" />
<path d="M141268900 107812100
L141419200 107686400
" />
<path d="M161135700 95067800
L160952600 94895800
" />
<path d="M145918700 112461900
L146125700 112630800
" />
<path d="M146625700 114754500
L146871300 114807700
" />
<path d="M150866500 113113600
L151116000 113065200
" />
<path d="M141087400 96593200
L141005400 96827800
" />
<path d="M143201600 107718000
L143366400 107904300
" />
<path d="M159616400 99644500
L159526400 99406400
" />
<path d="M161375800 107926700
L161442200 107687200
" />
<path d="M140504800 106168200
L140537900 106433300
" />
<path d="M147863300 114965300
L148113300 114990900
" />
<path d="M156094200 90596800
L155851300 90532800
" />
<path d="M145117300 95562200
L144949600 95745900
" />
<path d="M163497100 103610500
L163472600 103360500
" />
<path d="M161724600 106197800
L161751300 105941900
" />
<path d="M158835000 112450600
L159002800 112263800
" />
<path d="M159331500 106292700
L159431300 106058500
" />
<path d="M155031600 111430800
L155237600 111291200
" />
<path d="M143872000 97148600
L143734400 97362700
" />
<path d="M139684500 110090300
L139833300 110297800
" />
<path d="M138913400 102858400
L138965000 103101500
" />
<path d="M151116300 89093200
L150867200 89112200
" />
<path d="M140433100 100342000
L140436200 100596200
" />
<path d="M138074600 98445400
L138004900 98683600
" />
<path d="M161696900 103375500
L161659400 103121000
" />
<path d="M161879400 110532100
L162008600 110312500
" />
<path d="M159204600 113586700
L159401800 113424700
" />
<path d="M156151100 95099300
L155931400 94970800
" />
<path d="M141899000 102118200
L141915600 102366400
" />
<path d="M158080200 94959000
L157862700 94833300
" />
<path d="M144648900 94010800
L144484000 94204200
" />
<path d="M156860000 111974500
L157044200 111795000
" />
<path d="M139566000 104993900
L139664100 105222200
" />
<path d="M142531400 105344400
L142616400 105584300
" />
<path d="M137959300 104829200
L138026300 105069800
" />
<path d="M157921300 108704600
L158072100 108499600
" />
<path d="M160351700 103856600
L160351000 103607800
" />
<path d="M145038800 110743100
L145266600 110848900
" />
<path d="M163148700 101644800
L163081200 101405600
" />
<path d="M141911100 100626600
L141895800 100874900
" />
<path d="M168116200 95285100
L168116700 95285100
" />
<path d="M148184400 89673900
L147948700 89756400
" />
<path d="M156855800 89765000
L156692700 89569300
" />
<path d="M141957600 100131200
L141931700 100378700
" />
<path d="M150120300 114995100
L150370300 114970600
" />
<path d="M160103900 101356800
L160049800 101108000
" />
<path d="M162678900 108939700
L162772600 108702700
" />
</g>
<g style="fill:#4D7FC4; fill-opacity:1.0; 
stroke:#4D7FC4; stroke-width:1.000000; stroke-opacity:1; 
stroke-linecap:round; stroke-linejoin:round;">
<circle cx="140477900.000000" cy="99326500.000000" r="100000.000000" /> 
</g>
<g style="fill:#4D7FC4; fill-opacity:1.0; 
stroke:#4D7FC4; stroke-width:200000.000000; stroke-opacity:1; 
stroke-linecap:round; stroke-linejoin:round;">
</g>
<g style="fill:#4D7FC4; fill-opacity:0.0; 
stroke:#4D7FC4; stroke-width:200000.000000; stroke-opacity:1; 
stroke-linecap:round; stroke-linejoin:round;">
<path d="M155462900 113107800
L155673300 112959800
" />
<path d="M155312800 93785500
L155069700 93722000
" />
<path d="M146356500 90474700
L146138600 90596800
" />
<path d="M141906100 105890100
L142033100 106106800
" />
<path d="M150370300 114970600
L150619700 114940500
" />
<path d="M160244100 105344400
L160275200 105097600
" />
<path d="M157419500 94596500
L157194000 94485700
" />
<path d="M146748800 110501000
L146976200 110615300
" />
<path d="M145566200 112802200
L145804100 112873800
" />
<path d="M154582100 93611800
L154337700 93564800
" />
<path d="M163198000 107349400
L163256500 107105100
" />
<path d="M155706200 92171600
L155462900 92121000
" />
<path d="M163492900 105617500
L163512900 105367100
" />
<path d="M156671700 112149800
L156860000 111974500
" />
<path d="M142334200 112801000
L142537100 112946600
" />
<path d="M142616400 105584300
L142706400 105822400
" />
<path d="M138098500 105308900
L138175900 105546400
" />
<path d="M142706200 109246800
L142903300 109407300
" />
<path d="M161616200 102867400
L161567200 102614900
" />
<path d="M137632600 100631200
L137609500 100878300
" />
<path d="M158280800 93070700
L158056500 92963700
" />
<path d="M161567200 102614800
L161513200 102369500
" />
<path d="M164344500 106096100
L164400000 105851800
" />
<path d="M144370100 110395500
L144590400 110516400
" />
<path d="M137789800 104099400
L137841000 104343900
" />
<path d="M153571800 115704500
L153810900 115632300
" />
<path d="M146792300 94081500
L146592600 94229800
" />
<path d="M142601100 93748400
L142454900 93952700
" />
<path d="M151605400 112951700
L151848200 112886900
" />
<path d="M158381700 114190400
L158592300 114046300
" />
<path d="M150871500 92217600
L150627400 92277100
" />
<path d="M157351300 113802300
L157549500 113648100
" />
<path d="M141280200 110333000
L141467100 110500900
" />
</g>
<g style="fill:#4D7FC4; fill-opacity:1.0; 
stroke:#4D7FC4; stroke-width:1.000000; stroke-opacity:1; 
stroke-linecap:round; stroke-linejoin:round;">
<circle cx="163989200.000000" cy="107296400.000000" r="100000.000000" /> 
</g>
<g style="fill:#4D7FC4; fill-opacity:1.0; 
stroke:#4D7FC4; stroke-width:200000.000000; stroke-opacity:1; 
stroke-linecap:round; stroke-linejoin:round;">
</g>
<g style="fill:#4D7FC4; fill-opacity:0.0; 
stroke:#4D7FC4; stroke-width:200000.000000; stroke-opacity:1; 
stroke-linecap:round; stroke-linejoin:round;">
<path d="M163503100 108386000
L163773200 108407900
" />
<path d="M149862700 116151200
L150113300 116158900
" />
<path d="M142751700 93547400
L142601100 93748400
" />
<path d="M154086300 111114400
L154324400 111024400
" />
<path d="M154608900 111697700
L154822800 111565900
" />
<path d="M142323100 108912700
L142512800 109081900
" />
<path d="M160345000 103359100
L160333800 103110500
" />
<path d="M137614200 102863600
L137638600 103112200
" />
<path d="M143229800 98246800
L143115500 98474200
" />
<path d="M158883800 107206900
L159003000 106982000
" />
<path d="M145570800 115682000
L145797500 115775900
" />
<path d="M138716700 101367900
L138735700 101618400
" />
</g>
<g style="fill:#4D7FC4; fill-opacity:1.0; 
stroke:#4D7FC4; stroke-width:1.000000; stroke-opacity:1; 
stroke-linecap:round; stroke-linejoin:round;">
<circle cx="141268900.000000" cy="97416700.000000" r="100000.000000" /> 
</g>
<g style="fill:#4D7FC4; fill-opacity:1.0; 
stroke:#4D7FC4; stroke-width:200000.000000; stroke-opacity:1; 
stroke-linecap:round; stroke-linejoin:round;">
</g>
<g style="fill:#4D7FC4; fill-opacity:0.0; 
stroke:#4D7FC4; stroke-width:200000.000000; stroke-opacity:1; 
stroke-linecap:round; stroke-linejoin:round;">
<path d="M156503600 94183700
L156269100 94093500
" />
<path d="M145659300 114491300
L145898100 114564300
" />
<path d="M163695700 97191000
L166116400 96147300
" />
<path d="M167962000 94911600
L167964500 94910500
" />
<path d="M140673600 98024600
L140623000 98267900
" />
<path d="M161513200 102369500
L161453700 102125400
" />
<path d="M160267600 102361500
L160234600 102109100
" />
<path d="M144626100 96123800
L144466700 96322400
" />
<path d="M141851800 110824000
L142049400 110979100
" />
<path d="M164594200 102116600
L164564500 101868700
" />
<path d="M147630700 115841500
L147875200 115897200
" />
<path d="M152864900 90193500
L152613800 90201300
" />
<path d="M156692700 89569300
L156463200 89458900
" />
<path d="M141157300 104300700
L141248900 104534600
" />
<path d="M144491700 114049700
L144721300 114148100
" />
<path d="M151845400 114708800
L152086000 114646700
" />
<path d="M155462800 92120900
L155209300 92076900
" />
<path d="M166116400 96147300
L166116500 96147500
" />
<path d="M156882200 90262100
L156923000 90010700
" />
<path d="M161828500 95795200
L161661400 95607600
" />
<path d="M160483800 92887500
L160286800 92725800
" />
<path d="M150620300 111831800
L150868500 111815200
" />
<path d="M145963700 111135300
L146200100 111220300
" />
<path d="M151116500 116135600
L151365600 116116600
" />
<path d="M157441500 91051800
L157204500 90958100
" />
<path d="M155673300 112959800
L155880200 112806900
" />
<path d="M148964300 92843700
L148734700 92945700
" />
<path d="M145400600 115505100
L145570800 115682000
" />
<path d="M151862400 90258300
L151613000 90288300
" />
<path d="M138664800 108324400
L138775100 108554500
" />
<path d="M158072100 108499600
L158218700 108291500
" />
<path d="M138976700 107374400
L139098800 107592200
" />
<path d="M147410000 93662800
L147201200 93798000
" />
<path d="M153361400 111354200
L153604700 111279400
" />
<path d="M146125700 112630800
L146336700 112794900
" />
<path d="M161692200 106453000
L161724600 106197800
" />
<path d="M160476500 96870800
L160297000 96686600
" />
<path d="M156768400 110023100
L156943800 109846700
" />
<path d="M157194000 94485700
L156966200 94379900
" />
<path d="M159637400 107767100
L159722300 107530700
" />
<path d="M139084100 103584000
L139151600 103823200
" />
<path d="M152622800 111547800
L152870300 111488500
" />
<path d="M149362500 93740300
L149116300 93804900
" />
<path d="M159876400 107052400
L159945300 106810800
" />
<path d="M139489300 96450900
L139400900 96684500
" />
<path d="M143569800 92595100
L143397800 92778200
" />
<path d="M162847900 100697700
L162759800 100465300
" />
<path d="M155255100 113244100
L155462900 113107800
" />
<path d="M158696900 97140800
L158524400 96961800
" />
<path d="M150384600 92341900
L150143400 92412300
" />
<path d="M159778100 93952900
L159572700 93813000
" />
<path d="M150112200 113225200
L150364500 113193700
" />
<path d="M140665600 102614000
L140719600 102859300
" />
<path d="M142261200 92315400
L142078900 92494000
" />
<path d="M148367500 115992600
L148615100 116032400
" />
<path d="M155655900 114871400
L155876400 114754100
" />
<path d="M160183900 110651000
L160310100 110436900
" />
<path d="M138229000 97973700
L138149300 98208700
" />
<path d="M160207600 105590500
L160244100 105344400
" />
<path d="M153116100 90191200
L152864900 90193500
" />
<path d="M138346100 106016000
L138438800 106247900
" />
<path d="M162064800 94496500
L161905200 94303500
" />
<path d="M140643000 94241200
L140506400 94450200
" />
<path d="M158360800 108080200
L158498400 107866100
" />
<path d="M141097100 110161000
L141280200 110333000
" />
<path d="M159364300 93677700
L159153000 93546900
" />
<path d="M144466700 96322400
L144311500 96524200
" />
<path d="M166302300 108650600
L167616400 109173000
" />
<path d="M142036500 103371400
L142080000 103622200
" />
<path d="M142113800 99148700
L142066800 99393100
" />
<path d="M163270100 108247500
L163503100 108386000
" />
<path d="M160310100 110436900
L160431600 110220100
" />
<path d="M154369400 90263500
L154119500 90237900
" />
<path d="M159166500 112073200
L159326000 111879100
" />
<path d="M157951300 114464700
L158168000 114329900
" />
<path d="M139492700 108234600
L139633400 108442700
" />
<path d="M139384900 104531100
L139473000 104763500
" />
<path d="M163399500 106365200
L163436200 106116700
" />
<path d="M167198400 95681000
L168116700 95285100
" />
<path d="M152388700 91976300
L152132800 92002200
" />
<path d="M147145500 115714600
L147387400 115780600
" />
<path d="M153604700 111279400
L153846400 111199400
" />
<path d="M149625500 111845000
L149874200 111849700
" />
<path d="M148113300 114990900
L148363700 115010900
" />
<path d="M163537300 104362900
L163529500 104111800
" />
<path d="M138693200 100614700
L138695500 100865900
" />
<path d="M143869100 95013600
L143726900 95224300
" />
<path d="M159526400 99406400
L159431300 99170300
" />
<path d="M154830800 113502800
L155044400 113375800
" />
<path d="M150359400 93534500
L150108600 93578000
" />
<path d="M164070600 107059400
L164146800 106820900
" />
<path d="M146523900 110381800
L146748800 110501000
" />
<path d="M142952200 113224400
L143164200 113356500
" />
<path d="M152119400 89069900
L151868700 89067700
" />
<path d="M162132900 110090100
L162252300 109865000
" />
<path d="M160049800 101108000
L159990500 100860500
" />
<path d="M158662900 112633700
L158835000 112450600
" />
<path d="M141657600 110664600
L141851800 110824000
" />
<path d="M157935600 113326600
L158123200 113159400
" />
<path d="M142454900 93952700
L142315000 94158100
" />
<path d="M141268900 107812100
L141434200 108005300
" />
<path d="M149874200 111849700
L150123000 111849000
" />
<path d="M153869100 90217900
L153618300 90203400
" />
<path d="M141895800 100874900
L141885800 101123500
" />
<path d="M142250400 111129700
L142454700 111275900
" />
<path d="M153618300 90203400
L153367300 90194500
" />
<path d="M142595500 97461700
L142510500 97698100
" />
<path d="M140144100 110702600
L140306100 110899800
" />
<path d="M164618600 102365200
L164594200 102116600
" />
<path d="M159631700 111480400
L159777800 111276100
" />
<path d="M147828500 113252900
L148081900 113272700
" />
<path d="M161075500 100928100
L160983900 100694200
" />
<path d="M157056500 114955700
L157284200 114840300
" />
<path d="M144014100 96937300
L143872000 97148600
" />
<path d="M148421900 89596500
L148184400 89673900
" />
<path d="M145266600 110848900
L145496800 110949600
" />
<path d="M141434200 108005300
L141603700 108194600
" />
<path d="M158814400 91722100
L158592000 91597800
" />
<path d="M160767100 109554500
L160869200 109327900
" />
<path d="M140124100 95094500
L140006100 95314700
" />
<path d="M154392100 111824700
L154608900 111697700
" />
<path d="M148120800 115947500
L148367500 115992600
" />
<path d="M145496800 110949600
L145729200 111045100
" />
<path d="M137571700 101621800
L137569700 101869900
" />
<path d="M144881500 91426500
L144683200 91580700
" />
<path d="M141268900 97416700
L141419200 97542400
" />
<path d="M140374300 94662200
L140246800 94877000
" />
<path d="M162861000 108463700
L162944100 108222900
" />
<path d="M144167400 94602000
L144015900 94806100
" />
<path d="M164640300 104116800
L164653300 103866700
" />
</g>
<g style="fill:#4D7FC4; fill-opacity:1.0; 
stroke:#4D7FC4; stroke-width:1.000000; stroke-opacity:1; 
stroke-linecap:round; stroke-linejoin:round;">
<circle cx="167964500.000000" cy="94910500.000000" r="100000.000000" /> 
</g>
<g style="fill:#4D7FC4; fill-opacity:1.0; 
stroke:#4D7FC4; stroke-width:200000.000000; stroke-opacity:1; 
stroke-linecap:round; stroke-linejoin:round;">
</g>
<g style="fill:#4D7FC4; fill-opacity:0.0; 
stroke:#4D7FC4; stroke-width:200000.000000; stroke-opacity:1; 
stroke-linecap:round; stroke-linejoin:round;">
<path d="M144264400 113946300
L144491700 114049700
" />
<path d="M148060300 93282000
L147840700 93404100
" />
<path d="M141447700 104996100
L141554700 105223400
" />
<path d="M155440500 111147300
L155640300 110999000
" />
<path d="M138175900 105546400
L138258400 105782100
" />
<path d="M142637300 91970400
L142447400 92140800
" />
<path d="M150629300 90463000
L150387400 90520000
" />
<path d="M152870300 111488500
L153116500 111423900
" />
<path d="M163304700 96375000
L163185100 96154900
" />
<path d="M157400300 111423500
L157571800 111231900
" />
<path d="M158771800 109578200
L158897500 109360700
" />
<path d="M143079800 111681900
L143293900 111808100
" />
<path d="M151621700 111732600
L151873400 111694300
" />
<path d="M139784500 95762400
L139681100 95989700
" />
<path d="M141684600 95228100
L141572700 95450000
" />
<path d="M161304200 108164600
L161375800 107926700
" />
<path d="M157001600 95658700
L156793500 95512100
" />
<path d="M155974600 89554600
L155803700 89743500
" />
<path d="M155209300 92076900
L154954900 92038600
" />
<path d="M160275200 105097600
L160301100 104850100
" />
<path d="M144721300 114148100
L144952900 114241500
" />
<path d="M161653900 106707300
L161692200 106453000
" />
<path d="M152358600 93379100
L152109800 93379800
" />
<path d="M137777300 99649500
L137733400 99893700
" />
<path d="M161318500 101641400
L161242800 101401900
" />
<path d="M144247900 108781200
L144435100 108945000
" />
<path d="M153498100 112283100
L153725400 112176000
" />
<path d="M140435800 100087800
L140433100 100342000
" />
<path d="M147948700 89756400
L147714800 89844100
" />
<path d="M142242300 104368300
L142306900 104614500
" />
<path d="M150868500 111815200
L151116300 111793300
" />
<path d="M155851300 90532800
L155607000 90474200
" />
<path d="M161774500 104143200
L161754500 103886700
" />
<path d="M142831000 91804100
L142637300 91970400
" />
<path d="M154443900 91979500
L154187500 91958600
" />
<path d="M148880700 111799100
L149128600 111819700
" />
<path d="M157149600 113952100
L157351300 113802300
" />
<path d="M139681100 95989700
L139582700 96219300
" />
<path d="M153950400 113963600
L154174200 113855700
" />
<path d="M142183000 104120800
L142242300 104368300
" />
<path d="M140506400 94450200
L140374300 94662200
" />
<path d="M149619000 115027500
L149869800 115014100
" />
<path d="M151364400 93413600
L151116500 93435500
" />
<path d="M158938900 93420700
L158722100 93299200
" />
<path d="M142685700 97227200
L142595500 97461700
" />
<path d="M163121900 108020600
L163270100 108247500
" />
<path d="M142439600 106735600
L142583500 106938500
" />
<path d="M143596500 113606700
L143816700 113724700
" />
<path d="M164569200 104864700
L164598300 104615900
" />
<path d="M139266100 109449300
L139400900 109666000
" />
<path d="M141881800 101621000
L141887800 101869700
" />
<path d="M154845200 89448100
L154602000 89387200
" />
<path d="M149907600 90649600
L149670000 90722200
" />
<path d="M137595200 102614500
L137614200 102863600
" />
<path d="M152566800 112659800
L152802700 112573500
" />
<path d="M155554400 93854400
L155312800 93785500
" />
<path d="M138676300 96879400
L138438200 96875700
" />
<path d="M137703500 103607400
L137744000 103853900
" />
<path d="M158056500 92963700
L157829900 92861600
" />
<path d="M159538400 95991800
L159339100 95829100
" />
<path d="M145095200 112643400
L145329800 112725400
" />
<path d="M145315500 115274900
L145400600 115505100
" />
<path d="M142134500 112650900
L142334200 112801000
" />
<path d="M163134000 97636600
L163007500 97419600
" />
<path d="M157901700 110837000
L158059800 110634100
" />
<path d="M138559400 108091900
L138664800 108324400
" />
<path d="M159791900 98491300
L159648000 98288600
" />
<path d="M144862400 112556400
L145095200 112643400
" />
<path d="M156793500 95512100
L156582200 95370000
" />
<path d="M153724200 114066700
L153950400 113963600
" />
<path d="M140929800 93832200
L140784200 94035100
" />
<path d="M140477900 99326500
L140458100 99579900
" />
<path d="M159572700 93813000
L159364300 93677700
" />
<path d="M147618300 91603600
L147402000 91725900
" />
<path d="M142300000 106529600
L142439600 106735600
" />
<path d="M150865400 116149500
L151115800 116135600
" />
<path d="M156269100 94093500
L156032700 94008500
" />
<path d="M160887100 100462300
L160785100 100232700
" />
<path d="M149859400 113251100
L150112200 113225200
" />
<path d="M138875500 98615900
L138833300 98863600
" />
<path d="M144064800 90898900
L143851100 91038400
" />
<path d="M157601200 92764500
L157370400 92672400
" />
<path d="M160337000 104353900
L160347000 104105300
" />
<path d="M142315000 94158100
L142179700 94366500
" />
<path d="M156965500 90869700
L156724600 90786600
" />
<path d="M168474200 109079100
L168477200 109080300
" />
<path d="M160332300 112552300
L160506700 112365900
" />
<path d="M159925900 100614300
L159856200 100369400
" />
<path d="M151613000 90288300
L151364400 90324000
" />
<path d="M161741600 94113900
L161573900 93927800
" />
<path d="M163529500 96822600
L167962000 94911600
" />
<path d="M160347000 104105300
L160351700 103856600
" />
<path d="M140843900 103346200
L140914300 103587300
" />
<path d="M163134000 107592300
L163198000 107349400
" />
<path d="M158592000 91597800
L158366800 91478400
" />
<path d="M163696300 98751000
L163593600 98523300
" />
<path d="M163442500 103111100
L163406900 102862400
" />
<path d="M147828500 113252900
L147845900 113057800
" />
<path d="M162454100 96581200
L162304300 96379500
" />
<path d="M148282600 93164900
L148060300 93282000
" />
<path d="M163989200 107296400
L168474200 109079100
" />
<path d="M163886700 99212800
L163794000 98980900
" />
<path d="M140729500 97782500
L140673600 98024600
" />
<path d="M164653300 103866700
L164660900 103616300
" />
<path d="M143005900 98704000
L142901300 98936100
" />
<path d="M145288100 91131400
L145083200 91276700
" />
<path d="M162759800 100465300
L162666800 100234900
" />
<path d="M158505900 110004500
L158641200 109792900
" />
<path d="M161745400 110748800
L161879400 110532100
" />
<path d="M137744000 103853900
L137789800 104099400
" />
<path d="M147201200 93798000
L146995200 93937600
" />
<path d="M149098200 113294600
L149352200 113285800
" />
<path d="M160548200 110000700
L160660100 109778800
" />
<path d="M151868700 89067700
L151618000 89070800
" />
<path d="M151861100 93385800
L151612600 93397000
" />
<path d="M145083200 91276700
L144881500 91426500
" />
<path d="M161308900 97850600
L161151500 97647100
" />
<path d="M138056400 97809600
L138229000 97973700
" />
<path d="M148589800 113295000
L148844000 113297700
" />
<path d="M164660900 103616300
L164663100 103365900
" />
<path d="M139098800 107592200
L139225300 107809200
" />
<path d="M142224000 98661000
L142165900 98905500
" />
<path d="M143349000 98021900
L143229800 98246800
" />
<path d="M157224400 111611300
L157400300 111423500
" />
<path d="M158760000 107429300
L158883800 107206900
" />
<path d="M152328900 112740800
L152566800 112659800
" />
<path d="M163357300 106612900
L163399500 106365200
" />
<path d="M153116500 111423900
L153361400 111354200
" />
<path d="M144402900 112367200
L144631600 112464300
" />
<path d="M161746100 98475700
L161609800 98267900
" />
<path d="M139302000 104296900
L139384900 104531100
" />
<path d="M144785800 95933100
L144626100 96123800
" />
<path d="M150867200 89112200
L150618700 89136600
" />
<path d="M162475900 109407100
L162580000 109174500
" />
<path d="M163021800 107980200
L163121900 108020600
" />
<path d="M144435100 108945000
L144625800 109104700
" />
<path d="M140082700 109047600
L140241400 109242400
" />
<path d="M146526600 113057200
L146769900 113107800
" />
<path d="M138554400 97148500
L138439400 97419900
" />
<path d="M162127200 99116300
L162004900 98900000
" />
<path d="M138719900 99861700
L138705400 100112500
" />
<path d="M163319400 102370400
L163267800 102127300
" />
<path d="M140617200 102364400
L140665600 102614000
" />
<path d="M145350600 93275500
L145169000 93453300
" />
<path d="M140571400 109621200
L140742600 109805000
" />
<path d="M145231200 109570100
L145439300 109716700
" />
<path d="M152124200 111650800
L152374000 111601900
" />
<path d="M161242800 101401900
L161161800 101164100
" />
<path d="M147614100 114934200
L147863300 114965300
" />
<path d="M142080000 103622200
L142128900 103872000
" />
<path d="M137897500 104587200
L137959300 104829200
" />
<path d="M153089200 115833300
L153331200 115771500
" />
<path d="M152645200 91956300
L152388700 91976300
" />
<path d="M148734700 92945700
L148507400 93052700
" />
<path d="M140790600 97541600
L140729500 97782500
" />
<path d="M145186500 114329900
L145422000 114413200
" />
<path d="M158362000 110217700
L158505900 110004500
" />
<path d="M160053100 110862300
L160183900 110651000
" />
<path d="M157408400 95964700
L157206600 95809500
" />
<path d="M160317200 102862300
L160295300 102614500
" />
<path d="M143335300 95868100
L143214400 96088400
" />
<path d="M137733400 99893700
L137694500 100138800
" />
<path d="M143952000 112158100
L144176300 112265100
" />
<path d="M143472800 97799400
L143349000 98021900
" />
<path d="M152798900 114428800
L153033100 114345900
" />
<path d="M149430100 92655300
L149196200 92746900
" />
<path d="M149367900 115035300
L149619000 115027500
" />
<path d="M139767200 105448400
L139875100 105672200
" />
<path d="M143730100 112046200
L143952000 112158100
" />
<path d="M154518000 115384700
L154749900 115292000
" />
<path d="M161058400 108868400
L161145400 108635600
" />
<path d="M148661000 89524300
L148421900 89596500
" />
<path d="M150618700 89136600
L150370700 89166300
" />
<path d="M159326000 111879100
L159481000 111681400
" />
<path d="M164056900 99682400
L163974400 99446700
" />
<path d="M163373400 98075000
L163256100 97854500
" />
<path d="M144952900 114241500
L145186500 114329900
" />
<path d="M141988700 99884400
L141957600 100131200
" />
<path d="M161145400 108635600
L161227400 108401000
" />
<path d="M143535100 108087200
L143707700 108266300
" />
<path d="M161151500 97647100
L160989400 97447400
" />
<path d="M138760300 101868400
L138790300 102117800
" />
<path d="M163436200 106116700
L163467300 105867500
" />
<path d="M160565900 99780600
L160448800 99558300
" />
<path d="M164025400 108308700
L164208300 108108700
" />
<path d="M164284400 107848600
L166302300 108650600
" />
<path d="M158865500 97323500
L158696900 97140800
" />
<path d="M146265900 115668600
L146429100 115485300
" />
<path d="M159134300 108917500
L159245100 108692000
" />
<path d="M163267800 102127300
L163210800 101885400
" />
<path d="M164651500 102865100
L164637600 102615000
" />
<path d="M146666300 115566900
L146905100 115643300
" />
<path d="M144176300 112265100
L144402900 112367200
" />
<path d="M158799800 113897500
L159003900 113744300
" />
<path d="M156463200 89458900
L156208500 89453700
" />
<path d="M158123200 113159400
L158307000 112988200
" />
<path d="M142906800 93349800
L142751700 93547400
" />
<path d="M142137200 108739300
L142323100 108912700
" />
<path d="M164622000 104366600
L164640300 104116800
" />
<path d="M145464500 95205700
L145289000 95382100
" />
<path d="M140914300 103587300
L140990000 103826900
" />
<path d="M158168000 114329900
L158381700 114190400
" />
<path d="M163593600 98523300
L163485900 98298000
" />
<path d="M144991500 93635200
L144818100 93821100
" />
<path d="M143028200 91642100
L142831000 91804100
" />
<path d="M150370700 89166300
L150123400 89201500
" />
<path d="M140577300 106697600
L140623000 106960900
" />
<path d="M145707400 90854600
L145496200 90990700
" />
<path d="M150872400 90411400
L150629300 90463000
" />
<path d="M159190800 97699500
L159030200 97509700
" />
<path d="M138639300 106705500
L138746900 106930900
" />
<path d="M141998200 103119700
L142036500 103371400
" />
<path d="M162371300 94892700
L162220200 94693000
" />
<path d="M158498400 107866100
L158631500 107649100
" />
<path d="M156736000 94279200
L156503600 94183700
" />
<path d="M153673600 91934500
L153416400 91931100
" />
<path d="M146592600 94229800
L146396000 94382200
" />
<path d="M139400900 96684500
L139317600 96920000
" />
<path d="M151367400 89079300
L151117000 89093200
" />
<path d="M157739000 111036300
L157901700 110837000
" />
<path d="M150371700 111843000
L150620300 111831800
" />
<path d="M143461000 95650600
L143335300 95868100
" />
<path d="M161503300 107446300
L161559200 107204200
" />
<path d="M154174200 113855700
L154395600 113742900
" />
<path d="M155708900 94847000
L155484000 94727800
" />
<path d="M149116700 115037600
L149367900 115035300
" />
<path d="M161799700 104914400
L161797100 104657100
" />
<path d="M160677400 112175200
L160843300 111981900
" />
<path d="M161461800 98057500
L161308900 97850600
" />
<path d="M139582700 96219300
L139489300 96450900
" />
<path d="M155836800 110846500
L156030100 110689900
" />
<path d="M163472600 103360500
L163442500 103111100
" />
<path d="M140006100 95314700
L139892900 95537300
" />
<path d="M164534900 105112800
L164569200 104864700
" />
<path d="M164335300 100641600
L164273500 100399600
" />
<path d="M140642800 111283400
L140817400 111469600
" />
<path d="M161453700 102125400
L161388900 101882600
" />
<path d="M157984600 96447400
L157797500 96283700
" />
<path d="M143040900 107528100
L143201600 107718000
" />
<path d="M148967300 90971000
L148736900 91064000
" />
<path d="M168474200 109079100
L168544100 108903400
" />
<path d="M162220200 94693000
L162064800 94496500
" />
<path d="M140537900 106433300
L140577300 106697600
" />
<path d="M159350900 108464100
L159451600 108233900
" />
<path d="M159401800 113424700
L159595500 113258400
" />
<path d="M141931700 100378700
L141911100 100626600
" />
<path d="M163309700 106859500
L163357300 106612900
" />
<path d="M157908900 91254900
L157676300 91150800
" />
<path d="M146678400 111374300
L146920000 111443300
" />
<path d="M138536500 106477800
L138639300 106705500
" />
<path d="M153810900 115632300
L154048400 115554900
" />
<path d="M141915600 102366400
L141937500 102614300
" />
<path d="M154284100 115472400
L154518000 115384700
" />
<path d="M138695500 100865900
L138703300 101117000
" />
<path d="M150364500 113193700
L150615900 113156500
" />
<path d="M156311200 114505500
L156525400 114374200
" />
<path d="M138217400 96964800
L138048700 97132800
" />
<path d="M137609500 100878300
L137591700 101125900
" />
<path d="M150863500 93463200
L150611100 93496200
" />
<path d="M153416400 91931100
L153159100 91933700
" />
<path d="M149116300 93804900
L148871400 93874600
" />
<path d="M159451600 108233900
L159547100 108001500
" />
<path d="M148871400 93874600
L148628100 93949400
" />
<path d="M164443000 101129400
L164391800 100884900
" />
<path d="M153104200 93409100
L152855900 93393800
" />
<path d="M162876200 97205400
L162740100 96994200
" />
<path d="M148633200 111773200
L148880700 111799100
" />
<path d="M143433000 91331300
L143228900 91484500
" />
<path d="M163081200 101405600
L163008600 101168000
" />
<path d="M155876400 114754100
L156094200 114632000
" />
<path d="M146977700 91984700
L146769900 92121000
" />
<path d="M140477900 105902300
L140504800 106168200
" />
<path d="M155794400 93928800
L155554400 93854400
" />
<path d="M148386400 94029400
L148146500 94114400
" />
<path d="M139239500 97157300
L139166500 97396100
" />
<path d="M152902000 91942000
L152645200 91956300
" />
<path d="M152845900 115889800
L153089200 115833300
" />
<path d="M158929700 95517500
L158719800 95368800
" />
<path d="M157642400 94712400
L157419500 94596500
" />
<path d="M154172500 111946800
L154392100 111824700
" />
<path d="M149631400 89287800
L149386900 89339000
" />
<path d="M140246800 94877000
L140124100 95094500
" />
<path d="M143366400 107904300
L143535100 108087200
" />
<path d="M160651800 97059100
L160476500 96870800
" />
<path d="M142447400 92140800
L142261200 92315400
" />
<path d="M149199700 90882900
L148967300 90971000
" />
<path d="M148863500 116066900
L149112500 116096000
" />
<path d="M139833300 110297800
L139986500 110501900
" />
<path d="M159917800 111070700
L160053100 110862300
" />
<path d="M139892900 95537300
L139784500 95762400
" />
<path d="M164598300 104615900
L164622000 104366600
" />
<path d="M149903900 92488000
L149666100 92569000
" />
<path d="M151364400 90324000
L151116500 90365100
" />
<path d="M141555400 93053600
L141392700 93243100
" />
<path d="M160785100 100232700
L160678100 100005400
" />
<path d="M145826500 94864400
L145643600 95033100
" />
<path d="M160448800 99558300
L160326700 99338700
" />
<path d="M147117900 114855300
L147365600 114897500
" />
<path d="M147650700 111617000
L147895100 111664000
" />
<path d="M143397800 92778200
L143229900 92965100
" />
<path d="M166116500 96147500
L167198400 95681000
" />
<path d="M155069700 93722000
L154825300 93663900
" />
<path d="M147033200 92075300
L146769900 92121000
" />
<path d="M162357700 99556600
L162244900 99335200
" />
<path d="M159002800 112263800
L159166500 112073200
" />
<path d="M144631600 112464300
L144862400 112556400
" />
<path d="M161463000 111173100
L161606600 110962500
" />
<path d="M159701400 99884400
L159616400 99644500
" />
<path d="M160677200 93053400
L160483800 92887500
" />
<path d="M141555600 112175400
L141745100 112338100
" />
<path d="M157115500 109666600
L157283200 109482900
" />
<path d="M139875100 105672200
L139987900 105893600
" />
<path d="M160952600 94895800
L160765700 94727900
" />
<path d="M160301100 104850100
L160321700 104602200
" />
<path d="M159034000 91851300
L158814400 91722100
" />
<path d="M146800000 90244900
L146577000 90357400
" />
<path d="M147562600 92002800
L147297500 92035900
" />
<path d="M142179700 94366500
L142048900 94577800
" />
<path d="M156740800 90474000
L156882200 90262100
" />
<path d="M154337700 93564800
L154092500 93523200
" />
<path d="M141965200 102867300
L141998200 103119700
" />
<path d="M149670000 90722200
L149434000 90800000
" />
<path d="M157731700 114594800
L157951300 114464700
" />
<path d="M154324400 111024400
L154560500 110929300
" />
<path d="M160183400 94249700
L159982400 94099100
" />
<path d="M152132800 92002200
L151877500 92033900
" />
<path d="M146871300 114807700
L147117900 114855300
" />
<path d="M145729200 111045100
L145963700 111135300
" />
<path d="M145329700 115029900
L145600000 115154100
" />
<path d="M156593900 115171400
L156826400 115066000
" />
<path d="M164564500 101868700
L164529300 101621400
" />
<path d="M146381400 114696000
L146625700 114754500
" />
<path d="M155607000 90474200
L155361500 90421100
" />
<path d="M142881900 96764600
L142781200 96994800
" />
<path d="M154954900 92038600
L154699700 92006200
" />
<path d="M137569700 101869900
L137572900 102118000
" />
<path d="M153369200 89161900
L153120200 89132800
" />
<path d="M160321700 104602200
L160337000 104353900
" />
<path d="M154357500 89331600
L154111800 89281200
" />
<path d="M149876900 89242000
L149631400 89287800
" />
<path d="M154979800 115194300
L155207500 115091500
" />
<path d="M140486700 106753100
L140623000 106960900
" />
<path d="M147837200 91485900
L147618300 91603600
" />
<path d="M140404300 109433600
L140571400 109621200
" />
<path d="M156582200 95370000
L156368100 95232400
" />
<path d="M149869800 115014100
L150120300 114995100
" />
<path d="M141178500 111830300
L141364900 112004700
" />
<path d="M146577000 90357400
L146356500 90474700
" />
<path d="M162304300 96379500
L162150100 96181200
" />
<path d="M144109600 92069400
L143925800 92240600
" />
<path d="M154602000 89387200
L154357500 89331600
" />
<path d="M141392700 93243100
L141234200 93436100
" />
<path d="M154092500 93523200
L153846400 93486700
" />
<path d="M141266500 96129600
L141174400 96360400
" />
<path d="M160678100 100005400
L160565900 99780600
" />
<path d="M145439300 109716700
L145650600 109858800
" />
<path d="M151612600 93397000
L151364400 93413600
" />
<path d="M144488400 91739400
L144297200 91902300
" />
<path d="M161490200 95423800
L161314900 95243900
" />
<path d="M157606700 109104900
L157766100 108906400
" />
<path d="M141885800 101123500
L141881100 101372200
" />
<path d="M150611100 93496200
L150359400 93534500
" />
<path d="M163365700 102614500
L163319400 102370400
" />
<path d="M161788800 104400000
L161774500 104143200
" />
<path d="M159030200 97509700
L158865500 97323500
" />
<path d="M156736600 114238100
L156944700 114097400
" />
<path d="M143851100 91038400
L143640500 91182500
" />
<path d="M146081700 110129500
L146301400 110258000
" />
<path d="M151360400 114817400
L151603500 114765800
" />
<path d="M150627400 92277100
L150384600 92341900
" />
<path d="M163210800 101885400
L163148700 101644800
" />
<path d="M146920000 111443300
L147163000 111506800
" />
<path d="M148507400 93052700
L148282600 93164900
" />
<path d="M151116300 114863700
L151360400 114817400
" />
<path d="M144948600 90388500
L144723500 90508800
" />
<path d="M160297000 96686600
L160113300 96506400
" />
<path d="M152370100 89077600
L152119400 89069900
" />
<path d="M156220000 110529100
L156406400 110364400
" />
<path d="M141900500 92676500
L141726100 92862900
" />
<path d="M141174400 96360400
L141087400 96593200
" />
<path d="M147482900 89936800
L147253000 90034500
" />
<path d="M165216400 102614400
L169099100 102614400
" />
<path d="M156524200 90608100
L156740800 90474000
" />
<path d="M143601300 97579700
L143472800 97799400
" />
<path d="M140935900 97834700
L140776900 98049400
" />
<path d="M151116800 92163600
L150871500 92217600
" />
<path d="M142454700 111275900
L142660100 111415800
" />
<path d="M142025200 99638300
L141988700 99884400
" />
<path d="M163516100 103861000
L163497100 103610500
" />
</g>
<g >
</g>
</g>
<g style="fill:#FFFFFF; fill-opacity:0.0; 
stroke:#FFFFFF; stroke-width:200000.000000; stroke-opacity:1; 
stroke-linecap:round; stroke-linejoin:round;">
</g>
<g style="fill:#FFFFFF; fill-opacity:1.0; 
stroke:#FFFFFF; stroke-width:1.000000; stroke-opacity:1; 
stroke-linecap:round; stroke-linejoin:round;">
<circle cx="163685400.000000" cy="107814400.000000" r="150000.000000" /> 
</g>
<g style="fill:#FFFFFF; fill-opacity:1.0; 
stroke:#FFFFFF; stroke-width:21200.000000; stroke-opacity:1; 
stroke-linecap:round; stroke-linejoin:round;">
</g>
<g style="fill:#FFFFFF; fill-opacity:1.0; 
stroke:#FFFFFF; stroke-width:1.000000; stroke-opacity:1; 
stroke-linecap:round; stroke-linejoin:round;">
<circle cx="146044400.000000" cy="92917200.000000" r="150000.000000" /> 
</g>
<g style="fill:#FFFFFF; fill-opacity:1.0; 
stroke:#FFFFFF; stroke-width:21200.000000; stroke-opacity:1; 
stroke-linecap:round; stroke-linejoin:round;">
</g>
<g style="fill:#FFFFFF; fill-opacity:1.0; 
stroke:#FFFFFF; stroke-width:1.000000; stroke-opacity:1; 
stroke-linecap:round; stroke-linejoin:round;">
<circle cx="167889700.000000" cy="94737100.000000" r="150000.000000" /> 
</g>
<g style="fill:#FFFFFF; fill-opacity:1.0; 
stroke:#FFFFFF; stroke-width:21200.000000; stroke-opacity:1; 
stroke-linecap:round; stroke-linejoin:round;">
</g>
<g style="fill:#FFFFFF; fill-opacity:1.0; 
stroke:#FFFFFF; stroke-width:1.000000; stroke-opacity:1; 
stroke-linecap:round; stroke-linejoin:round;">
<circle cx="165216400.000000" cy="102614400.000000" r="150000.000000" /> 
</g>
<g style="fill:#FFFFFF; fill-opacity:1.0; 
stroke:#FFFFFF; stroke-width:21200.000000; stroke-opacity:1; 
stroke-linecap:round; stroke-linejoin:round;">
</g>
<g style="fill:#FFFFFF; fill-opacity:1.0; 
stroke:#FFFFFF; stroke-width:1.000000; stroke-opacity:1; 
stroke-linecap:round; stroke-linejoin:round;">
<circle cx="141419200.000000" cy="107686400.000000" r="150000.000000" /> 
</g>
<g style="fill:#FFFFFF; fill-opacity:1.0; 
stroke:#FFFFFF; stroke-width:21200.000000; stroke-opacity:1; 
stroke-linecap:round; stroke-linejoin:round;">
</g>
<g style="fill:#FFFFFF; fill-opacity:1.0; 
stroke:#FFFFFF; stroke-width:1.000000; stroke-opacity:1; 
stroke-linecap:round; stroke-linejoin:round;">
<circle cx="163773600.000000" cy="97371600.000000" r="150000.000000" /> 
</g>
<g style="fill:#FFFFFF; fill-opacity:1.0; 
stroke:#FFFFFF; stroke-width:21200.000000; stroke-opacity:1; 
stroke-linecap:round; stroke-linejoin:round;">
</g>
<g style="fill:#FFFFFF; fill-opacity:1.0; 
stroke:#FFFFFF; stroke-width:1.000000; stroke-opacity:1; 
stroke-linecap:round; stroke-linejoin:round;">
<circle cx="147845900.000000" cy="92171000.000000" r="150000.000000" /> 
</g>
<g style="fill:#FFFFFF; fill-opacity:1.0; 
stroke:#FFFFFF; stroke-width:21200.000000; stroke-opacity:1; 
stroke-linecap:round; stroke-linejoin:round;">
</g>
<g style="fill:#FFFFFF; fill-opacity:1.0; 
stroke:#FFFFFF; stroke-width:1.000000; stroke-opacity:1; 
stroke-linecap:round; stroke-linejoin:round;">
<circle cx="156359200.000000" cy="115271600.000000" r="150000.000000" /> 
</g>
<g style="fill:#FFFFFF; fill-opacity:1.0; 
stroke:#FFFFFF; stroke-width:21200.000000; stroke-opacity:1; 
stroke-linecap:round; stroke-linejoin:round;">
</g>
<g style="fill:#FFFFFF; fill-opacity:1.0; 
stroke:#FFFFFF; stroke-width:1.000000; stroke-opacity:1; 
stroke-linecap:round; stroke-linejoin:round;">
<circle cx="154560500.000000" cy="110929300.000000" r="150000.000000" /> 
</g>
<g style="fill:#FFFFFF; fill-opacity:1.0; 
stroke:#FFFFFF; stroke-width:21200.000000; stroke-opacity:1; 
stroke-linecap:round; stroke-linejoin:round;">
</g>
<g style="fill:#FFFFFF; fill-opacity:1.0; 
stroke:#FFFFFF; stroke-width:1.000000; stroke-opacity:1; 
stroke-linecap:round; stroke-linejoin:round;">
<circle cx="142801500.000000" cy="106058500.000000" r="150000.000000" /> 
</g>
<g style="fill:#FFFFFF; fill-opacity:1.0; 
stroke:#FFFFFF; stroke-width:21200.000000; stroke-opacity:1; 
stroke-linecap:round; stroke-linejoin:round;">
</g>
<g style="fill:#FFFFFF; fill-opacity:1.0; 
stroke:#FFFFFF; stroke-width:1.000000; stroke-opacity:1; 
stroke-linecap:round; stroke-linejoin:round;">
<circle cx="147672300.000000" cy="110929300.000000" r="150000.000000" /> 
</g>
<g style="fill:#FFFFFF; fill-opacity:1.0; 
stroke:#FFFFFF; stroke-width:21200.000000; stroke-opacity:1; 
stroke-linecap:round; stroke-linejoin:round;">
</g>
<g style="fill:#FFFFFF; fill-opacity:1.0; 
stroke:#FFFFFF; stroke-width:1.000000; stroke-opacity:1; 
stroke-linecap:round; stroke-linejoin:round;">
<circle cx="159431300.000000" cy="106058500.000000" r="150000.000000" /> 
</g>
<g style="fill:#FFFFFF; fill-opacity:1.0; 
stroke:#FFFFFF; stroke-width:21200.000000; stroke-opacity:1; 
stroke-linecap:round; stroke-linejoin:round;">
</g>
<g style="fill:#FFFFFF; fill-opacity:1.0; 
stroke:#FFFFFF; stroke-width:1.000000; stroke-opacity:1; 
stroke-linecap:round; stroke-linejoin:round;">
<circle cx="146044400.000000" cy="112311600.000000" r="150000.000000" /> 
</g>
<g style="fill:#FFFFFF; fill-opacity:1.0; 
stroke:#FFFFFF; stroke-width:21200.000000; stroke-opacity:1; 
stroke-linecap:round; stroke-linejoin:round;">
</g>
<g style="fill:#FFFFFF; fill-opacity:1.0; 
stroke:#FFFFFF; stroke-width:1.000000; stroke-opacity:1; 
stroke-linecap:round; stroke-linejoin:round;">
<circle cx="159431300.000000" cy="99170300.000000" r="150000.000000" /> 
</g>
<g style="fill:#FFFFFF; fill-opacity:1.0; 
stroke:#FFFFFF; stroke-width:21200.000000; stroke-opacity:1; 
stroke-linecap:round; stroke-linejoin:round;">
</g>
<g style="fill:#FFFFFF; fill-opacity:1.0; 
stroke:#FFFFFF; stroke-width:1.000000; stroke-opacity:1; 
stroke-linecap:round; stroke-linejoin:round;">
<circle cx="141419200.000000" cy="97542400.000000" r="150000.000000" /> 
</g>
<g style="fill:#FFFFFF; fill-opacity:1.0; 
stroke:#FFFFFF; stroke-width:21200.000000; stroke-opacity:1; 
stroke-linecap:round; stroke-linejoin:round;">
</g>
<g style="fill:#FFFFFF; fill-opacity:1.0; 
stroke:#FFFFFF; stroke-width:1.000000; stroke-opacity:1; 
stroke-linecap:round; stroke-linejoin:round;">
<circle cx="147672300.000000" cy="94299500.000000" r="150000.000000" /> 
</g>
<g style="fill:#FFFFFF; fill-opacity:1.0; 
stroke:#FFFFFF; stroke-width:21200.000000; stroke-opacity:1; 
stroke-linecap:round; stroke-linejoin:round;">
</g>
<g style="fill:#FFFFFF; fill-opacity:1.0; 
stroke:#FFFFFF; stroke-width:1.000000; stroke-opacity:1; 
stroke-linecap:round; stroke-linejoin:round;">
<circle cx="142801500.000000" cy="99170300.000000" r="150000.000000" /> 
</g>
<g style="fill:#FFFFFF; fill-opacity:1.0; 
stroke:#FFFFFF; stroke-width:21200.000000; stroke-opacity:1; 
stroke-linecap:round; stroke-linejoin:round;">
</g>
<g style="fill:#FFFFFF; fill-opacity:1.0; 
stroke:#FFFFFF; stroke-width:1.000000; stroke-opacity:1; 
stroke-linecap:round; stroke-linejoin:round;">
<circle cx="145873600.000000" cy="89957200.000000" r="150000.000000" /> 
</g>
<g style="fill:#FFFFFF; fill-opacity:1.0; 
stroke:#FFFFFF; stroke-width:21200.000000; stroke-opacity:1; 
stroke-linecap:round; stroke-linejoin:round;">
</g>
<g style="fill:#FFFFFF; fill-opacity:1.0; 
stroke:#FFFFFF; stroke-width:1.000000; stroke-opacity:1; 
stroke-linecap:round; stroke-linejoin:round;">
<circle cx="140673000.000000" cy="105884900.000000" r="150000.000000" /> 
</g>
<g style="fill:#FFFFFF; fill-opacity:1.0; 
stroke:#FFFFFF; stroke-width:21200.000000; stroke-opacity:1; 
stroke-linecap:round; stroke-linejoin:round;">
</g>
<g style="fill:#FFFFFF; fill-opacity:1.0; 
stroke:#FFFFFF; stroke-width:1.000000; stroke-opacity:1; 
stroke-linecap:round; stroke-linejoin:round;">
<circle cx="156323900.000000" cy="90042500.000000" r="150000.000000" /> 
</g>
<g style="fill:#FFFFFF; fill-opacity:1.0; 
stroke:#FFFFFF; stroke-width:21200.000000; stroke-opacity:1; 
stroke-linecap:round; stroke-linejoin:round;">
</g>
<g style="fill:#FFFFFF; fill-opacity:1.0; 
stroke:#FFFFFF; stroke-width:1.000000; stroke-opacity:1; 
stroke-linecap:round; stroke-linejoin:round;">
<circle cx="168547100.000000" cy="108904600.000000" r="150000.000000" /> 
</g>
<g style="fill:#FFFFFF; fill-opacity:1.0; 
stroke:#FFFFFF; stroke-width:21200.000000; stroke-opacity:1; 
stroke-linecap:round; stroke-linejoin:round;">
</g>
<g style="fill:#FFFFFF; fill-opacity:1.0; 
stroke:#FFFFFF; stroke-width:1.000000; stroke-opacity:1; 
stroke-linecap:round; stroke-linejoin:round;">
<circle cx="147845900.000000" cy="113057800.000000" r="150000.000000" /> 
</g>
<g style="fill:#FFFFFF; fill-opacity:1.0; 
stroke:#FFFFFF; stroke-width:21200.000000; stroke-opacity:1; 
stroke-linecap:round; stroke-linejoin:round;">
</g>
<g style="fill:#FFFFFF; fill-opacity:1.0; 
stroke:#FFFFFF; stroke-width:1.000000; stroke-opacity:1; 
stroke-linecap:round; stroke-linejoin:round;">
<circle cx="145908900.000000" cy="115186300.000000" r="150000.000000" /> 
</g>
<g style="fill:#FFFFFF; fill-opacity:1.0; 
stroke:#FFFFFF; stroke-width:21200.000000; stroke-opacity:1; 
stroke-linecap:round; stroke-linejoin:round;">
</g>
<g style="fill:#FFFFFF; fill-opacity:1.0; 
stroke:#FFFFFF; stroke-width:1.000000; stroke-opacity:1; 
stroke-linecap:round; stroke-linejoin:round;">
<circle cx="154560500.000000" cy="94299500.000000" r="150000.000000" /> 
</g>
<g style="fill:#FFFFFF; fill-opacity:1.0; 
stroke:#FFFFFF; stroke-width:21200.000000; stroke-opacity:1; 
stroke-linecap:round; stroke-linejoin:round;">
</g>
<g style="fill:#FFFFFF; fill-opacity:1.0; 
stroke:#FFFFFF; stroke-width:1.000000; stroke-opacity:1; 
stroke-linecap:round; stroke-linejoin:round;">
<circle cx="140673000.000000" cy="99343900.000000" r="150000.000000" /> 
</g>
<g style="fill:#FFFFFF; fill-opacity:1.0; 
stroke:#FFFFFF; stroke-width:21200.000000; stroke-opacity:1; 
stroke-linecap:round; stroke-linejoin:round;">
</g>
<g style="fill:#FFFFFF; fill-opacity:1.0; 
stroke:#FFFFFF; stroke-width:1.000000; stroke-opacity:1; 
stroke-linecap:round; stroke-linejoin:round;">
<circle cx="138459200.000000" cy="107857200.000000" r="150000.000000" /> 
</g>
<g style="fill:#FFFFFF; fill-opacity:1.0; 
stroke:#FFFFFF; stroke-width:21200.000000; stroke-opacity:1; 
stroke-linecap:round; stroke-linejoin:round;">
</g>
<g style="fill:#FFFFFF; fill-opacity:1.0; 
stroke:#FFFFFF; stroke-width:1.000000; stroke-opacity:1; 
stroke-linecap:round; stroke-linejoin:round;">
<circle cx="138548000.000000" cy="97465600.000000" r="150000.000000" /> 
</g>
<g style="fill:#FFFFFF; fill-opacity:1.0; 
stroke:#FFFFFF; stroke-width:21200.000000; stroke-opacity:1; 
stroke-linecap:round; stroke-linejoin:round;">
</g>
<g style="fill:#000000; fill-opacity:1.0; 
stroke:#000000; stroke-width:21200.000000; stroke-opacity:1; 
stroke-linecap:round; stroke-linejoin:round;">
</g> 
</svg>
