%TF.GenerationSoftware,KiCad,Pcbnew,(7.0.0)*%
%TF.CreationDate,2023-03-13T17:48:54-07:00*%
%TF.ProjectId,DaisyStepperDriver,44616973-7953-4746-9570-706572447269,rev?*%
%TF.SameCoordinates,Original*%
%TF.FileFunction,Soldermask,Bot*%
%TF.FilePolarity,Negative*%
%FSLAX46Y46*%
G04 Gerber Fmt 4.6, Leading zero omitted, Abs format (unit mm)*
G04 Created by KiCad (PCBNEW (7.0.0)) date 2023-03-13 17:48:54*
%MOMM*%
%LPD*%
G01*
G04 APERTURE LIST*
G04 Aperture macros list*
%AMRoundRect*
0 Rectangle with rounded corners*
0 $1 Rounding radius*
0 $2 $3 $4 $5 $6 $7 $8 $9 X,Y pos of 4 corners*
0 Add a 4 corners polygon primitive as box body*
4,1,4,$2,$3,$4,$5,$6,$7,$8,$9,$2,$3,0*
0 Add four circle primitives for the rounded corners*
1,1,$1+$1,$2,$3*
1,1,$1+$1,$4,$5*
1,1,$1+$1,$6,$7*
1,1,$1+$1,$8,$9*
0 Add four rect primitives between the rounded corners*
20,1,$1+$1,$2,$3,$4,$5,0*
20,1,$1+$1,$4,$5,$6,$7,0*
20,1,$1+$1,$6,$7,$8,$9,0*
20,1,$1+$1,$8,$9,$2,$3,0*%
G04 Aperture macros list end*
%ADD10C,0.600002*%
%ADD11R,1.700000X1.700000*%
%ADD12O,1.700000X1.700000*%
%ADD13R,2.400000X2.400000*%
%ADD14C,2.400000*%
%ADD15RoundRect,0.250000X-0.600000X-0.750000X0.600000X-0.750000X0.600000X0.750000X-0.600000X0.750000X0*%
%ADD16O,1.700000X2.000000*%
%ADD17O,1.700000X1.350000*%
%ADD18O,1.500000X1.100000*%
%ADD19RoundRect,0.250000X0.725000X-0.600000X0.725000X0.600000X-0.725000X0.600000X-0.725000X-0.600000X0*%
%ADD20O,1.950000X1.700000*%
G04 APERTURE END LIST*
D10*
%TO.C,MM1*%
X146104580Y-129924052D03*
X153685880Y-114974055D03*
X150726370Y-125298757D03*
X126175880Y-127344055D03*
X144473272Y-111911863D03*
X151475994Y-123497348D03*
X128375393Y-125469653D03*
X144299673Y-130670156D03*
X137588497Y-128541751D03*
X132725880Y-123670947D03*
X146225880Y-107654055D03*
X149344076Y-116782659D03*
X135825085Y-132798755D03*
X151475994Y-116956363D03*
X144303082Y-109783458D03*
X146271978Y-132883955D03*
X132714285Y-116782659D03*
X149347485Y-123670947D03*
X150726370Y-115154760D03*
X153605880Y-125374055D03*
X137588497Y-111911960D03*
X128460165Y-115026762D03*
X144473272Y-128541654D03*
X135789791Y-107569659D03*
X125415880Y-114674055D03*
X146101171Y-110529562D03*
X126932583Y-120226855D03*
%TD*%
D11*
%TO.C,JP1*%
X152621157Y-58541999D03*
D12*
X152621157Y-61081999D03*
%TD*%
D11*
%TO.C,J8*%
X117103463Y-84838199D03*
D12*
X117103463Y-82298199D03*
X119643463Y-84838199D03*
X119643463Y-82298199D03*
X122183463Y-84838199D03*
X122183463Y-82298199D03*
%TD*%
D13*
%TO.C,J6*%
X162722599Y-51478199D03*
D14*
X159222600Y-51478200D03*
%TD*%
D15*
%TO.C,J3*%
X129081000Y-54602500D03*
D16*
X131580999Y-54602499D03*
%TD*%
D17*
%TO.C,J1*%
X111464999Y-74920582D03*
X111464999Y-69460582D03*
D18*
X114464999Y-69770582D03*
X114464999Y-74610582D03*
%TD*%
D13*
%TO.C,J5*%
X123189999Y-51561999D03*
D14*
X119690000Y-51562000D03*
%TD*%
D19*
%TO.C,J7*%
X170134000Y-79010200D03*
D20*
X170133999Y-76510199D03*
X170133999Y-74010199D03*
X170133999Y-71510199D03*
%TD*%
D15*
%TO.C,J4*%
X150896000Y-54729500D03*
D16*
X153395999Y-54729499D03*
%TD*%
M02*
