%TF.GenerationSoftware,KiCad,Pcbnew,(7.0.0)*%
%TF.CreationDate,2023-03-13T17:48:54-07:00*%
%TF.ProjectId,DaisyStepperDriver,44616973-7953-4746-9570-706572447269,rev?*%
%TF.SameCoordinates,Original*%
%TF.FileFunction,Copper,L4,Bot*%
%TF.FilePolarity,Positive*%
%FSLAX46Y46*%
G04 Gerber Fmt 4.6, Leading zero omitted, Abs format (unit mm)*
G04 Created by KiCad (PCBNEW (7.0.0)) date 2023-03-13 17:48:54*
%MOMM*%
%LPD*%
G01*
G04 APERTURE LIST*
G04 Aperture macros list*
%AMRoundRect*
0 Rectangle with rounded corners*
0 $1 Rounding radius*
0 $2 $3 $4 $5 $6 $7 $8 $9 X,Y pos of 4 corners*
0 Add a 4 corners polygon primitive as box body*
4,1,4,$2,$3,$4,$5,$6,$7,$8,$9,$2,$3,0*
0 Add four circle primitives for the rounded corners*
1,1,$1+$1,$2,$3*
1,1,$1+$1,$4,$5*
1,1,$1+$1,$6,$7*
1,1,$1+$1,$8,$9*
0 Add four rect primitives between the rounded corners*
20,1,$1+$1,$2,$3,$4,$5,0*
20,1,$1+$1,$4,$5,$6,$7,0*
20,1,$1+$1,$6,$7,$8,$9,0*
20,1,$1+$1,$8,$9,$2,$3,0*%
G04 Aperture macros list end*
%TA.AperFunction,EtchedComponent*%
%ADD10C,0.199999*%
%TD*%
%TA.AperFunction,EtchedComponent*%
%ADD11C,0.200000*%
%TD*%
%TA.AperFunction,SMDPad,CuDef*%
%ADD12RoundRect,0.150000X0.220203X0.253003X-0.334524X0.024361X-0.220203X-0.253003X0.334524X-0.024361X0*%
%TD*%
%TA.AperFunction,SMDPad,CuDef*%
%ADD13RoundRect,0.150000X0.334686X0.022025X-0.218432X0.254534X-0.334686X-0.022025X0.218432X-0.254534X0*%
%TD*%
%TA.AperFunction,SMDPad,CuDef*%
%ADD14RoundRect,0.150000X0.300000X0.150000X-0.300000X0.150000X-0.300000X-0.150000X0.300000X-0.150000X0*%
%TD*%
%TA.AperFunction,ComponentPad*%
%ADD15C,0.600000*%
%TD*%
%TA.AperFunction,ComponentPad*%
%ADD16R,1.700000X1.700000*%
%TD*%
%TA.AperFunction,ComponentPad*%
%ADD17O,1.700000X1.700000*%
%TD*%
%TA.AperFunction,ComponentPad*%
%ADD18R,2.400000X2.400000*%
%TD*%
%TA.AperFunction,ComponentPad*%
%ADD19C,2.400000*%
%TD*%
%TA.AperFunction,ComponentPad*%
%ADD20RoundRect,0.250000X-0.600000X-0.750000X0.600000X-0.750000X0.600000X0.750000X-0.600000X0.750000X0*%
%TD*%
%TA.AperFunction,ComponentPad*%
%ADD21O,1.700000X2.000000*%
%TD*%
%TA.AperFunction,ComponentPad*%
%ADD22O,1.700000X1.350000*%
%TD*%
%TA.AperFunction,ComponentPad*%
%ADD23O,1.500000X1.100000*%
%TD*%
%TA.AperFunction,ComponentPad*%
%ADD24RoundRect,0.250000X0.725000X-0.600000X0.725000X0.600000X-0.725000X0.600000X-0.725000X-0.600000X0*%
%TD*%
%TA.AperFunction,ComponentPad*%
%ADD25O,1.950000X1.700000*%
%TD*%
%TA.AperFunction,ViaPad*%
%ADD26C,0.800000*%
%TD*%
%TA.AperFunction,Conductor*%
%ADD27C,0.200000*%
%TD*%
%TA.AperFunction,Conductor*%
%ADD28C,1.200000*%
%TD*%
%TA.AperFunction,Conductor*%
%ADD29C,0.500000*%
%TD*%
%TA.AperFunction,Conductor*%
%ADD30C,1.000000*%
%TD*%
%TA.AperFunction,Conductor*%
%ADD31C,0.250000*%
%TD*%
G04 APERTURE END LIST*
D10*
%TO.C,MM1*%
X131962179Y-128591459D02*
X132163183Y-128742055D01*
X153409872Y-121222761D02*
X153385275Y-120972761D01*
X144317083Y-130865255D02*
X144582983Y-130838354D01*
X151771276Y-128178960D02*
X151898779Y-127964155D01*
X133215887Y-127323652D02*
X133425771Y-127472356D01*
X150971182Y-126480756D02*
X151058187Y-126247961D01*
X154264684Y-123677061D02*
X154319082Y-123434850D01*
X136682775Y-130720258D02*
X136936285Y-130764257D01*
X143517477Y-128891759D02*
X143759176Y-128811758D01*
X151790563Y-116298757D02*
X151658865Y-116088056D01*
D11*
X136051366Y-132244360D02*
X135922600Y-132513200D01*
D10*
X134022375Y-109681760D02*
X133838567Y-109852956D01*
X150460973Y-127613058D02*
X150572866Y-127391157D01*
X133310568Y-110390562D02*
X133142782Y-110577360D01*
X147062383Y-131564451D02*
X147264074Y-131414663D01*
X150096166Y-111862058D02*
X149895178Y-111711462D01*
X136538564Y-132366956D02*
X136784078Y-132420049D01*
X140522573Y-130769758D02*
X140776174Y-130726560D01*
X133331182Y-131119062D02*
X133553579Y-131243360D01*
X138729177Y-130910055D02*
X138986471Y-130907461D01*
X150239477Y-116951063D02*
X150112478Y-116734357D01*
X127745580Y-116989355D02*
X127695364Y-117234663D01*
X141029073Y-106705556D02*
X140779974Y-106724561D01*
X131808584Y-118487257D02*
X131798574Y-118735860D01*
X149714773Y-124904760D02*
X149789083Y-124664754D01*
X135409582Y-128561956D02*
X135641973Y-128657461D01*
X127485571Y-119725759D02*
X127494070Y-119976057D01*
X131850286Y-120226659D02*
X131877981Y-120479658D01*
X134995977Y-108889066D02*
X134794286Y-109038854D01*
X153916586Y-124867460D02*
X153996282Y-124632452D01*
X149439367Y-113594358D02*
X149242284Y-113433866D01*
X144848074Y-130805250D02*
X145112371Y-130765859D01*
X140033178Y-132607458D02*
X140283178Y-132582853D01*
X142777670Y-107805860D02*
X142526571Y-107813657D01*
X142286779Y-129214262D02*
X142535574Y-129160154D01*
X135007970Y-130255758D02*
X135242574Y-130337759D01*
X143809774Y-109554456D02*
X143555792Y-109546155D01*
X143181280Y-129997457D02*
X143410879Y-129895460D01*
X144944372Y-129043157D02*
X145150381Y-128903554D01*
X129064382Y-121435560D02*
X129136968Y-121673154D01*
X132444174Y-122956754D02*
X132529180Y-123196661D01*
X136265386Y-110034261D02*
X136061880Y-110191762D01*
X146815878Y-107811254D02*
X146830068Y-107566267D01*
X149529180Y-117256856D02*
X149439169Y-117018758D01*
X132497579Y-124552557D02*
X132645773Y-124752157D01*
X148981390Y-109484663D02*
X148766561Y-109357160D01*
X134209982Y-109514562D02*
X134022375Y-109681760D01*
X142533270Y-106702962D02*
X142282873Y-106689962D01*
X132078680Y-116517866D02*
X132026571Y-116761060D01*
X142768682Y-111006162D02*
X142520071Y-110996160D01*
X150896673Y-118306562D02*
X150799886Y-118074659D01*
X133553579Y-131243360D02*
X133778783Y-131362760D01*
X151416067Y-125058660D02*
X151471975Y-124816556D01*
X130349279Y-117669561D02*
X130345876Y-117926755D01*
X149261388Y-115506361D02*
X149104681Y-115313062D01*
X129466680Y-113901464D02*
X129372976Y-114138456D01*
X144582983Y-130838354D02*
X144848074Y-130805250D01*
X137113973Y-111410360D02*
X136907980Y-111549963D01*
X128011282Y-122921255D02*
X128088689Y-123158758D01*
X146063879Y-112711652D02*
X145844167Y-112583158D01*
X153799474Y-116825155D02*
X153706777Y-116593252D01*
X135263372Y-132579061D02*
X135222570Y-132830450D01*
X132263281Y-130425252D02*
X132470571Y-130573461D01*
X132781271Y-129163457D02*
X132992590Y-129294263D01*
X130371084Y-118697958D02*
X130391088Y-118954458D01*
X128609274Y-117975866D02*
X128605978Y-118227064D01*
X134065389Y-127882154D02*
X134282873Y-128007864D01*
X150120382Y-123202856D02*
X150156866Y-122956754D01*
X135876470Y-128747655D02*
X136112875Y-128832662D01*
X128156377Y-115544759D02*
X128074987Y-115781759D01*
X146706274Y-113124456D02*
X146494985Y-112982358D01*
X149838674Y-118226659D02*
X149768972Y-117981756D01*
X132136785Y-116273466D02*
X132078680Y-116517866D01*
X138097173Y-107286260D02*
X137861486Y-107368757D01*
X131945882Y-123719251D02*
X132077581Y-123933156D01*
X137807882Y-129276357D02*
X138053075Y-129317960D01*
X135739172Y-112476758D02*
X135556371Y-112645559D01*
X146494985Y-112982358D02*
X146280874Y-112844762D01*
X142783361Y-106721357D02*
X142533270Y-106702962D01*
X143301580Y-109543462D02*
X143047369Y-109546560D01*
X153452383Y-122226453D02*
X153450079Y-121975255D01*
X144514867Y-106999654D02*
X144270376Y-106943960D01*
X133647176Y-114975065D02*
X133514074Y-115192052D01*
X140778188Y-133761861D02*
X141028585Y-133747953D01*
X131179281Y-113741956D02*
X131087179Y-113972761D01*
X152906072Y-125683858D02*
X152979086Y-125445058D01*
X131098180Y-129449255D02*
X131281179Y-129620260D01*
X147195974Y-127095251D02*
X147359777Y-126908056D01*
X133553274Y-108794858D02*
X133345770Y-108943655D01*
X140283483Y-106778661D02*
X140036169Y-106813863D01*
X136936285Y-130764257D02*
X137190679Y-130802557D01*
X137861486Y-107368757D02*
X137627584Y-107456457D01*
X139782674Y-132626455D02*
X140033178Y-132607458D01*
X148915777Y-124594358D02*
X149030065Y-124366956D01*
X138033773Y-133559957D02*
X138280370Y-133605062D01*
X144085272Y-129559156D02*
X144304876Y-129437063D01*
X151288580Y-125539060D02*
X151354986Y-125299558D01*
X130918188Y-114440160D02*
X130841390Y-114676557D01*
X132894872Y-130855756D02*
X133111578Y-130989858D01*
X133111578Y-130989858D02*
X133331182Y-131119062D01*
X140542074Y-108075361D02*
X140300161Y-108132360D01*
X145353277Y-128759656D02*
X145552969Y-128611356D01*
X146006979Y-132244360D02*
X146223974Y-132117864D01*
X133127172Y-113700758D02*
X133011266Y-113923658D01*
X150096685Y-128263357D02*
X150222875Y-128049253D01*
X131961675Y-112190160D02*
X131835485Y-112404264D01*
X151686071Y-121737157D02*
X151665884Y-121483861D01*
X151328161Y-111371557D02*
X151149572Y-111189252D01*
X145844167Y-112583158D02*
X145621679Y-112459356D01*
X142793386Y-109555357D02*
X142539571Y-109569860D01*
X136890478Y-109597066D02*
X136682684Y-109733358D01*
X138059271Y-111726758D02*
X137821172Y-111816762D01*
X131818868Y-123502454D02*
X131945882Y-123719251D01*
X128877767Y-120713865D02*
X128934774Y-120955755D01*
X149117376Y-131199064D02*
X149314565Y-131037061D01*
X139112478Y-108495252D02*
X138880071Y-108583356D01*
X129778982Y-113203863D02*
X129669668Y-113434057D01*
X139025381Y-133708356D02*
X139274984Y-133732160D01*
X134073476Y-114341558D02*
X133926870Y-114549657D01*
X128088689Y-123158758D02*
X128171179Y-123394453D01*
X137058477Y-133326955D02*
X137300375Y-133393064D01*
X132059271Y-130272558D02*
X132263281Y-130425252D01*
X138214880Y-130897558D02*
X138471975Y-130906660D01*
X130012685Y-112751066D02*
X129893270Y-112976156D01*
X144957174Y-130988157D02*
X145167883Y-130856451D01*
X153009573Y-113611463D02*
X152879476Y-113391866D01*
X140779974Y-106724561D02*
X140531362Y-106748960D01*
X147555181Y-112324758D02*
X147332281Y-112208852D01*
X144531484Y-107906957D02*
X144282278Y-107875860D01*
X140776174Y-130726560D02*
X141028783Y-130677557D01*
X138986471Y-130907461D02*
X139243581Y-130899160D01*
X144779974Y-107943655D02*
X144531484Y-107906957D01*
X147653875Y-108791463D02*
X147424276Y-108693059D01*
X138195364Y-110777257D02*
X137973074Y-110894361D01*
X145467168Y-111466856D02*
X145225576Y-111397863D01*
X131991583Y-110106359D02*
X131813268Y-110288854D01*
X145225576Y-111397863D02*
X144982565Y-111334356D01*
X137958074Y-130882558D02*
X138214880Y-130897558D01*
X132645773Y-124752157D02*
X132798193Y-124948560D01*
X154531362Y-119977560D02*
X154506979Y-119728956D01*
X151074560Y-118776456D02*
X150988287Y-118540456D01*
X129995489Y-126659956D02*
X130154180Y-126854757D01*
X133142782Y-110577360D02*
X132979086Y-110767957D01*
X128738683Y-119978757D02*
X128779882Y-120226560D01*
X147513982Y-110376852D02*
X147283178Y-110284757D01*
X130373388Y-117155653D02*
X130358373Y-117412458D01*
X127927786Y-116260458D02*
X127861776Y-116502058D01*
X150589971Y-110665761D02*
X150400472Y-110503065D01*
X154564169Y-120475065D02*
X154550375Y-120227361D01*
X154319082Y-123434850D02*
X154368276Y-123191656D01*
X152159078Y-112339254D02*
X152001486Y-112138555D01*
X145274282Y-108033460D02*
X145027670Y-107985860D01*
X128709387Y-116724454D02*
X128678289Y-116973653D01*
X150419485Y-129978261D02*
X150589666Y-129788053D01*
X132200277Y-116030355D02*
X132136785Y-116273466D01*
X135222570Y-132830450D02*
X135289770Y-133076154D01*
X129841268Y-126461652D02*
X129995489Y-126659956D01*
X133248068Y-113480451D02*
X133127172Y-113700758D01*
X142002187Y-130428854D02*
X142241674Y-130353155D01*
X129691488Y-126259954D02*
X129841268Y-126461652D01*
X129201482Y-114618261D02*
X129123785Y-114860960D01*
X141277181Y-107936262D02*
X141029379Y-107977460D01*
X139816686Y-110100362D02*
X139578771Y-110181356D01*
X146815878Y-107811254D02*
X146525880Y-107713200D01*
X149030065Y-124366956D02*
X149139669Y-124137159D01*
X149980779Y-116520360D02*
X149845571Y-116311559D01*
X149104681Y-115313062D02*
X148943975Y-115123159D01*
X130356771Y-118441160D02*
X130371084Y-118697958D01*
X127526983Y-120475957D02*
X127551366Y-120724561D01*
X153469274Y-125961759D02*
X153707372Y-125965459D01*
X127616277Y-121219755D02*
X127656774Y-121466260D01*
X135200872Y-108743757D02*
X134995977Y-108889066D01*
X151528371Y-120476758D02*
X151479971Y-120227155D01*
X147119375Y-113421865D02*
X146914373Y-113271062D01*
X131844473Y-117991064D02*
X131823888Y-118238958D01*
X130983480Y-111256856D02*
X130830679Y-111460760D01*
X151667669Y-116938856D02*
X151640768Y-116672956D01*
X133784780Y-114760961D02*
X133647176Y-114975065D01*
X135956381Y-130552557D02*
X136197179Y-130613653D01*
X145027670Y-107985860D02*
X144779974Y-107943655D01*
X133206686Y-129420454D02*
X133423483Y-129541959D01*
X130018377Y-123724851D02*
X130140676Y-123941160D01*
X132155080Y-121980665D02*
X132219671Y-122226850D01*
X134379476Y-113934759D02*
X134224279Y-114136556D01*
X127581075Y-120972456D02*
X127616277Y-121219755D01*
X127494070Y-119976057D02*
X127507986Y-120226156D01*
X145000066Y-107126562D02*
X144758184Y-107060560D01*
X137350866Y-128441862D02*
X137585088Y-128541654D01*
X131000173Y-114205556D02*
X130918188Y-114440160D01*
X136682684Y-109733358D02*
X136472280Y-109881361D01*
X133011266Y-113923658D02*
X132900472Y-114149160D01*
X143723669Y-133244657D02*
X143961172Y-133167249D01*
X153706777Y-116593252D02*
X153609075Y-116363355D01*
X140026189Y-133771253D02*
X140276876Y-133773458D01*
X133425771Y-127472356D02*
X133639074Y-127616262D01*
X143178274Y-131870153D02*
X143408682Y-131777158D01*
X151574178Y-113219961D02*
X151402990Y-113036161D01*
X143531179Y-107815763D02*
X143280065Y-107806852D01*
X141526876Y-133704557D02*
X141774877Y-133674856D01*
X147359777Y-126908056D02*
X147519476Y-126717359D01*
X135289770Y-133076154D02*
X135452871Y-133271863D01*
X134503179Y-128128759D02*
X134726080Y-128244665D01*
X139820379Y-108261961D02*
X139582784Y-108334562D01*
X150263784Y-121220159D02*
X150257772Y-120971464D01*
X138649679Y-108676359D02*
X138421392Y-108774457D01*
X130827078Y-121199758D02*
X130902776Y-121439252D01*
X150865377Y-112508161D02*
X150678472Y-112340261D01*
X148131475Y-125903860D02*
X148273580Y-125692556D01*
X138471975Y-130906660D02*
X138729177Y-130910055D01*
X137536688Y-111143461D02*
X137322775Y-111275259D01*
X146723577Y-108427961D02*
X146486273Y-108349866D01*
X153928167Y-125876356D02*
X154096868Y-125708356D01*
X149830572Y-128683057D02*
X149965887Y-128474660D01*
X142539571Y-109569860D02*
X142286184Y-109590055D01*
X136712682Y-107857252D02*
X136489675Y-107969762D01*
X142282873Y-106689962D02*
X142032278Y-106682264D01*
X152979086Y-125445058D02*
X153046774Y-125204664D01*
X127861776Y-116502058D02*
X127801077Y-116745061D01*
X150011083Y-110190259D02*
X149811361Y-110040159D01*
X152744680Y-126156660D02*
X152827978Y-125921155D01*
X134941076Y-131883062D02*
X135180074Y-131971464D01*
X150967077Y-111010854D02*
X150780676Y-110836454D01*
X149690679Y-128888456D02*
X149830572Y-128683057D01*
X146744970Y-107336057D02*
X146574773Y-107159162D01*
X134921179Y-111229864D02*
X134745275Y-111417654D01*
X137749975Y-109098264D02*
X137531088Y-109215963D01*
X139525076Y-133750555D02*
X139775488Y-133763555D01*
X135201772Y-112994451D02*
X135030080Y-113174558D01*
X137395666Y-107549161D02*
X137165762Y-107646856D01*
X148779180Y-114936857D02*
X148610479Y-114753957D01*
X151904165Y-113598760D02*
X151741277Y-113407560D01*
X133932287Y-112413557D02*
X133783575Y-112623464D01*
X139342870Y-110267652D02*
X139108877Y-110359258D01*
X149962560Y-118720357D02*
X149903265Y-118472852D01*
X147678869Y-126518758D02*
X147834066Y-126316961D01*
X148399786Y-130425252D02*
X148575781Y-130246053D01*
X142036962Y-129263158D02*
X142286779Y-129214262D01*
X154248068Y-118253957D02*
X154186285Y-118011961D01*
X150590871Y-117617757D02*
X150478674Y-117392957D01*
X134596075Y-109193059D02*
X134401174Y-109351758D01*
X145789083Y-132366453D02*
X146006979Y-132244360D01*
X146574773Y-107159162D02*
X146348074Y-107065252D01*
X142032278Y-106682264D02*
X141781484Y-106680059D01*
X140523885Y-111108556D02*
X140272161Y-111146856D01*
X152744680Y-113175161D02*
X152605169Y-112961462D01*
X127523580Y-118474561D02*
X127505270Y-118724355D01*
X133142568Y-115859159D02*
X133028280Y-116086561D01*
X150190283Y-114279356D02*
X150008382Y-114101865D01*
X139029485Y-132649953D02*
X139280676Y-132647649D01*
X147519476Y-126717359D02*
X147678869Y-126518758D01*
X134194280Y-108376455D02*
X133977575Y-108511259D01*
X130317083Y-127045957D02*
X130484167Y-127233556D01*
X151741277Y-113407560D02*
X151574178Y-113219961D01*
X127695364Y-117234663D02*
X127650381Y-117481061D01*
X141774877Y-133674856D02*
X142022192Y-133639654D01*
X148418676Y-127616849D02*
X148553976Y-127405256D01*
X128616079Y-126018560D02*
X128726080Y-126243558D01*
X150293768Y-112017156D02*
X150096166Y-111862058D01*
X140532583Y-132552854D02*
X140781179Y-132517156D01*
X130836675Y-124990560D02*
X130994070Y-125194051D01*
X143555792Y-109546155D02*
X143301580Y-109543462D01*
X128996877Y-121196355D02*
X129064382Y-121435560D01*
X148796590Y-124819250D02*
X148915777Y-124594358D01*
X151361379Y-128806051D02*
X151502569Y-128599958D01*
X151065664Y-129208662D02*
X151215780Y-129008955D01*
D11*
X126205880Y-127014055D02*
X126195880Y-127334055D01*
D10*
X140272161Y-111146856D02*
X140021383Y-111190359D01*
X138877081Y-110456052D02*
X138647482Y-110558057D01*
X145942877Y-128302259D02*
X146132772Y-128141553D01*
X145764166Y-108145162D02*
X145519888Y-108086660D01*
X154047079Y-117532262D02*
X153969671Y-117294759D01*
X134469274Y-131690359D02*
X134704076Y-131789358D01*
X151687475Y-123261251D02*
X151701482Y-123007360D01*
X148549078Y-109234457D02*
X148328878Y-109116453D01*
X141758184Y-132321157D02*
X141998769Y-132259061D01*
X138647482Y-110558057D02*
X138420171Y-110665159D01*
D11*
X125843267Y-114190557D02*
X124987439Y-113527582D01*
D10*
X130448675Y-119465658D02*
X130486181Y-119720159D01*
X149789083Y-124664754D02*
X149858068Y-124423154D01*
X153222479Y-124471860D02*
X153270071Y-124225255D01*
X149811361Y-110040159D02*
X149608465Y-109894559D01*
X144024770Y-106893659D02*
X143778066Y-106848562D01*
X147264074Y-131414663D02*
X147462377Y-131260450D01*
X153169271Y-124717458D02*
X153222479Y-124471860D01*
X137190679Y-130802557D02*
X137445882Y-130834959D01*
X135473882Y-110691358D02*
X135285574Y-110866666D01*
X135377172Y-112818052D02*
X135201772Y-112994451D01*
X133141668Y-109096853D02*
X132940969Y-109254453D01*
X154205267Y-123917959D02*
X154264684Y-123677061D01*
X149562078Y-115902662D02*
X149413763Y-115702955D01*
X129297674Y-122143461D02*
X129385763Y-122375860D01*
X152139486Y-127526456D02*
X152252676Y-127303861D01*
X148634878Y-110911558D02*
X148415487Y-110794958D01*
X132819570Y-110962057D02*
X132664587Y-111159757D01*
X153355276Y-120723356D02*
X153319570Y-120474760D01*
X149263677Y-126076559D02*
X149364370Y-125846357D01*
X136705084Y-111693861D02*
X136505270Y-111842161D01*
X150066686Y-130347158D02*
X150245077Y-130164663D01*
X131467489Y-122835760D02*
X131579672Y-123060560D01*
X148273580Y-125692556D02*
X148411169Y-125478452D01*
X152464468Y-126851461D02*
X152562872Y-126621862D01*
X144086981Y-131468053D02*
X144308370Y-131355253D01*
X143999075Y-128726758D02*
X144237173Y-128636755D01*
X141773885Y-110998159D02*
X141525274Y-111009359D01*
X132693975Y-114607252D02*
X132598470Y-114839658D01*
X146830068Y-107566267D02*
X146744970Y-107336057D01*
X141029272Y-107977460D02*
X140785177Y-108023756D01*
X151639974Y-121230955D02*
X151608465Y-120978757D01*
X135452871Y-133271863D02*
X135682378Y-133382261D01*
X128659673Y-124543157D02*
X128772176Y-124766157D01*
X138784170Y-111486959D02*
X138540868Y-111561758D01*
X151709768Y-122753355D02*
X151712469Y-122499158D01*
X138280370Y-133605062D02*
X138527975Y-133644758D01*
X129565572Y-113666662D02*
X129466680Y-113901464D01*
X131835485Y-112404264D02*
X131713979Y-112621061D01*
X146019872Y-110210355D02*
X145808874Y-110046262D01*
X146223974Y-132117864D02*
X146438177Y-131986555D01*
X136818075Y-133255651D02*
X137058477Y-133326955D01*
X150065572Y-119218961D02*
X150016683Y-118969160D01*
X152157674Y-116947561D02*
X152039968Y-116728666D01*
X152021475Y-127746664D02*
X152139486Y-127526456D01*
X152562872Y-126621862D02*
X152656286Y-126390264D01*
X145568578Y-132483755D02*
X145789083Y-132366453D01*
X142945882Y-131958257D02*
X143178274Y-131870153D01*
X133345770Y-108943655D02*
X133141668Y-109096853D01*
X150911367Y-129405057D02*
X151065664Y-129208662D01*
X130140676Y-123941160D02*
X130267782Y-124154760D01*
X144196874Y-133084760D02*
X144430776Y-132997060D01*
X130420965Y-116643362D02*
X130394277Y-116899251D01*
X150008382Y-114101865D02*
X149822469Y-113928457D01*
X149047079Y-126529859D02*
X149157873Y-126304357D01*
X153061483Y-119257162D02*
X152993978Y-119017957D01*
X152461080Y-112750852D02*
X152312277Y-112543355D01*
X148328878Y-109116453D02*
X148106283Y-109003255D01*
X132269170Y-115788755D02*
X132200277Y-116030355D01*
X136061880Y-110191762D02*
X135862066Y-110353757D01*
X131485479Y-113062360D02*
X131378469Y-113286664D01*
X150541876Y-114646558D02*
X150368078Y-114460958D01*
X149314565Y-131037061D02*
X149508276Y-130870756D01*
X132794683Y-114377065D02*
X132693975Y-114607252D01*
X153123571Y-119497755D02*
X153061483Y-119257162D01*
X139108877Y-110359258D02*
X138877081Y-110456052D01*
X151402990Y-113036161D02*
X151227667Y-112856161D01*
X150207479Y-110344556D02*
X150011083Y-110190259D01*
X133448675Y-125700361D02*
X133621175Y-125879354D01*
X134704076Y-131789358D02*
X134941076Y-131883062D01*
X145150381Y-128903554D02*
X145353277Y-128759656D01*
X135242574Y-130337759D02*
X135478872Y-130414556D01*
X137322775Y-111275159D02*
X137113973Y-111410360D01*
X154484579Y-122456457D02*
X154512960Y-122209959D01*
X138195181Y-108877561D02*
X137971365Y-108985464D01*
X151301672Y-119494955D02*
X151231268Y-119253866D01*
X151839483Y-111941358D02*
X151673177Y-111747655D01*
X146181875Y-111705862D02*
X145945486Y-111620855D01*
X141530782Y-106683156D02*
X141280172Y-106691656D01*
X138545980Y-129385557D02*
X138793478Y-129411458D01*
X131087179Y-113972761D02*
X131000173Y-114205556D01*
X134315679Y-129979558D02*
X134544378Y-130076658D01*
X128351583Y-123860265D02*
X128449270Y-124090154D01*
X132979086Y-110767957D02*
X132819570Y-110962057D01*
X149041570Y-113277761D02*
X148837484Y-113126264D01*
X148610479Y-114753957D02*
X148437887Y-114574857D01*
X135621389Y-132233060D02*
X135404775Y-132367155D01*
X153887182Y-117059064D02*
X153799474Y-116825155D01*
X152217077Y-113991865D02*
X152062872Y-113793561D01*
X131192968Y-127945356D02*
X131379888Y-128113256D01*
X150213873Y-122462453D02*
X150234472Y-122214559D01*
X142535574Y-129160154D02*
X142783086Y-129100851D01*
X136579183Y-133179250D02*
X136818075Y-133255651D01*
X150264471Y-121468961D02*
X150263784Y-121220159D01*
X150697881Y-117845060D02*
X150590871Y-117617757D01*
X141028967Y-132476049D02*
X141273184Y-132429754D01*
X128746069Y-116475957D02*
X128709387Y-116724454D01*
X132900472Y-114149160D02*
X132794683Y-114377065D01*
X151673177Y-111747655D02*
X151502783Y-111557760D01*
X147196966Y-132452657D02*
X147422079Y-132332357D01*
X148106283Y-109003255D02*
X147881170Y-108894857D01*
X131468176Y-110665960D02*
X131302282Y-110859258D01*
X142526571Y-107813657D02*
X142275778Y-107827062D01*
X151425970Y-119981863D02*
X151366476Y-119737760D01*
X151700582Y-121990957D02*
X151686071Y-121737157D01*
X134951574Y-128355459D02*
X135179372Y-128461256D01*
X144304876Y-129437063D02*
X144521673Y-129310056D01*
X128616079Y-118729360D02*
X128629476Y-118980161D01*
X132163183Y-128742055D02*
X132367483Y-128888258D01*
X151917577Y-116512357D02*
X151790563Y-116298757D01*
X133621175Y-125879354D02*
X133797384Y-126054662D01*
X144032278Y-107850263D02*
X143781881Y-107830266D01*
X133009481Y-127170156D02*
X133215887Y-127323652D01*
X149698187Y-130700353D02*
X149884374Y-130525754D01*
X146878988Y-111992261D02*
X146648779Y-111891561D01*
X135030080Y-113174558D02*
X134862371Y-113358266D01*
X149508276Y-130870756D02*
X149698187Y-130700353D01*
X132041677Y-121484357D02*
X132095785Y-121733160D01*
X152062872Y-113793561D02*
X151904165Y-113598760D01*
X136214178Y-127870359D02*
X136436681Y-127994154D01*
X154140676Y-124157560D02*
X154205267Y-123917959D01*
X140532964Y-129444158D02*
X140781179Y-129427557D01*
X142715475Y-130185857D02*
X142949377Y-130094259D01*
X131937978Y-117250661D02*
X131901479Y-117496755D01*
X130983785Y-121677061D02*
X131070074Y-121913061D01*
X154566473Y-121467458D02*
X154573873Y-121219358D01*
X148081381Y-114227651D02*
X147897665Y-114059957D01*
X150368078Y-114460958D02*
X150190283Y-114279356D01*
X134224279Y-114136556D02*
X134073476Y-114341558D01*
X134006475Y-131477064D02*
X134236684Y-131586263D01*
X154512960Y-122209959D02*
X154536077Y-121962850D01*
X152788961Y-114817762D02*
X152652868Y-114606557D01*
X140276876Y-133773458D02*
X140527578Y-133770353D01*
X128120168Y-114532453D02*
X127937277Y-114732458D01*
X143033086Y-106745161D02*
X142783361Y-106721357D01*
X141518179Y-130564054D02*
X141760961Y-130499250D01*
X139756872Y-130864851D02*
X140012777Y-130838956D01*
X151712469Y-122499158D02*
X151709387Y-122244955D01*
X131764471Y-128436353D02*
X131962179Y-128591459D01*
X134538870Y-113736265D02*
X134379476Y-113934759D01*
X145879675Y-107172559D02*
X145716467Y-107355863D01*
X149845571Y-116311559D02*
X149705969Y-116105558D01*
X150711370Y-114835859D02*
X150541876Y-114646558D01*
X134544378Y-130076658D02*
X134775182Y-130168760D01*
X134775182Y-130168760D02*
X135007970Y-130255758D01*
X137701666Y-130861654D02*
X137958074Y-130882558D01*
X132032278Y-126334760D02*
X132219976Y-126510557D01*
X136938070Y-107749654D02*
X136712682Y-107857252D01*
X130691885Y-120715757D02*
X130756689Y-120958555D01*
D11*
X126015880Y-126694055D02*
X124988646Y-126991719D01*
D10*
X148553976Y-127405256D02*
X148684591Y-127190557D01*
X147192678Y-108599653D02*
X146959081Y-108511259D01*
X140056173Y-110024663D02*
X139816686Y-110100362D01*
X152921377Y-118780355D02*
X152843572Y-118544263D01*
X135180074Y-131971464D02*
X135420965Y-132054555D01*
X140059576Y-108194456D02*
X139820379Y-108261961D01*
X141525884Y-107900663D02*
X141277181Y-107936262D01*
X141282079Y-129377958D02*
X141534475Y-129344953D01*
X146815786Y-110115758D02*
X146579366Y-110038961D01*
X141775274Y-107870557D02*
X141525884Y-107900663D01*
X142475576Y-132118955D02*
X142711584Y-132041158D01*
X150234472Y-122214559D02*
X150249761Y-121966260D01*
X154536077Y-121962850D02*
X154553884Y-121715253D01*
X152512167Y-114398458D02*
X152366872Y-114193555D01*
X147742681Y-110473958D02*
X147513982Y-110376852D01*
X130486181Y-119720159D02*
X130529379Y-119973760D01*
X136051366Y-132244360D02*
X136294286Y-132308355D01*
X139243581Y-130899160D02*
X139500372Y-130884855D01*
X150361578Y-117170660D02*
X150239477Y-116951063D01*
X153707372Y-125965459D02*
X153928167Y-125876356D01*
X129478780Y-122606260D02*
X129576879Y-122834554D01*
X132214193Y-124144155D02*
X132353674Y-124349859D01*
X148219778Y-130600553D02*
X148399786Y-130425252D01*
X130358373Y-117412458D02*
X130349279Y-117669561D01*
X133639074Y-127616262D02*
X133850683Y-127751554D01*
X145345571Y-132596258D02*
X145568578Y-132483755D01*
X141029073Y-129405653D02*
X141282079Y-129377958D01*
X146226873Y-130074262D02*
X146420065Y-129908956D01*
X132743780Y-109416456D02*
X132550069Y-109582761D01*
X132343572Y-115548757D02*
X132269170Y-115788755D01*
X146486273Y-108349866D02*
X146247472Y-108276853D01*
X131638876Y-110475255D02*
X131468679Y-110665464D01*
X150572866Y-127391157D02*
X150679876Y-127166852D01*
X131302282Y-110859258D02*
X131140676Y-111056264D01*
X142479482Y-130272153D02*
X142715475Y-130185857D01*
X150799886Y-118074659D02*
X150697881Y-117845060D01*
X150109075Y-119469755D02*
X150065572Y-119218961D01*
X153969671Y-117294759D02*
X153887182Y-117059064D01*
X131800588Y-119482053D02*
X131811788Y-119730665D01*
X149238775Y-129491354D02*
X149393881Y-129293760D01*
X151471975Y-124816556D02*
X151522573Y-124573255D01*
X133783575Y-112623464D02*
X133639669Y-112836660D01*
X130399481Y-124365461D02*
X130535787Y-124573255D01*
X136436681Y-127994154D02*
X136661581Y-128113355D01*
X133385580Y-115411863D02*
X133261770Y-115634260D01*
X148080770Y-131942258D02*
X148294470Y-131802755D01*
X130267782Y-124154760D02*
X130399481Y-124365461D01*
X127861181Y-114992559D02*
X125843267Y-114190557D01*
X142025274Y-107846052D02*
X141775274Y-107870557D01*
X146501974Y-127808050D02*
X146681081Y-127635458D01*
X152652868Y-114606557D02*
X152512167Y-114398458D01*
X154442068Y-119233755D02*
X154401571Y-118987257D01*
X131661764Y-129953649D02*
X131858770Y-130115354D01*
X135937078Y-133387464D02*
X136170980Y-133286558D01*
X154184286Y-125249761D02*
X154089178Y-125031560D01*
X133658682Y-110028158D02*
X133482687Y-110207464D01*
X135620168Y-108466962D02*
X135408971Y-108603063D01*
X152672582Y-118077657D02*
X152579580Y-117847257D01*
X154575872Y-120971250D02*
X154572683Y-120723157D01*
X148915670Y-129876050D02*
X149079366Y-129685560D01*
X153586187Y-114749258D02*
X153480779Y-114516759D01*
X128074987Y-115781759D02*
X127998785Y-116020261D01*
X135777486Y-127608755D02*
X135994466Y-127741865D01*
X137753484Y-111016454D02*
X137536688Y-111143461D01*
X129774282Y-127948453D02*
X129925390Y-128148160D01*
X135285574Y-110866666D02*
X135101385Y-111046155D01*
X149544470Y-129092756D02*
X149690679Y-128888456D01*
X131493765Y-125782056D02*
X131669088Y-125970357D01*
X153506277Y-116135656D02*
X153398672Y-115910261D01*
X131161672Y-122146955D02*
X131258474Y-122378850D01*
X153286184Y-115687253D02*
X153168874Y-115466756D01*
X143243978Y-133383863D02*
X143484579Y-133316854D01*
X134794286Y-109038854D02*
X134596075Y-109193059D01*
X148276464Y-127827558D02*
X148418676Y-127616849D01*
X132940969Y-109254453D02*
X132743780Y-109416456D01*
X131823888Y-118238958D02*
X131808584Y-118487257D01*
X148851675Y-111033063D02*
X148634878Y-110911558D01*
X143759176Y-128811758D02*
X143999075Y-128726758D01*
X143408682Y-131777158D02*
X143636968Y-131679060D01*
X137627584Y-107456457D02*
X137395666Y-107549161D01*
X142271368Y-110991460D02*
X142022573Y-110992162D01*
X152312277Y-112543355D02*
X152159078Y-112339254D01*
X131378469Y-113286664D02*
X131276373Y-113513258D01*
X144063665Y-109568456D02*
X143809774Y-109554456D01*
X140035787Y-129461355D02*
X140284475Y-129455358D01*
X132918676Y-116316358D02*
X132814077Y-116548452D01*
X139274984Y-133732160D02*
X139525076Y-133750555D01*
X150156866Y-122956754D02*
X150187978Y-122709959D01*
X131322775Y-125589864D02*
X131493765Y-125782056D01*
X132173971Y-109927763D02*
X131991583Y-110106359D01*
X144494878Y-111224157D02*
X144250478Y-111177160D01*
X141277075Y-111025960D02*
X141029272Y-111047864D01*
X136439367Y-130669553D02*
X136682684Y-130720159D01*
X136489675Y-107969762D02*
X136269170Y-108087064D01*
X149608465Y-109894559D02*
X149402380Y-109753362D01*
X127482473Y-119475255D02*
X127485571Y-119725759D01*
X128788274Y-116228261D02*
X128746069Y-116475957D01*
X144743581Y-131115255D02*
X144957174Y-130988157D01*
X147028280Y-127278959D02*
X147195974Y-127095251D01*
X141525274Y-111009359D02*
X141277075Y-111025960D01*
X152378378Y-117392759D02*
X152270467Y-117168958D01*
X137030676Y-132467649D02*
X137278371Y-132509862D01*
X143410879Y-129895460D02*
X143638189Y-129788450D01*
X142758688Y-133502157D02*
X143001974Y-133445653D01*
X128618185Y-117724760D02*
X128609274Y-117975866D01*
X147897665Y-114059957D02*
X147710470Y-113896162D01*
X129893270Y-112976156D02*
X129778982Y-113203863D01*
X127551366Y-120724561D02*
X127581075Y-120972456D01*
X141028783Y-130677557D02*
X141274069Y-130623556D01*
X131877981Y-120479658D02*
X131910986Y-120732053D01*
X154119268Y-117771360D02*
X154047079Y-117532262D01*
X141781088Y-109647466D02*
X141529668Y-109684659D01*
X133977575Y-108511259D02*
X133763876Y-108650762D01*
X135682378Y-133382261D02*
X135937078Y-133387464D01*
X146280874Y-112844762D02*
X146063879Y-112711652D01*
X139544164Y-106900159D02*
X139299673Y-106951360D01*
X149632772Y-113759252D02*
X149439367Y-113594358D01*
X148629980Y-112979459D02*
X148419271Y-112837255D01*
X138527975Y-133644758D02*
X138776373Y-133679250D01*
X128772176Y-124766157D02*
X128889486Y-124986661D01*
X133514074Y-115192052D02*
X133385580Y-115411863D01*
X151502783Y-111557760D02*
X151328161Y-111371557D01*
X146420065Y-129908956D02*
X146609380Y-129739461D01*
X149550069Y-125379461D02*
X149635076Y-125143064D01*
X145749578Y-128458959D02*
X145942877Y-128302259D01*
X150031789Y-123692457D02*
X150078771Y-123448057D01*
X152827978Y-125921155D02*
X152906072Y-125683858D01*
X148672781Y-125041761D02*
X148796590Y-124819250D01*
X143001974Y-133445653D02*
X143243978Y-133383863D01*
X154506979Y-119728956D02*
X154477270Y-119481061D01*
X128934774Y-120955755D02*
X128996877Y-121196355D01*
X141029272Y-111047864D02*
X140776281Y-111075559D01*
X148931173Y-126752759D02*
X149047079Y-126529859D01*
X134282873Y-128007864D02*
X134503179Y-128128759D01*
X130529379Y-119973760D02*
X130578375Y-120226263D01*
X128652685Y-117223653D02*
X128632681Y-117474058D01*
X132550069Y-109582761D02*
X132360174Y-109753156D01*
X130918874Y-129274358D02*
X131098180Y-129449255D01*
X143274191Y-128966558D02*
X143517477Y-128891759D01*
X131979574Y-117005460D02*
X131937978Y-117250661D01*
X135101385Y-111046155D02*
X134921179Y-111229864D01*
X145861074Y-109839864D02*
X145618978Y-109783956D01*
X138334676Y-107208852D02*
X138097173Y-107286260D01*
X130902776Y-121439252D02*
X130983785Y-121677061D01*
X145112371Y-130765859D02*
X145375677Y-130720159D01*
X140300161Y-108132360D02*
X140059576Y-108194456D01*
X151215780Y-129008955D02*
X151361379Y-128806051D01*
X144430776Y-132997060D02*
X144662679Y-132904356D01*
X136294286Y-132308355D02*
X136538564Y-132366956D01*
X154573873Y-121219358D02*
X154575872Y-120971250D01*
X129023672Y-114820562D02*
X128875478Y-114593656D01*
X130154180Y-126854757D02*
X130317083Y-127045957D01*
X131379888Y-128113256D02*
X131570379Y-128276960D01*
X131258474Y-122378850D02*
X131360479Y-122608457D01*
X145519888Y-108086660D02*
X145274282Y-108033460D01*
X150879080Y-126711561D02*
X150971182Y-126480756D01*
X137314779Y-109338361D02*
X137101171Y-109465360D01*
X134406576Y-111804853D02*
X134243887Y-112004156D01*
X139275274Y-111352666D02*
X139029073Y-111417257D01*
X130571676Y-128913358D02*
X130743368Y-129095754D01*
X132954778Y-125141653D02*
X133115362Y-125331464D01*
X139041387Y-129432050D02*
X139289678Y-129447355D01*
X132367681Y-111565061D02*
X132227789Y-111770452D01*
X139522772Y-111293355D02*
X139275274Y-111352666D01*
X131793874Y-118984556D02*
X131794576Y-119233358D01*
X137445882Y-130834959D02*
X137701666Y-130861654D01*
X129347082Y-127330450D02*
X129484976Y-127539464D01*
X153168874Y-115466756D02*
X153046774Y-115248960D01*
X153428869Y-121473257D02*
X153409872Y-121222761D01*
X150078771Y-123448057D02*
X150120382Y-123202856D01*
X154572683Y-120723157D02*
X154564169Y-120475065D01*
X147834066Y-126316961D02*
X147984869Y-126111959D01*
X154553884Y-121715253D02*
X154566473Y-121467458D01*
X150988287Y-118540456D02*
X150896673Y-118306562D01*
X144662679Y-132904356D02*
X144892584Y-132806661D01*
X150208074Y-120226858D02*
X150180380Y-119973859D01*
X127872076Y-122441556D02*
X127939077Y-122682157D01*
X137300375Y-133393064D02*
X137543585Y-133453954D01*
X134538564Y-126717062D02*
X134737173Y-126876455D01*
X134236684Y-131586263D02*
X134469274Y-131690359D01*
X141278371Y-133728956D02*
X141526876Y-133704557D01*
X130578375Y-120226354D02*
X130632375Y-120471654D01*
X149485479Y-111425359D02*
X149277075Y-111290052D01*
X131281179Y-129620260D02*
X131467886Y-129787252D01*
X142949377Y-130094259D02*
X143181280Y-129997457D01*
X146132772Y-128141553D02*
X146319082Y-127976758D01*
X145707174Y-111541158D02*
X145467168Y-111466856D01*
X147978185Y-128239156D02*
X148129675Y-128035062D01*
X147992971Y-112571355D02*
X147775472Y-112445653D01*
X143016973Y-111021467D02*
X142768682Y-111006162D01*
X147848379Y-130938856D02*
X148035970Y-130771757D01*
X135319174Y-107775159D02*
X135089086Y-107885465D01*
X143282079Y-106774267D02*
X143033086Y-106745161D01*
X138880071Y-108583356D02*
X138649679Y-108676359D01*
X143863180Y-131575956D02*
X144086981Y-131468053D01*
X135089086Y-107885465D02*
X134861379Y-108000852D01*
X133280080Y-125517652D02*
X133448675Y-125700361D01*
X132681173Y-130716955D02*
X132894872Y-130855756D01*
X135641973Y-128657461D02*
X135876470Y-128747655D01*
X128648473Y-119230665D02*
X128672964Y-119480665D01*
X148419271Y-112837255D02*
X148207678Y-112701955D01*
X134089086Y-129877462D02*
X134315679Y-129979558D01*
X149393881Y-129293760D02*
X149544470Y-129092756D01*
X144282278Y-107875860D02*
X144032278Y-107850263D01*
X143512380Y-111067960D02*
X143264867Y-111042058D01*
X127505270Y-118724355D02*
X127492284Y-118974454D01*
X147154073Y-129205953D02*
X147327474Y-129020055D01*
X150344381Y-127832456D02*
X150460973Y-127613058D01*
X141529668Y-109684659D02*
X141279073Y-109727560D01*
X139786977Y-129462057D02*
X140035787Y-129461355D01*
X147496679Y-128830358D02*
X147661581Y-128636961D01*
X139538274Y-129457357D02*
X139786977Y-129462057D01*
X149694189Y-117738454D02*
X149614187Y-117496755D01*
X144939581Y-112116262D02*
X144707479Y-112011655D01*
X138573766Y-107136663D02*
X138334676Y-107208852D01*
X139531789Y-132639860D02*
X139782674Y-132626455D01*
X149157873Y-126304357D02*
X149263677Y-126076559D01*
X132289388Y-122471761D02*
X132364172Y-122715063D01*
X129787878Y-123284559D02*
X129900686Y-123505956D01*
X128703085Y-119730054D02*
X128738683Y-119978757D01*
X131276373Y-113513258D02*
X131179281Y-113741956D01*
X152656286Y-126390264D02*
X152744680Y-126156660D01*
X143280065Y-107806852D02*
X143028875Y-107803556D01*
X139029073Y-111417257D02*
X138784170Y-111486959D01*
X127576376Y-117976453D02*
X127547277Y-118225255D01*
X148747778Y-130062955D02*
X148915670Y-129876050D01*
X129213583Y-127118558D02*
X129347082Y-127330450D01*
X143028875Y-107803556D02*
X142777670Y-107805860D01*
X132798193Y-124948560D02*
X132954778Y-125141653D01*
X142022573Y-110992162D02*
X141773885Y-110998159D01*
X138026067Y-132603254D02*
X138276479Y-132623250D01*
X153450079Y-121975255D02*
X153442281Y-121724157D01*
X152001486Y-112138555D02*
X151839483Y-111941358D01*
X151667669Y-123514661D02*
X151687475Y-123261251D01*
X148129675Y-128035062D02*
X148276464Y-127827558D01*
X144270376Y-106943960D02*
X144024770Y-106893659D01*
X128629476Y-118980161D02*
X128648473Y-119230665D01*
X133261770Y-115634260D02*
X133142568Y-115859159D01*
X129546179Y-126055059D02*
X129691488Y-126259954D01*
X127937277Y-114732458D02*
X127861181Y-114992559D01*
X126632583Y-120226855D02*
X123672600Y-120224055D01*
X132814077Y-116548452D02*
X132714285Y-116782659D01*
X135179372Y-128461256D02*
X135409582Y-128561956D01*
X128826193Y-120470754D02*
X128877767Y-120713865D01*
X128889486Y-124986661D02*
X129011572Y-125204557D01*
X154304586Y-118497251D02*
X154248068Y-118253957D01*
X146959081Y-108511259D02*
X146723577Y-108427961D01*
X128947576Y-115491758D02*
X128889089Y-115736051D01*
X133763876Y-108650762D02*
X133553274Y-108794858D01*
X149277075Y-111290052D02*
X149065771Y-111159254D01*
X147969274Y-110576055D02*
X147742681Y-110473958D01*
X152270467Y-117168958D02*
X152157674Y-116947561D01*
X132423269Y-115310453D02*
X132343572Y-115548757D01*
X147283178Y-110284757D02*
X147050375Y-110197759D01*
X133115362Y-125331464D02*
X133280080Y-125517652D01*
X130491674Y-116133863D02*
X130453390Y-116388158D01*
X151571264Y-120727254D02*
X151528371Y-120476758D01*
X136051366Y-108209157D02*
X135834371Y-108335653D01*
X147822073Y-128439863D02*
X147978185Y-128239156D01*
X145945486Y-111620855D02*
X145707174Y-111541158D01*
X137165762Y-107646856D02*
X136938070Y-107749654D01*
X153591177Y-125692663D02*
X153706182Y-125421255D01*
X139771581Y-111239255D02*
X139522772Y-111293355D01*
X149242284Y-113433866D02*
X149041570Y-113277761D01*
X138421392Y-108774457D02*
X138195181Y-108877561D01*
X142520071Y-110996160D02*
X142271368Y-110991460D01*
X135663671Y-132132261D02*
X135622472Y-132231649D01*
X132607183Y-126849355D02*
X132806478Y-127012052D01*
X144982565Y-111334356D02*
X144738073Y-111276266D01*
X135551672Y-107669759D02*
X135319174Y-107775159D01*
X151155569Y-119014265D02*
X151074560Y-118776456D01*
X148505087Y-131658659D02*
X148712591Y-131509862D01*
X136591177Y-128986761D02*
X136832784Y-129055654D01*
X135404775Y-132367155D02*
X135263372Y-132579061D01*
X151368673Y-124791761D02*
X151522573Y-124573255D01*
X127702566Y-121711759D02*
X127753774Y-121956258D01*
X127507986Y-120226858D02*
X127526983Y-120475957D01*
X147422079Y-132332357D02*
X147644476Y-132207159D01*
X133482687Y-110207464D02*
X133310568Y-110390562D01*
X131713979Y-112621061D02*
X131597387Y-112840452D01*
X146102682Y-107069959D02*
X145879675Y-107172559D01*
X130484167Y-127233556D02*
X130655370Y-127417356D01*
X131468374Y-129787755D02*
X131661764Y-129953649D01*
X131070074Y-121913061D02*
X131161672Y-122146955D01*
X146914373Y-113271062D02*
X146706274Y-113124456D01*
X138053075Y-129317960D02*
X138299184Y-129354452D01*
X130586370Y-115636961D02*
X130535787Y-115880262D01*
X147519781Y-113736455D02*
X147321172Y-113577062D01*
X134861379Y-108000852D02*
X134636282Y-108121160D01*
X152361074Y-127078756D02*
X152464468Y-126851461D01*
X131901479Y-117496755D02*
X131870382Y-117743558D01*
X131696783Y-123282850D02*
X131818868Y-123502454D01*
X142711584Y-132041158D02*
X142945882Y-131958257D01*
X147106771Y-112098058D02*
X146878988Y-111992261D01*
X148193578Y-110683065D02*
X147969274Y-110576055D01*
X147775472Y-112445653D02*
X147555181Y-112324758D01*
X130830679Y-111460760D02*
X130682577Y-111668058D01*
X131848592Y-126154554D02*
X132032278Y-126334760D01*
X145169378Y-112225866D02*
X144939581Y-112116262D01*
X131992773Y-121234556D02*
X132041677Y-121484357D01*
X130394277Y-116899251D02*
X130373388Y-117155653D01*
X152039968Y-116728666D02*
X151917577Y-116512357D01*
X128632681Y-117474058D02*
X128618185Y-117724760D01*
X150400472Y-110503065D02*
X150207479Y-110344556D01*
X145808874Y-110046262D02*
X145594183Y-109887258D01*
X148712591Y-131509862D02*
X148916677Y-131356664D01*
X132664587Y-111159757D02*
X132513876Y-111360761D01*
X153440160Y-122728658D02*
X153449072Y-122477651D01*
X142514181Y-133553358D02*
X142758688Y-133502157D01*
X138420171Y-110665159D02*
X138195364Y-110777257D01*
X141516287Y-132378156D02*
X141758184Y-132321157D01*
X131949270Y-120983755D02*
X131992773Y-121234556D01*
X128372381Y-114433256D02*
X128120168Y-114532453D01*
X147327474Y-129020055D02*
X147496679Y-128830358D01*
X145552969Y-128611356D02*
X145749578Y-128458959D01*
X140021383Y-111190359D02*
X139771581Y-111239255D01*
X144005270Y-111135557D02*
X143759176Y-111099065D01*
X131858770Y-130115354D02*
X132059271Y-130272558D01*
X146438177Y-131986555D02*
X146649389Y-131850454D01*
X139346685Y-108412359D02*
X139112478Y-108495252D01*
X146648779Y-111891561D02*
X146416372Y-111796056D01*
X127547277Y-118225255D02*
X127523580Y-118474561D01*
X145716467Y-107355863D02*
X145479269Y-107274267D01*
X132095785Y-121733160D02*
X132155080Y-121980665D01*
X128605978Y-118227064D02*
X128608282Y-118478261D01*
X152252676Y-127303861D02*
X152361074Y-127078756D01*
X129123785Y-114860960D02*
X129023672Y-114820562D01*
X154477270Y-119481061D02*
X154442068Y-119233755D01*
X144317083Y-109588262D02*
X144063665Y-109568456D01*
X134085775Y-112207059D02*
X133932287Y-112413557D01*
X148207678Y-112701955D02*
X147992971Y-112571355D01*
X149921575Y-124180158D02*
X149979665Y-123935651D01*
X137278371Y-132509862D02*
X137526876Y-132546560D01*
X135556371Y-112645559D02*
X135377172Y-112818052D01*
X130453390Y-116388158D02*
X130420965Y-116643362D01*
X153255087Y-114058958D02*
X153134771Y-113833860D01*
X151479971Y-120227155D02*
X151425970Y-119981863D01*
X145594183Y-109887258D02*
X145375677Y-109733358D01*
X151639181Y-128390958D02*
X151771276Y-128178960D01*
X146794988Y-129565656D02*
X146976583Y-129387861D01*
X138299184Y-111641759D02*
X138059271Y-111726758D01*
X136907980Y-111549963D02*
X136705084Y-111693861D01*
X132367483Y-128888258D02*
X132572866Y-129028158D01*
X127939077Y-122682157D02*
X128011282Y-122921255D01*
X128779882Y-120226659D02*
X128826193Y-120470754D01*
X153425665Y-122979459D02*
X153440160Y-122728658D01*
X130348470Y-118184057D02*
X130356771Y-118441160D01*
X131828375Y-119978857D02*
X131850286Y-120226659D01*
X149065771Y-111159254D02*
X148851675Y-111033063D01*
X153480779Y-114516759D02*
X153370474Y-114286664D01*
X146416372Y-111796056D02*
X146181875Y-111705862D01*
X129011572Y-125204557D02*
X129138067Y-125421560D01*
X129214773Y-121909154D02*
X129297674Y-122143461D01*
X131570379Y-128276960D02*
X131764471Y-128436353D01*
X150780676Y-110836454D02*
X150590475Y-110666265D01*
X140268072Y-130807256D02*
X140522573Y-130769758D01*
X139789678Y-106854360D02*
X139544164Y-106900159D01*
X146348074Y-107065252D02*
X146102682Y-107069959D01*
X151665884Y-121483861D02*
X151639974Y-121230955D01*
X128551977Y-124317861D02*
X128659673Y-124543157D01*
X134745275Y-111417654D02*
X134573766Y-111609258D01*
X150229971Y-120474760D02*
X150208074Y-120226858D01*
X142286184Y-109590055D02*
X142033392Y-109615957D01*
X134413885Y-108246358D02*
X134194280Y-108376455D01*
X133864782Y-129770452D02*
X134089086Y-129877462D01*
X130683782Y-124783651D02*
X130836675Y-124990560D01*
X135352071Y-127329061D02*
X135563375Y-127471159D01*
X128672964Y-119480665D02*
X128703085Y-119730054D01*
X153312277Y-123977560D02*
X153348974Y-123729063D01*
X148437887Y-114574857D02*
X148261480Y-114399358D01*
D11*
X125685880Y-114504055D02*
X125455880Y-114634055D01*
D10*
X151640768Y-116672956D02*
X151607671Y-116407865D01*
X154550375Y-120226659D02*
X154531362Y-119977560D01*
X129576879Y-122834554D02*
X129679983Y-123060758D01*
X149193380Y-109616758D02*
X148981390Y-109484663D01*
X141280172Y-106691656D02*
X141029775Y-106705556D01*
X133850683Y-127751554D02*
X134065389Y-127882154D01*
X146247472Y-108276853D02*
X146007085Y-108209157D01*
X128616079Y-126018560D02*
X126205880Y-127014055D01*
X136308782Y-111994665D02*
X136115484Y-112151258D01*
X153442281Y-121724157D02*
X153428869Y-121473257D01*
X128156377Y-115544759D02*
X125705880Y-114514055D01*
X147424276Y-108693059D02*
X147192678Y-108599653D01*
X132026571Y-116761060D02*
X131979574Y-117005460D01*
X140531362Y-106748960D02*
X140283483Y-106778661D01*
X127650381Y-117481061D02*
X127610677Y-117728361D01*
X150112478Y-116734357D02*
X149980779Y-116520360D01*
X149635076Y-125143064D02*
X149714773Y-124904760D01*
X138778280Y-132646657D02*
X139029485Y-132649953D01*
X129679983Y-123060758D02*
X129787878Y-123284559D01*
X154401571Y-118987257D02*
X154355779Y-118741758D01*
X130743368Y-129095754D02*
X130918874Y-129274358D01*
D11*
X129011572Y-115248853D02*
X128746680Y-115115973D01*
D10*
X132572866Y-129028158D02*
X132781271Y-129163457D01*
X146572600Y-132763200D02*
X146739172Y-132678358D01*
X137118780Y-128337255D02*
X137350866Y-128441862D01*
X136661581Y-128113355D02*
X136888967Y-128227651D01*
X140284475Y-129455358D02*
X140532964Y-129444158D01*
X149364370Y-125846357D02*
X149459875Y-125613958D01*
X146976583Y-129387861D02*
X147154073Y-129205953D01*
X144735571Y-129178358D02*
X144944372Y-129043157D01*
X151227667Y-112856161D02*
X151048467Y-112680158D01*
X151216970Y-125776960D02*
X151288580Y-125539060D01*
X136170980Y-133286558D02*
X136341879Y-133097654D01*
X129627477Y-127745557D02*
X129774282Y-127948453D01*
X151701482Y-123007360D02*
X151709768Y-122753355D01*
X147864065Y-132077062D02*
X148080770Y-131942258D01*
X132806478Y-127012052D02*
X133009481Y-127170156D01*
X134573766Y-111609258D02*
X134406576Y-111804853D01*
X146857473Y-131709760D02*
X147062383Y-131564451D01*
X148943975Y-115123159D02*
X148779180Y-114936857D01*
X130538992Y-111878660D02*
X130400167Y-112092359D01*
X146007085Y-108209157D02*
X145764166Y-108145162D01*
X132529180Y-123196661D02*
X132619177Y-123434759D01*
X152920278Y-115031957D02*
X152788961Y-114817762D01*
X136342077Y-133097753D02*
X136579183Y-133179250D01*
X153996282Y-124632452D02*
X154070989Y-124395757D01*
X135925573Y-112312055D02*
X135739172Y-112476758D01*
X135862066Y-110353757D02*
X135666067Y-110520360D01*
X128875478Y-114593656D02*
X128642477Y-114455160D01*
X148766561Y-109357160D02*
X148549078Y-109234457D01*
X154368276Y-123191656D02*
X154412161Y-122947462D01*
X136784078Y-132420049D02*
X137030676Y-132467649D01*
X154089178Y-125031560D02*
X153916586Y-124867460D01*
X149614187Y-117496755D02*
X149529180Y-117256856D01*
X131579672Y-123060560D02*
X131696783Y-123282850D01*
X150478674Y-117392957D02*
X150361578Y-117170660D01*
X149139669Y-124137159D02*
X149244283Y-123905065D01*
X132219976Y-126510557D02*
X132411672Y-126682157D01*
X154412161Y-122947462D02*
X154451086Y-122702360D01*
X129136968Y-121673154D02*
X129214773Y-121909154D01*
X138540868Y-111561758D02*
X138299184Y-111641759D01*
X154186285Y-118011961D02*
X154119268Y-117771360D01*
X148415487Y-110794958D02*
X148193578Y-110683065D01*
X132411672Y-126682157D02*
X132607183Y-126849355D01*
X127801077Y-116745061D02*
X127745580Y-116989355D01*
X140781179Y-132517156D02*
X141029073Y-132476049D01*
X136351171Y-128912359D02*
X136591177Y-128986761D01*
X140283178Y-132582853D02*
X140532583Y-132552854D01*
X136832784Y-129055654D02*
X137075887Y-129119154D01*
X149884374Y-130525754D02*
X150066686Y-130347158D01*
X136112875Y-128832662D02*
X136351171Y-128912359D01*
X133504385Y-113048261D02*
X133373769Y-113262960D01*
X141534475Y-129344953D02*
X141786184Y-129306661D01*
X144738073Y-111276266D02*
X144494878Y-111224157D01*
X130655370Y-127417356D02*
X130830679Y-127597250D01*
X148916677Y-131356664D02*
X149117376Y-131199064D01*
X153370474Y-114286664D02*
X153255087Y-114058958D01*
X132360174Y-109753156D02*
X132173971Y-109927763D01*
X133028280Y-116086561D02*
X132918676Y-116316358D01*
X132364172Y-122715063D02*
X132444174Y-122956754D01*
X136115484Y-112151258D02*
X135925573Y-112312055D01*
X150222875Y-128049253D02*
X150344381Y-127832456D01*
X150876684Y-115029066D02*
X150711370Y-114835859D01*
X137776174Y-132577650D02*
X138026067Y-132603254D01*
X141029272Y-133747953D02*
X141278371Y-133728956D01*
X130391088Y-118954458D02*
X130416967Y-119210355D01*
X130756689Y-120958555D02*
X130827078Y-121199758D01*
X153270071Y-124225255D02*
X153312277Y-123977560D01*
X149459875Y-125613958D02*
X149550069Y-125379461D01*
X145618978Y-109783956D02*
X145375677Y-109733358D01*
X130266180Y-112309064D02*
X130136968Y-112528661D01*
X139500372Y-130884855D02*
X139756872Y-130864851D01*
X146579366Y-110038961D02*
X146341482Y-109967359D01*
X153046774Y-115248960D02*
X152920278Y-115031957D01*
X149903265Y-118472852D02*
X149838674Y-118226659D01*
X139056371Y-107007864D02*
X138814382Y-107069654D01*
X150180380Y-119973859D02*
X150147375Y-119721464D01*
X134938986Y-127031652D02*
X135143972Y-127182455D01*
X129925390Y-128148160D02*
X130080785Y-128344663D01*
X149413763Y-115702955D02*
X149261388Y-115506361D01*
X133838567Y-109852956D02*
X133658682Y-110028158D01*
X147050375Y-110197759D02*
X146815786Y-110115758D01*
X142022192Y-133639654D02*
X142268682Y-133599157D01*
X150187978Y-122709959D02*
X150213873Y-122462453D01*
X144521673Y-129310056D02*
X144735571Y-129178258D01*
X151607671Y-116407865D02*
X151568273Y-116143560D01*
X146856588Y-127459058D02*
X147028280Y-127278959D01*
X145621679Y-112459356D02*
X145396780Y-112340162D01*
X150487981Y-112176557D02*
X150293768Y-112017156D01*
X153278478Y-120226858D02*
X153232168Y-119982755D01*
X137788076Y-133509557D02*
X138033773Y-133559957D01*
X151366476Y-119737760D02*
X151301672Y-119494955D01*
X129484976Y-127539464D02*
X129627477Y-127745557D01*
X152605169Y-112961462D02*
X152461080Y-112750852D01*
X143638189Y-129788450D02*
X143862981Y-129676260D01*
X149079366Y-129685560D02*
X149238775Y-129491354D01*
X153398672Y-115910261D02*
X153286184Y-115687253D01*
X145396780Y-112340162D02*
X145169378Y-112225866D01*
X150590185Y-129787557D02*
X150752874Y-129598051D01*
X149965887Y-128474660D02*
X150096685Y-128263357D01*
X146969274Y-132568052D02*
X147196966Y-132452657D01*
X135478872Y-130414556D02*
X135716879Y-130486158D01*
X151140173Y-126013357D02*
X151216970Y-125776960D01*
X146341482Y-109967359D02*
X146101980Y-109900960D01*
X130535787Y-124573255D02*
X130683782Y-124783651D01*
X147710470Y-113896162D02*
X147519781Y-113736455D01*
X127810278Y-122199560D02*
X127872076Y-122441556D01*
X127610677Y-117728361D02*
X127576376Y-117976453D01*
X143961172Y-133167249D02*
X144196874Y-133084760D01*
X132619177Y-123434759D02*
X132714285Y-123670850D01*
X153405676Y-123229864D02*
X153425665Y-122979459D01*
X150245077Y-130164663D02*
X150419485Y-129978261D01*
X131360479Y-122608457D02*
X131467489Y-122835760D01*
X130345876Y-117926755D02*
X130348470Y-118184057D01*
X135143972Y-127182455D02*
X135352071Y-127329061D01*
X139299673Y-106951360D02*
X139056371Y-107007864D01*
X130416967Y-119210355D02*
X130448675Y-119465658D01*
X131794576Y-119233358D02*
X131800588Y-119482053D01*
X146101980Y-109900960D02*
X145861074Y-109839864D01*
X134160970Y-126393758D02*
X134348074Y-126557462D01*
X127492284Y-118974454D02*
X127484686Y-119224851D01*
X130136968Y-112528661D02*
X130012685Y-112751066D01*
X147332281Y-112208852D02*
X147106771Y-112098058D01*
X131798574Y-118735860D02*
X131793874Y-118984556D01*
X143264867Y-111042058D02*
X143016973Y-111021467D01*
X149690878Y-111565252D02*
X149485479Y-111425359D01*
X131669088Y-125970357D02*
X131848592Y-126154554D01*
X132353674Y-124349859D02*
X132497579Y-124552557D01*
X142237981Y-132191556D02*
X142475576Y-132118955D01*
X133778783Y-131362760D02*
X134006475Y-131477064D01*
X128258871Y-123628355D02*
X128351583Y-123860265D01*
X148575781Y-130246053D02*
X148747778Y-130062955D01*
X139775488Y-133763555D02*
X140026189Y-133771253D01*
X141273184Y-132429754D02*
X141516287Y-132378156D01*
X140012777Y-130838956D02*
X140268072Y-130807256D01*
X140785177Y-108023756D02*
X140542074Y-108075361D01*
X151048467Y-112680158D02*
X150865377Y-112508161D01*
X131597387Y-112840452D02*
X131485479Y-113062360D01*
X149705969Y-116105558D02*
X149562078Y-115902662D01*
X128449270Y-124090154D02*
X128551977Y-124317861D01*
X137531088Y-109215963D02*
X137314779Y-109338361D01*
X140540167Y-109889463D02*
X140297384Y-109954259D01*
X143778066Y-106848562D02*
X143530477Y-106808759D01*
X133373769Y-113262960D02*
X133248068Y-113480451D01*
X148837484Y-113126264D02*
X148629980Y-112979459D01*
X152481481Y-117618955D02*
X152378378Y-117392759D01*
X152993978Y-119017957D02*
X152921377Y-118780355D01*
X153469381Y-125961156D02*
X153591177Y-125692663D01*
X129900686Y-123505956D02*
X130018377Y-123724851D01*
X153385275Y-120972761D02*
X153355276Y-120723356D01*
X130642278Y-115394857D02*
X130586370Y-115636961D01*
X142268682Y-133599157D02*
X142514181Y-133553358D01*
X136472280Y-109881361D02*
X136265386Y-110034261D01*
X131811788Y-119730665D02*
X131828375Y-119978857D01*
X137075887Y-129119154D02*
X137320287Y-129177251D01*
X148684591Y-127190557D02*
X148810278Y-126973058D01*
X138776373Y-133679250D02*
X139025381Y-133708356D01*
X147462377Y-131260450D02*
X147657171Y-131101758D01*
X153348974Y-123729063D02*
X153380071Y-123479757D01*
X148544286Y-125261465D02*
X148672781Y-125041761D01*
X138814382Y-107069654D02*
X138573766Y-107136663D01*
X147321172Y-113577062D02*
X147119375Y-113421865D01*
X139578771Y-110181356D02*
X139342870Y-110267652D01*
X153046774Y-125204664D02*
X153110769Y-124961759D01*
X129669668Y-113434057D02*
X129565572Y-113666662D01*
X148035970Y-130771757D02*
X148219778Y-130600553D01*
X151898779Y-127964155D02*
X152021475Y-127746664D01*
X150679876Y-127166852D02*
X150781973Y-126940259D01*
X150257772Y-120971464D02*
X150246572Y-120722959D01*
X149768972Y-117981756D02*
X149694189Y-117738454D01*
X152843572Y-118544263D02*
X152760687Y-118310056D01*
X150016683Y-118969160D02*
X149962560Y-118720357D01*
X140527578Y-133770353D02*
X140778188Y-133761861D01*
X153134771Y-113833860D02*
X153009573Y-113611463D01*
X129011572Y-115248853D02*
X128947576Y-115491758D01*
X134726080Y-128244665D02*
X134951574Y-128355459D01*
X143759176Y-111099065D02*
X143512380Y-111067960D01*
X151045568Y-125217458D02*
X151209676Y-125006452D01*
X127753774Y-121956258D02*
X127810278Y-122199560D01*
X154186987Y-125487859D02*
X154184286Y-125249761D01*
X128449880Y-125650159D02*
X126029180Y-126693861D01*
X128835882Y-115981657D02*
X128788274Y-116228261D01*
X135408971Y-108603063D02*
X135200872Y-108743757D01*
X136888967Y-128227651D02*
X137118780Y-128337255D01*
X137971365Y-108985464D02*
X137749975Y-109098264D01*
X137526876Y-132546560D02*
X137776174Y-132577650D01*
X134243887Y-112004156D02*
X134085775Y-112207059D01*
X133642873Y-129658559D02*
X133864782Y-129770452D01*
X152879476Y-113391866D02*
X152744680Y-113175161D01*
X128642477Y-114455160D02*
X128372381Y-114433256D01*
X130703375Y-115153959D02*
X130642278Y-115394857D01*
X138793478Y-129411458D02*
X139041387Y-129432050D01*
X143047369Y-109546560D02*
X142793386Y-109555357D01*
X150876684Y-125424451D02*
X151045568Y-125217458D01*
X146609380Y-129739461D02*
X146794988Y-129565656D01*
X150246572Y-120722959D02*
X150229971Y-120474760D01*
X136197179Y-130613653D02*
X136439367Y-130669553D01*
X144892584Y-132806661D02*
X145120168Y-132703954D01*
X146649389Y-131850454D02*
X146857473Y-131709760D01*
X141786184Y-129306661D02*
X142036962Y-129263158D01*
X127998785Y-116020261D02*
X127927786Y-116260458D01*
X128840871Y-126466154D02*
X128960470Y-126686262D01*
X143029272Y-129036260D02*
X143274191Y-128966558D01*
X144308370Y-131355253D02*
X144527273Y-131237554D01*
X128960470Y-126686262D02*
X129084676Y-126903760D01*
X141781484Y-106680059D02*
X141530782Y-106683156D01*
X139280676Y-132647649D02*
X139531789Y-132639860D01*
X138527273Y-132637754D02*
X138778280Y-132646657D01*
X127484686Y-119224851D02*
X127482473Y-119475255D01*
X151058187Y-126247961D02*
X151140173Y-126013357D01*
X141760961Y-130499250D02*
X142002187Y-130428854D01*
X152366872Y-114193555D02*
X152217077Y-113991865D01*
X140776281Y-111075559D02*
X140523885Y-111108556D01*
X153449072Y-122477651D02*
X153452383Y-122226453D01*
X126029180Y-126693861D02*
X126029089Y-126693655D01*
X128171179Y-123394453D02*
X128258871Y-123628355D01*
X148810278Y-126973058D02*
X148931173Y-126752759D01*
X153319570Y-120474760D02*
X153278478Y-120226858D01*
X140036169Y-106813863D02*
X139789678Y-106854360D01*
X129284582Y-114377462D02*
X129201482Y-114618261D01*
X133926870Y-114549657D02*
X133784780Y-114760961D01*
X140297384Y-109954259D02*
X140056173Y-110024663D01*
X133639669Y-112836660D02*
X133504385Y-113048261D01*
X144527273Y-131237554D02*
X144743581Y-131115255D01*
X146681081Y-127635458D02*
X146856588Y-127459058D01*
X132219671Y-122226850D02*
X132289388Y-122471761D01*
X143862981Y-129676260D02*
X144085272Y-129559156D01*
X150678472Y-112340261D02*
X150487981Y-112176557D01*
X152760687Y-118310056D02*
X152672582Y-118077657D01*
X129138067Y-125421560D02*
X129269384Y-125635755D01*
X153180578Y-119739652D02*
X153123571Y-119497755D01*
X147657171Y-131101758D02*
X147848379Y-130938856D01*
X131009878Y-127773359D02*
X131192968Y-127945356D01*
X146739172Y-132678358D02*
X146969274Y-132568052D01*
X151502569Y-128599958D02*
X151639181Y-128390958D01*
X152579580Y-117847257D02*
X152481481Y-117618955D01*
X149895178Y-111711462D02*
X149690878Y-111565252D01*
X129372976Y-114138456D02*
X129284582Y-114377462D01*
X130400167Y-112092359D02*
X130266180Y-112309064D01*
X140781179Y-129427557D02*
X141029073Y-129405653D01*
X143781881Y-107830266D02*
X143531179Y-107815763D01*
X141274069Y-130623556D02*
X141518179Y-130564054D01*
X145479269Y-107274267D02*
X145240469Y-107197866D01*
X138276479Y-132623250D02*
X138527273Y-132637754D01*
X154355779Y-118741758D02*
X154304586Y-118497251D01*
X147661581Y-128636961D02*
X147822073Y-128439863D01*
X135834371Y-108335653D02*
X135620168Y-108466962D01*
X129385763Y-122375860D02*
X129478780Y-122606260D01*
X143530477Y-106808759D02*
X143282079Y-106774267D01*
X129405477Y-125846960D02*
X129546179Y-126055059D01*
X142033392Y-109615957D02*
X141781088Y-109647466D01*
X144758184Y-107060560D02*
X144514867Y-106999654D01*
X147644476Y-132207159D02*
X147864065Y-132077062D01*
X135563375Y-127471159D02*
X135777486Y-127608755D01*
X130994070Y-125194051D02*
X131156164Y-125393758D01*
X135666067Y-110520360D02*
X135473882Y-110691358D01*
X130682577Y-111668058D02*
X130538992Y-111878660D01*
X142275778Y-107827062D02*
X142025274Y-107846052D01*
X145120168Y-132703954D02*
X145345571Y-132596258D01*
X146226873Y-110379255D02*
X146019872Y-110210355D01*
X130535680Y-115880361D02*
X130491674Y-116133863D01*
X132470571Y-130573461D02*
X132681173Y-130716955D01*
X136505270Y-111842161D02*
X136308782Y-111994665D01*
X131870382Y-117743558D02*
X131844473Y-117991064D01*
X137543585Y-133453954D02*
X137788076Y-133509557D01*
X147881170Y-108894857D02*
X147653875Y-108791463D01*
X129269384Y-125635755D02*
X129405477Y-125846960D01*
X130403982Y-128727254D02*
X130571676Y-128913358D01*
X139582784Y-108334562D02*
X139346685Y-108412359D01*
X132513876Y-111360761D02*
X132367788Y-111565061D01*
X151709387Y-122244955D02*
X151700582Y-121990957D01*
X135994466Y-127741865D02*
X136214178Y-127870359D01*
X150249761Y-121966260D02*
X150259786Y-121717657D01*
X144250478Y-111177160D02*
X144005270Y-111135557D01*
X143484579Y-133316854D02*
X143723669Y-133244657D01*
X137101171Y-109465360D02*
X136890478Y-109597066D01*
X132079076Y-123935461D02*
X132214193Y-124144155D01*
X153232168Y-119982755D02*
X153180578Y-119739652D01*
X132227789Y-111770452D02*
X132092474Y-111978857D01*
X133977392Y-126226156D02*
X134160970Y-126393758D01*
X146319082Y-127976758D02*
X146501974Y-127808050D01*
X151658865Y-116088056D02*
X151522573Y-115880262D01*
X130080785Y-128344663D02*
X130240377Y-128537656D01*
X148411169Y-125478452D02*
X148544286Y-125261465D01*
X143636968Y-131679060D02*
X143863180Y-131575956D01*
X138299184Y-129354452D02*
X138545980Y-129385557D01*
X134737173Y-126876455D02*
X134938986Y-127031652D01*
X145167883Y-130856451D02*
X145375677Y-130720159D01*
X128726080Y-126243558D02*
X128840871Y-126466154D01*
X127656774Y-121466260D02*
X127702566Y-121711759D01*
X149858068Y-124423154D02*
X149921575Y-124180158D01*
X142241674Y-130353155D02*
X142479482Y-130272153D01*
X136269170Y-108087064D02*
X136051366Y-108209157D01*
X149979665Y-123935651D02*
X150031789Y-123692457D01*
X128889089Y-115736051D02*
X128835882Y-115981657D01*
X142783086Y-129100851D02*
X143029272Y-129036260D01*
X130830679Y-127597250D02*
X131009878Y-127773359D01*
X134862371Y-113358266D02*
X134698568Y-113545560D01*
X153110769Y-124961759D02*
X153169271Y-124717458D01*
X151608465Y-120978757D02*
X151571264Y-120727254D01*
X154451086Y-122702360D02*
X154484579Y-122456457D01*
X128608282Y-118478261D02*
X128616079Y-118729360D01*
X130841390Y-114676557D02*
X130769766Y-114914457D01*
X131140676Y-111056264D02*
X130983480Y-111256856D01*
X132598470Y-114839658D02*
X132508169Y-115074056D01*
X149402380Y-109753362D02*
X149193380Y-109616758D01*
X130240377Y-128537656D02*
X130403982Y-128727254D01*
X130769766Y-114914457D02*
X130703375Y-115153959D01*
X147984869Y-126111959D02*
X148131475Y-125903860D01*
X150752874Y-129598051D02*
X150911367Y-129405057D01*
X141029577Y-109775960D02*
X140784277Y-109829961D01*
X131910986Y-120732053D02*
X131949270Y-120983755D01*
X132508169Y-115074056D02*
X132423269Y-115310453D01*
X139289678Y-129447355D02*
X139538274Y-129457357D01*
X135420965Y-132054555D02*
X135663671Y-132132261D01*
X150147375Y-119721464D02*
X150109075Y-119469755D01*
X150781973Y-126940259D02*
X150879080Y-126711561D01*
X132092474Y-111978857D02*
X131961675Y-112190160D01*
X151149572Y-111189252D02*
X150967077Y-111010854D01*
X151209676Y-125006452D02*
X151368673Y-124791761D01*
X129084676Y-126903760D02*
X129213583Y-127118558D01*
X134698568Y-113545560D02*
X134538870Y-113736265D01*
X133423483Y-129541959D02*
X133642873Y-129658559D01*
X148261480Y-114399358D02*
X148081381Y-114227651D01*
X128678289Y-116973653D02*
X128652685Y-117223653D01*
X148294470Y-131802755D02*
X148505087Y-131658659D01*
X130632375Y-120471654D02*
X130691885Y-120715757D01*
X134348074Y-126557462D02*
X134538564Y-126717062D01*
X141279073Y-109727560D02*
X141029577Y-109775960D01*
X140784277Y-109829961D02*
X140540167Y-109889463D01*
X134401174Y-109351758D02*
X134209982Y-109514562D01*
X149822469Y-113928457D02*
X149632772Y-113759252D01*
X131156164Y-125393758D02*
X131322775Y-125589864D01*
X141998769Y-132259061D02*
X142237981Y-132191556D01*
X153380071Y-123479757D02*
X153405676Y-123229864D01*
X151354986Y-125299558D02*
X151416067Y-125058660D01*
X132992590Y-129294263D02*
X133206686Y-129420454D01*
X137320287Y-129177251D02*
X137563482Y-129229360D01*
X150259786Y-121717657D02*
X150264471Y-121468961D01*
X151568273Y-116143560D02*
X151522573Y-115880262D01*
X145240469Y-107197866D02*
X145000066Y-107126562D01*
X133797384Y-126054662D02*
X133977392Y-126226156D01*
X153609075Y-116363355D02*
X153506277Y-116135656D01*
X137973074Y-110894361D02*
X137753484Y-111016454D01*
X154096868Y-125708356D02*
X154186987Y-125487859D01*
X137563482Y-129229360D02*
X137807882Y-129276357D01*
X135716879Y-130486158D02*
X135956381Y-130552557D01*
X131813268Y-110288854D02*
X131638876Y-110475255D01*
X154070989Y-124395757D02*
X154140676Y-124157560D01*
X134636282Y-108121160D02*
X134413885Y-108246358D01*
X151231268Y-119253866D02*
X151155569Y-119014265D01*
G36*
X128475602Y-114727149D02*
G01*
X128490837Y-114728307D01*
X128505851Y-114730215D01*
X128520624Y-114732853D01*
X128535138Y-114736203D01*
X128549374Y-114740246D01*
X128563313Y-114744963D01*
X128576936Y-114750334D01*
X128590225Y-114756342D01*
X128603161Y-114762967D01*
X128615724Y-114770191D01*
X128627896Y-114777994D01*
X128639658Y-114786358D01*
X128650992Y-114795264D01*
X128661877Y-114804694D01*
X128672296Y-114814627D01*
X128682230Y-114825046D01*
X128691659Y-114835932D01*
X128700566Y-114847265D01*
X128708930Y-114859027D01*
X128716734Y-114871199D01*
X128723958Y-114883762D01*
X128730583Y-114896698D01*
X128736591Y-114909987D01*
X128741963Y-114923610D01*
X128746680Y-114937550D01*
X128750722Y-114951786D01*
X128754072Y-114966300D01*
X128756711Y-114981074D01*
X128758619Y-114996088D01*
X128759777Y-115011323D01*
X128760168Y-115026762D01*
X128759777Y-115042200D01*
X128758619Y-115057435D01*
X128756711Y-115072449D01*
X128754072Y-115087222D01*
X128750722Y-115101737D01*
X128746680Y-115115973D01*
X128741963Y-115129912D01*
X128736591Y-115143535D01*
X128730583Y-115156824D01*
X128723958Y-115169759D01*
X128716734Y-115182322D01*
X128708930Y-115194494D01*
X128700566Y-115206256D01*
X128691659Y-115217588D01*
X128682230Y-115228474D01*
X128672296Y-115238892D01*
X128661877Y-115248825D01*
X128650992Y-115258254D01*
X128639658Y-115267160D01*
X128627896Y-115275524D01*
X128615724Y-115283327D01*
X128603161Y-115290550D01*
X128590225Y-115297175D01*
X128576936Y-115303182D01*
X128563313Y-115308554D01*
X128549374Y-115313270D01*
X128535138Y-115317313D01*
X128520624Y-115320662D01*
X128505851Y-115323300D01*
X128490837Y-115325208D01*
X128475602Y-115326367D01*
X128460165Y-115326757D01*
X128444727Y-115326367D01*
X128429492Y-115325208D01*
X128414479Y-115323300D01*
X128399706Y-115320662D01*
X128385193Y-115317313D01*
X128370957Y-115313270D01*
X128357018Y-115308554D01*
X128343395Y-115303182D01*
X128330107Y-115297175D01*
X128317172Y-115290550D01*
X128304610Y-115283327D01*
X128292438Y-115275524D01*
X128280677Y-115267160D01*
X128269344Y-115258254D01*
X128258459Y-115248825D01*
X128248041Y-115238892D01*
X128238108Y-115228474D01*
X128228679Y-115217588D01*
X128219774Y-115206256D01*
X128211410Y-115194494D01*
X128203607Y-115182322D01*
X128196384Y-115169759D01*
X128189759Y-115156824D01*
X128183751Y-115143535D01*
X128178380Y-115129912D01*
X128173664Y-115115973D01*
X128169621Y-115101737D01*
X128166272Y-115087222D01*
X128163633Y-115072449D01*
X128161726Y-115057435D01*
X128160567Y-115042200D01*
X128160177Y-115026762D01*
X128160567Y-115011323D01*
X128161726Y-114996088D01*
X128163633Y-114981074D01*
X128166272Y-114966300D01*
X128169621Y-114951786D01*
X128173664Y-114937550D01*
X128178380Y-114923610D01*
X128183751Y-114909987D01*
X128189759Y-114896698D01*
X128196384Y-114883762D01*
X128203607Y-114871199D01*
X128211410Y-114859027D01*
X128219774Y-114847265D01*
X128228679Y-114835932D01*
X128238108Y-114825046D01*
X128248041Y-114814627D01*
X128258459Y-114804694D01*
X128269344Y-114795264D01*
X128280677Y-114786358D01*
X128292438Y-114777994D01*
X128304610Y-114770191D01*
X128317172Y-114762967D01*
X128330107Y-114756342D01*
X128343395Y-114750334D01*
X128357018Y-114744963D01*
X128370957Y-114740246D01*
X128385193Y-114736203D01*
X128399706Y-114732853D01*
X128414479Y-114730215D01*
X128429492Y-114728307D01*
X128444727Y-114727149D01*
X128460165Y-114726758D01*
X128475602Y-114727149D01*
G37*
G36*
X132722003Y-116632860D02*
G01*
X132729621Y-116633440D01*
X132737127Y-116634393D01*
X132744514Y-116635712D01*
X132751771Y-116637387D01*
X132758888Y-116639409D01*
X132765858Y-116641767D01*
X132772669Y-116644452D01*
X132779313Y-116647456D01*
X132785781Y-116650768D01*
X132792062Y-116654380D01*
X132798148Y-116658282D01*
X132804029Y-116662463D01*
X132809695Y-116666916D01*
X132815137Y-116671631D01*
X132820347Y-116676597D01*
X132825313Y-116681806D01*
X132830027Y-116687249D01*
X132834480Y-116692915D01*
X132838662Y-116698796D01*
X132842564Y-116704881D01*
X132846175Y-116711163D01*
X132849488Y-116717630D01*
X132852491Y-116724274D01*
X132855177Y-116731086D01*
X132857535Y-116738055D01*
X132859556Y-116745173D01*
X132861231Y-116752430D01*
X132862550Y-116759816D01*
X132863504Y-116767323D01*
X132864083Y-116774940D01*
X132864278Y-116782659D01*
X132864083Y-116790378D01*
X132863504Y-116797995D01*
X132862550Y-116805502D01*
X132861231Y-116812889D01*
X132859556Y-116820146D01*
X132857535Y-116827264D01*
X132855177Y-116834233D01*
X132852491Y-116841045D01*
X132849488Y-116847689D01*
X132846175Y-116854157D01*
X132842564Y-116860439D01*
X132838662Y-116866525D01*
X132834480Y-116872406D01*
X132830027Y-116878072D01*
X132825313Y-116883515D01*
X132820347Y-116888725D01*
X132815137Y-116893692D01*
X132809695Y-116898406D01*
X132804029Y-116902860D01*
X132798148Y-116907042D01*
X132792062Y-116910944D01*
X132785781Y-116914555D01*
X132779313Y-116917868D01*
X132772669Y-116920872D01*
X132765858Y-116923558D01*
X132758888Y-116925917D01*
X132751771Y-116927938D01*
X132744514Y-116929613D01*
X132737127Y-116930932D01*
X132729621Y-116931886D01*
X132722003Y-116932465D01*
X132714285Y-116932661D01*
X132706564Y-116932465D01*
X132698946Y-116931886D01*
X132691438Y-116930932D01*
X132684050Y-116929613D01*
X132676792Y-116927938D01*
X132669674Y-116925917D01*
X132662703Y-116923558D01*
X132655891Y-116920872D01*
X132649246Y-116917868D01*
X132642778Y-116914555D01*
X132636496Y-116910944D01*
X132630410Y-116907042D01*
X132624529Y-116902860D01*
X132618862Y-116898406D01*
X132613419Y-116893692D01*
X132608209Y-116888725D01*
X132603242Y-116883515D01*
X132598528Y-116878072D01*
X132594075Y-116872406D01*
X132589893Y-116866525D01*
X132585991Y-116860439D01*
X132582379Y-116854157D01*
X132579067Y-116847689D01*
X132576063Y-116841045D01*
X132573377Y-116834233D01*
X132571019Y-116827264D01*
X132568998Y-116820146D01*
X132567323Y-116812889D01*
X132566004Y-116805502D01*
X132565050Y-116797995D01*
X132564471Y-116790378D01*
X132564275Y-116782659D01*
X132564471Y-116774940D01*
X132565050Y-116767323D01*
X132566004Y-116759816D01*
X132567323Y-116752430D01*
X132568998Y-116745173D01*
X132571019Y-116738055D01*
X132573377Y-116731086D01*
X132576063Y-116724274D01*
X132579067Y-116717630D01*
X132582379Y-116711163D01*
X132585991Y-116704881D01*
X132589893Y-116698796D01*
X132594075Y-116692915D01*
X132598528Y-116687249D01*
X132603242Y-116681806D01*
X132608209Y-116676597D01*
X132613419Y-116671631D01*
X132618862Y-116666916D01*
X132624529Y-116662463D01*
X132630410Y-116658282D01*
X132636496Y-116654380D01*
X132642778Y-116650768D01*
X132649246Y-116647456D01*
X132655891Y-116644452D01*
X132662703Y-116641767D01*
X132669674Y-116639409D01*
X132676792Y-116637387D01*
X132684050Y-116635712D01*
X132691438Y-116634393D01*
X132698946Y-116633440D01*
X132706564Y-116632860D01*
X132714285Y-116632665D01*
X132722003Y-116632860D01*
G37*
G36*
X129016718Y-115148985D02*
G01*
X129021797Y-115149371D01*
X129026803Y-115150007D01*
X129031728Y-115150886D01*
X129036566Y-115152003D01*
X129041312Y-115153350D01*
X129045959Y-115154922D01*
X129050501Y-115156713D01*
X129054931Y-115158715D01*
X129059243Y-115160924D01*
X129063431Y-115163331D01*
X129067488Y-115165932D01*
X129071409Y-115168720D01*
X129075187Y-115171689D01*
X129078815Y-115174832D01*
X129082288Y-115178143D01*
X129085600Y-115181616D01*
X129088743Y-115185244D01*
X129091711Y-115189022D01*
X129094500Y-115192942D01*
X129097101Y-115197000D01*
X129099508Y-115201187D01*
X129101717Y-115205499D01*
X129103719Y-115209929D01*
X129105510Y-115214470D01*
X129107082Y-115219116D01*
X129108430Y-115223862D01*
X129109546Y-115228700D01*
X129110426Y-115233624D01*
X129111061Y-115238629D01*
X129111448Y-115243707D01*
X129111578Y-115248853D01*
X129111448Y-115254000D01*
X129111061Y-115259079D01*
X129110426Y-115264084D01*
X129109546Y-115269009D01*
X129108430Y-115273847D01*
X129107082Y-115278593D01*
X129105510Y-115283240D01*
X129103719Y-115287781D01*
X129101717Y-115292211D01*
X129099508Y-115296522D01*
X129097101Y-115300710D01*
X129094500Y-115304767D01*
X129091711Y-115308688D01*
X129088743Y-115312465D01*
X129085600Y-115316094D01*
X129082288Y-115319566D01*
X129078815Y-115322877D01*
X129075187Y-115326020D01*
X129071409Y-115328988D01*
X129067488Y-115331776D01*
X129063431Y-115334377D01*
X129059243Y-115336784D01*
X129054931Y-115338992D01*
X129050501Y-115340995D01*
X129045959Y-115342785D01*
X129041312Y-115344357D01*
X129036566Y-115345704D01*
X129031728Y-115346820D01*
X129026803Y-115347700D01*
X129021797Y-115348336D01*
X129016718Y-115348722D01*
X129011572Y-115348852D01*
X129006426Y-115348722D01*
X129001348Y-115348336D01*
X128996344Y-115347700D01*
X128991420Y-115346820D01*
X128986583Y-115345704D01*
X128981838Y-115344357D01*
X128977192Y-115342785D01*
X128972651Y-115340995D01*
X128968222Y-115338992D01*
X128963911Y-115336784D01*
X128959724Y-115334377D01*
X128955667Y-115331776D01*
X128951746Y-115328988D01*
X128947969Y-115326020D01*
X128944341Y-115322877D01*
X128940868Y-115319566D01*
X128937557Y-115316094D01*
X128934414Y-115312465D01*
X128931446Y-115308688D01*
X128928658Y-115304767D01*
X128926057Y-115300710D01*
X128923649Y-115296522D01*
X128921441Y-115292211D01*
X128919439Y-115287781D01*
X128917648Y-115283240D01*
X128916076Y-115278593D01*
X128914729Y-115273847D01*
X128913612Y-115269009D01*
X128912733Y-115264084D01*
X128912097Y-115259079D01*
X128911711Y-115254000D01*
X128911581Y-115248853D01*
X128911711Y-115243707D01*
X128912097Y-115238629D01*
X128912733Y-115233624D01*
X128913612Y-115228700D01*
X128914729Y-115223862D01*
X128916076Y-115219116D01*
X128917648Y-115214470D01*
X128919439Y-115209929D01*
X128921441Y-115205499D01*
X128923649Y-115201187D01*
X128926057Y-115197000D01*
X128928658Y-115192942D01*
X128931446Y-115189022D01*
X128934414Y-115185244D01*
X128937557Y-115181616D01*
X128940868Y-115178143D01*
X128944341Y-115174832D01*
X128947969Y-115171689D01*
X128951746Y-115168720D01*
X128955667Y-115165932D01*
X128959724Y-115163331D01*
X128963911Y-115160924D01*
X128968222Y-115158715D01*
X128972651Y-115156713D01*
X128977192Y-115154922D01*
X128981838Y-115153350D01*
X128986583Y-115152003D01*
X128991420Y-115150886D01*
X128996344Y-115150007D01*
X129001348Y-115149371D01*
X129006426Y-115148985D01*
X129011572Y-115148855D01*
X129016718Y-115148985D01*
G37*
G36*
X132722003Y-123521052D02*
G01*
X132729621Y-123521631D01*
X132737127Y-123522585D01*
X132744514Y-123523904D01*
X132751771Y-123525579D01*
X132758888Y-123527600D01*
X132765858Y-123529958D01*
X132772669Y-123532644D01*
X132779313Y-123535647D01*
X132785781Y-123538960D01*
X132792062Y-123542571D01*
X132798148Y-123546473D01*
X132804029Y-123550655D01*
X132809695Y-123555108D01*
X132815137Y-123559822D01*
X132820347Y-123564788D01*
X132825313Y-123569998D01*
X132830027Y-123575440D01*
X132834480Y-123581106D01*
X132838662Y-123586987D01*
X132842564Y-123593073D01*
X132846175Y-123599354D01*
X132849488Y-123605821D01*
X132852491Y-123612466D01*
X132855177Y-123619277D01*
X132857535Y-123626246D01*
X132859556Y-123633364D01*
X132861231Y-123640621D01*
X132862550Y-123648008D01*
X132863504Y-123655514D01*
X132864083Y-123663132D01*
X132864278Y-123670850D01*
X132864083Y-123678569D01*
X132863504Y-123686186D01*
X132862550Y-123693693D01*
X132861231Y-123701080D01*
X132859556Y-123708337D01*
X132857535Y-123715455D01*
X132855177Y-123722424D01*
X132852491Y-123729236D01*
X132849488Y-123735881D01*
X132846175Y-123742348D01*
X132842564Y-123748630D01*
X132838662Y-123754716D01*
X132834480Y-123760597D01*
X132830027Y-123766264D01*
X132825313Y-123771706D01*
X132820347Y-123776916D01*
X132815137Y-123781883D01*
X132809695Y-123786598D01*
X132804029Y-123791051D01*
X132798148Y-123795233D01*
X132792062Y-123799135D01*
X132785781Y-123802747D01*
X132779313Y-123806059D01*
X132772669Y-123809063D01*
X132765858Y-123811749D01*
X132758888Y-123814108D01*
X132751771Y-123816129D01*
X132744514Y-123817804D01*
X132737127Y-123819123D01*
X132729621Y-123820077D01*
X132722003Y-123820657D01*
X132714285Y-123820852D01*
X132706564Y-123820657D01*
X132698946Y-123820077D01*
X132691438Y-123819123D01*
X132684050Y-123817804D01*
X132676792Y-123816129D01*
X132669674Y-123814108D01*
X132662703Y-123811749D01*
X132655891Y-123809063D01*
X132649246Y-123806059D01*
X132642778Y-123802747D01*
X132636496Y-123799135D01*
X132630410Y-123795233D01*
X132624529Y-123791051D01*
X132618862Y-123786598D01*
X132613419Y-123781883D01*
X132608209Y-123776916D01*
X132603242Y-123771706D01*
X132598528Y-123766264D01*
X132594075Y-123760597D01*
X132589893Y-123754716D01*
X132585991Y-123748630D01*
X132582379Y-123742348D01*
X132579067Y-123735881D01*
X132576063Y-123729236D01*
X132573377Y-123722424D01*
X132571019Y-123715455D01*
X132568998Y-123708337D01*
X132567323Y-123701080D01*
X132566004Y-123693693D01*
X132565050Y-123686186D01*
X132564471Y-123678569D01*
X132564275Y-123670850D01*
X132564471Y-123663132D01*
X132565050Y-123655514D01*
X132566004Y-123648008D01*
X132567323Y-123640621D01*
X132568998Y-123633364D01*
X132571019Y-123626246D01*
X132573377Y-123619277D01*
X132576063Y-123612466D01*
X132579067Y-123605821D01*
X132582379Y-123599354D01*
X132585991Y-123593073D01*
X132589893Y-123586987D01*
X132594075Y-123581106D01*
X132598528Y-123575440D01*
X132603242Y-123569998D01*
X132608209Y-123564788D01*
X132613419Y-123559822D01*
X132618862Y-123555108D01*
X132624529Y-123550655D01*
X132630410Y-123546473D01*
X132636496Y-123542571D01*
X132642778Y-123538960D01*
X132649246Y-123535647D01*
X132655891Y-123532644D01*
X132662703Y-123529958D01*
X132669674Y-123527600D01*
X132676792Y-123525579D01*
X132684050Y-123523904D01*
X132691438Y-123522585D01*
X132698946Y-123521631D01*
X132706564Y-123521052D01*
X132714285Y-123520856D01*
X132722003Y-123521052D01*
G37*
G36*
X137592807Y-128391848D02*
G01*
X137600425Y-128392427D01*
X137607931Y-128393381D01*
X137615318Y-128394700D01*
X137622574Y-128396375D01*
X137629692Y-128398397D01*
X137636662Y-128400755D01*
X137643473Y-128403441D01*
X137650117Y-128406445D01*
X137656585Y-128409758D01*
X137662866Y-128413370D01*
X137668952Y-128417271D01*
X137674832Y-128421454D01*
X137680499Y-128425907D01*
X137685941Y-128430622D01*
X137691150Y-128435588D01*
X137696117Y-128440798D01*
X137700831Y-128446241D01*
X137705284Y-128451907D01*
X137709466Y-128457788D01*
X137713367Y-128463874D01*
X137716979Y-128470156D01*
X137720291Y-128476624D01*
X137723295Y-128483268D01*
X137725981Y-128490080D01*
X137728339Y-128497050D01*
X137730360Y-128504168D01*
X137732035Y-128511425D01*
X137733354Y-128518811D01*
X137734308Y-128526318D01*
X137734887Y-128533935D01*
X137735082Y-128541654D01*
X137734887Y-128549373D01*
X137734308Y-128556990D01*
X137733354Y-128564497D01*
X137732035Y-128571884D01*
X137730360Y-128579141D01*
X137728339Y-128586259D01*
X137725981Y-128593228D01*
X137723295Y-128600040D01*
X137720291Y-128606684D01*
X137716979Y-128613152D01*
X137713367Y-128619434D01*
X137709466Y-128625520D01*
X137705284Y-128631401D01*
X137700831Y-128637068D01*
X137696117Y-128642510D01*
X137691150Y-128647720D01*
X137685941Y-128652687D01*
X137680499Y-128657401D01*
X137674832Y-128661855D01*
X137668952Y-128666037D01*
X137662866Y-128669939D01*
X137656585Y-128673551D01*
X137650117Y-128676863D01*
X137643473Y-128679867D01*
X137636662Y-128682553D01*
X137629692Y-128684912D01*
X137622574Y-128686933D01*
X137615318Y-128688608D01*
X137607931Y-128689927D01*
X137600425Y-128690881D01*
X137592807Y-128691460D01*
X137585088Y-128691656D01*
X137577368Y-128691460D01*
X137569750Y-128690881D01*
X137562242Y-128689927D01*
X137554854Y-128688608D01*
X137547596Y-128686933D01*
X137540478Y-128684912D01*
X137533507Y-128682553D01*
X137526695Y-128679867D01*
X137520050Y-128676863D01*
X137513582Y-128673551D01*
X137507300Y-128669939D01*
X137501214Y-128666037D01*
X137495332Y-128661855D01*
X137489666Y-128657401D01*
X137484223Y-128652687D01*
X137479013Y-128647720D01*
X137474046Y-128642510D01*
X137469332Y-128637068D01*
X137464879Y-128631401D01*
X137460697Y-128625520D01*
X137456795Y-128619434D01*
X137453183Y-128613152D01*
X137449871Y-128606684D01*
X137446867Y-128600040D01*
X137444181Y-128593228D01*
X137441823Y-128586259D01*
X137439801Y-128579141D01*
X137438127Y-128571884D01*
X137436808Y-128564497D01*
X137435854Y-128556990D01*
X137435274Y-128549373D01*
X137435079Y-128541654D01*
X137435274Y-128533935D01*
X137435854Y-128526318D01*
X137436808Y-128518811D01*
X137438127Y-128511425D01*
X137439801Y-128504168D01*
X137441823Y-128497050D01*
X137444181Y-128490080D01*
X137446867Y-128483268D01*
X137449871Y-128476624D01*
X137453183Y-128470156D01*
X137456795Y-128463874D01*
X137460697Y-128457788D01*
X137464879Y-128451907D01*
X137469332Y-128446241D01*
X137474046Y-128440798D01*
X137479013Y-128435588D01*
X137484223Y-128430622D01*
X137489666Y-128425907D01*
X137495332Y-128421454D01*
X137501214Y-128417271D01*
X137507300Y-128413370D01*
X137513582Y-128409758D01*
X137520050Y-128406445D01*
X137526695Y-128403441D01*
X137533507Y-128400755D01*
X137540478Y-128398397D01*
X137547596Y-128396375D01*
X137554854Y-128394700D01*
X137562242Y-128393381D01*
X137569750Y-128392427D01*
X137577368Y-128391848D01*
X137585088Y-128391653D01*
X137592807Y-128391848D01*
G37*
G36*
X136056513Y-132144484D02*
G01*
X136061592Y-132144870D01*
X136066598Y-132145506D01*
X136071523Y-132146385D01*
X136076361Y-132147502D01*
X136081107Y-132148849D01*
X136085754Y-132150421D01*
X136090295Y-132152212D01*
X136094725Y-132154214D01*
X136099038Y-132156423D01*
X136103226Y-132158830D01*
X136107283Y-132161432D01*
X136111204Y-132164220D01*
X136114982Y-132167188D01*
X136118610Y-132170331D01*
X136122083Y-132173643D01*
X136125395Y-132177116D01*
X136128538Y-132180744D01*
X136131506Y-132184522D01*
X136134294Y-132188443D01*
X136136896Y-132192500D01*
X136139303Y-132196688D01*
X136141512Y-132201001D01*
X136143514Y-132205431D01*
X136145305Y-132209972D01*
X136146877Y-132214619D01*
X136148224Y-132219365D01*
X136149341Y-132224203D01*
X136150220Y-132229128D01*
X136150856Y-132234134D01*
X136151242Y-132239213D01*
X136151373Y-132244360D01*
X136151242Y-132249506D01*
X136150856Y-132254584D01*
X136150220Y-132259589D01*
X136149341Y-132264513D01*
X136148224Y-132269351D01*
X136146877Y-132274097D01*
X136145305Y-132278743D01*
X136143514Y-132283284D01*
X136141512Y-132287714D01*
X136139303Y-132292025D01*
X136136896Y-132296213D01*
X136134294Y-132300270D01*
X136131506Y-132304191D01*
X136128538Y-132307968D01*
X136125395Y-132311597D01*
X136122083Y-132315070D01*
X136118610Y-132318381D01*
X136114982Y-132321524D01*
X136111204Y-132324492D01*
X136107283Y-132327280D01*
X136103226Y-132329881D01*
X136099038Y-132332289D01*
X136094725Y-132334497D01*
X136090295Y-132336500D01*
X136085754Y-132338290D01*
X136081107Y-132339862D01*
X136076361Y-132341210D01*
X136071523Y-132342326D01*
X136066598Y-132343206D01*
X136061592Y-132343842D01*
X136056513Y-132344228D01*
X136051366Y-132344358D01*
X136046220Y-132344228D01*
X136041141Y-132343842D01*
X136036136Y-132343206D01*
X136031211Y-132342326D01*
X136026373Y-132341210D01*
X136021627Y-132339862D01*
X136016981Y-132338290D01*
X136012440Y-132336500D01*
X136008010Y-132334497D01*
X136003699Y-132332289D01*
X135999512Y-132329881D01*
X135995455Y-132327280D01*
X135991535Y-132324492D01*
X135987757Y-132321524D01*
X135984130Y-132318381D01*
X135980657Y-132315070D01*
X135977347Y-132311597D01*
X135974204Y-132307968D01*
X135971236Y-132304191D01*
X135968449Y-132300270D01*
X135965849Y-132296213D01*
X135963441Y-132292025D01*
X135961234Y-132287714D01*
X135959232Y-132283284D01*
X135957442Y-132278743D01*
X135955870Y-132274097D01*
X135954523Y-132269351D01*
X135953407Y-132264513D01*
X135952527Y-132259589D01*
X135951892Y-132254584D01*
X135951506Y-132249506D01*
X135951376Y-132244360D01*
X135951506Y-132239213D01*
X135951892Y-132234134D01*
X135952527Y-132229128D01*
X135953407Y-132224203D01*
X135954523Y-132219365D01*
X135955870Y-132214619D01*
X135957442Y-132209972D01*
X135959232Y-132205431D01*
X135961234Y-132201001D01*
X135963441Y-132196688D01*
X135965849Y-132192500D01*
X135968449Y-132188443D01*
X135971236Y-132184522D01*
X135974204Y-132180744D01*
X135977347Y-132177116D01*
X135980657Y-132173643D01*
X135984130Y-132170331D01*
X135987757Y-132167188D01*
X135991535Y-132164220D01*
X135995455Y-132161432D01*
X135999512Y-132158830D01*
X136003699Y-132156423D01*
X136008010Y-132154214D01*
X136012440Y-132152212D01*
X136016981Y-132150421D01*
X136021627Y-132148849D01*
X136026373Y-132147502D01*
X136031211Y-132146385D01*
X136036136Y-132145506D01*
X136041141Y-132144870D01*
X136046220Y-132144484D01*
X136051366Y-132144353D01*
X136056513Y-132144484D01*
G37*
G36*
X151672816Y-123414793D02*
G01*
X151677895Y-123415179D01*
X151682900Y-123415815D01*
X151687825Y-123416694D01*
X151692664Y-123417811D01*
X151697410Y-123419158D01*
X151702056Y-123420731D01*
X151706598Y-123422521D01*
X151711028Y-123424524D01*
X151715340Y-123426732D01*
X151719528Y-123429140D01*
X151723586Y-123431741D01*
X151727506Y-123434529D01*
X151731284Y-123437497D01*
X151734913Y-123440640D01*
X151738386Y-123443951D01*
X151741697Y-123447424D01*
X151744840Y-123451052D01*
X151747809Y-123454830D01*
X151750597Y-123458751D01*
X151753198Y-123462808D01*
X151755606Y-123466995D01*
X151757814Y-123471307D01*
X151759817Y-123475737D01*
X151761607Y-123480278D01*
X151763179Y-123484924D01*
X151764527Y-123489670D01*
X151765644Y-123494508D01*
X151766523Y-123499432D01*
X151767159Y-123504437D01*
X151767545Y-123509515D01*
X151767675Y-123514661D01*
X151767545Y-123519807D01*
X151767159Y-123524886D01*
X151766523Y-123529890D01*
X151765644Y-123534815D01*
X151764527Y-123539653D01*
X151763179Y-123544398D01*
X151761607Y-123549045D01*
X151759817Y-123553586D01*
X151757814Y-123558015D01*
X151755606Y-123562327D01*
X151753198Y-123566515D01*
X151750597Y-123570572D01*
X151747809Y-123574493D01*
X151744840Y-123578270D01*
X151741697Y-123581899D01*
X151738386Y-123585372D01*
X151734913Y-123588683D01*
X151731284Y-123591826D01*
X151727506Y-123594794D01*
X151723586Y-123597582D01*
X151719528Y-123600183D01*
X151715340Y-123602591D01*
X151711028Y-123604799D01*
X151706598Y-123606802D01*
X151702056Y-123608592D01*
X151697410Y-123610164D01*
X151692664Y-123611512D01*
X151687825Y-123612628D01*
X151682900Y-123613508D01*
X151677895Y-123614144D01*
X151672816Y-123614530D01*
X151667669Y-123614660D01*
X151662522Y-123614530D01*
X151657443Y-123614144D01*
X151652438Y-123613508D01*
X151647513Y-123612628D01*
X151642675Y-123611512D01*
X151637930Y-123610164D01*
X151633283Y-123608592D01*
X151628742Y-123606802D01*
X151624313Y-123604799D01*
X151620001Y-123602591D01*
X151615814Y-123600183D01*
X151611757Y-123597582D01*
X151607837Y-123594794D01*
X151604060Y-123591826D01*
X151600432Y-123588683D01*
X151596960Y-123585372D01*
X151593649Y-123581899D01*
X151590507Y-123578270D01*
X151587539Y-123574493D01*
X151584751Y-123570572D01*
X151582151Y-123566515D01*
X151579744Y-123562327D01*
X151577536Y-123558015D01*
X151575534Y-123553586D01*
X151573744Y-123549045D01*
X151572172Y-123544398D01*
X151570825Y-123539653D01*
X151569709Y-123534815D01*
X151568830Y-123529890D01*
X151568194Y-123524886D01*
X151567808Y-123519807D01*
X151567678Y-123514661D01*
X151567808Y-123509515D01*
X151568194Y-123504437D01*
X151568830Y-123499432D01*
X151569709Y-123494508D01*
X151570825Y-123489670D01*
X151572172Y-123484924D01*
X151573744Y-123480278D01*
X151575534Y-123475737D01*
X151577536Y-123471307D01*
X151579744Y-123466995D01*
X151582151Y-123462808D01*
X151584751Y-123458751D01*
X151587539Y-123454830D01*
X151590507Y-123451052D01*
X151593649Y-123447424D01*
X151596960Y-123443951D01*
X151600432Y-123440640D01*
X151604060Y-123437497D01*
X151607837Y-123434529D01*
X151611757Y-123431741D01*
X151615814Y-123429140D01*
X151620001Y-123426732D01*
X151624313Y-123424524D01*
X151628742Y-123422521D01*
X151633283Y-123420731D01*
X151637930Y-123419158D01*
X151642675Y-123417811D01*
X151647513Y-123416694D01*
X151652438Y-123415815D01*
X151657443Y-123415179D01*
X151662522Y-123414793D01*
X151667669Y-123414663D01*
X151672816Y-123414793D01*
G37*
G36*
X132729722Y-116483054D02*
G01*
X132744957Y-116484212D01*
X132759970Y-116486120D01*
X132774744Y-116488758D01*
X132789258Y-116492108D01*
X132803494Y-116496150D01*
X132817433Y-116500867D01*
X132831056Y-116506238D01*
X132844345Y-116512246D01*
X132857281Y-116518871D01*
X132869844Y-116526094D01*
X132882016Y-116533897D01*
X132893778Y-116542261D01*
X132905111Y-116551167D01*
X132915997Y-116560595D01*
X132926416Y-116570529D01*
X132936350Y-116580947D01*
X132945779Y-116591832D01*
X132954686Y-116603165D01*
X132963050Y-116614927D01*
X132970854Y-116627098D01*
X132978077Y-116639661D01*
X132984703Y-116652597D01*
X132990711Y-116665885D01*
X132996083Y-116679509D01*
X133000799Y-116693448D01*
X133004842Y-116707684D01*
X133008192Y-116722198D01*
X133010831Y-116736972D01*
X133012739Y-116751986D01*
X133013897Y-116767221D01*
X133014288Y-116782659D01*
X133013897Y-116798097D01*
X133012739Y-116813333D01*
X133010831Y-116828347D01*
X133008192Y-116843120D01*
X133004842Y-116857635D01*
X133000799Y-116871871D01*
X132996083Y-116885810D01*
X132990711Y-116899434D01*
X132984703Y-116912723D01*
X132978077Y-116925659D01*
X132970854Y-116938222D01*
X132963050Y-116950394D01*
X132954686Y-116962156D01*
X132945779Y-116973489D01*
X132936350Y-116984375D01*
X132926416Y-116994793D01*
X132915997Y-117004727D01*
X132905111Y-117014156D01*
X132893778Y-117023062D01*
X132882016Y-117031426D01*
X132869844Y-117039230D01*
X132857281Y-117046453D01*
X132844345Y-117053079D01*
X132831056Y-117059086D01*
X132817433Y-117064458D01*
X132803494Y-117069175D01*
X132789258Y-117073217D01*
X132774744Y-117076567D01*
X132759970Y-117079205D01*
X132744957Y-117081113D01*
X132729722Y-117082272D01*
X132714285Y-117082662D01*
X132698847Y-117082272D01*
X132683612Y-117081113D01*
X132668599Y-117079205D01*
X132653826Y-117076567D01*
X132639312Y-117073217D01*
X132625076Y-117069175D01*
X132611136Y-117064458D01*
X132597513Y-117059086D01*
X132584224Y-117053079D01*
X132571288Y-117046453D01*
X132558725Y-117039230D01*
X132546553Y-117031426D01*
X132534791Y-117023062D01*
X132523458Y-117014156D01*
X132512572Y-117004727D01*
X132502153Y-116994793D01*
X132492219Y-116984375D01*
X132482790Y-116973489D01*
X132473884Y-116962156D01*
X132465519Y-116950394D01*
X132457716Y-116938222D01*
X132450492Y-116925659D01*
X132443866Y-116912723D01*
X132437858Y-116899434D01*
X132432486Y-116885810D01*
X132427770Y-116871871D01*
X132423727Y-116857635D01*
X132420377Y-116843120D01*
X132417738Y-116828347D01*
X132415830Y-116813333D01*
X132414672Y-116798097D01*
X132414282Y-116782659D01*
X132414672Y-116767221D01*
X132415830Y-116751986D01*
X132417738Y-116736972D01*
X132420377Y-116722198D01*
X132423727Y-116707684D01*
X132427770Y-116693448D01*
X132432486Y-116679509D01*
X132437858Y-116665885D01*
X132443866Y-116652597D01*
X132450492Y-116639661D01*
X132457716Y-116627098D01*
X132465519Y-116614927D01*
X132473884Y-116603165D01*
X132482790Y-116591832D01*
X132492219Y-116580947D01*
X132502153Y-116570529D01*
X132512572Y-116560595D01*
X132523458Y-116551167D01*
X132534791Y-116542261D01*
X132546553Y-116533897D01*
X132558725Y-116526094D01*
X132571288Y-116518871D01*
X132584224Y-116512246D01*
X132597513Y-116506238D01*
X132611136Y-116500867D01*
X132625076Y-116496150D01*
X132639312Y-116492108D01*
X132653826Y-116488758D01*
X132668599Y-116486120D01*
X132683612Y-116484212D01*
X132698847Y-116483054D01*
X132714285Y-116482664D01*
X132729722Y-116483054D01*
G37*
G36*
X128161524Y-115444891D02*
G01*
X128166603Y-115445277D01*
X128171609Y-115445913D01*
X128176534Y-115446792D01*
X128181372Y-115447909D01*
X128186118Y-115449256D01*
X128190765Y-115450829D01*
X128195306Y-115452619D01*
X128199736Y-115454621D01*
X128204049Y-115456830D01*
X128208236Y-115459238D01*
X128212294Y-115461839D01*
X128216215Y-115464627D01*
X128219993Y-115467595D01*
X128223621Y-115470738D01*
X128227094Y-115474049D01*
X128230406Y-115477522D01*
X128233549Y-115481150D01*
X128236517Y-115484928D01*
X128239305Y-115488849D01*
X128241907Y-115492906D01*
X128244314Y-115497093D01*
X128246523Y-115501405D01*
X128248525Y-115505835D01*
X128250316Y-115510376D01*
X128251888Y-115515022D01*
X128253235Y-115519768D01*
X128254352Y-115524606D01*
X128255231Y-115529530D01*
X128255867Y-115534535D01*
X128256253Y-115539613D01*
X128256384Y-115544759D01*
X128256253Y-115549905D01*
X128255867Y-115554984D01*
X128255231Y-115559988D01*
X128254352Y-115564913D01*
X128253235Y-115569751D01*
X128251888Y-115574496D01*
X128250316Y-115579143D01*
X128248525Y-115583684D01*
X128246523Y-115588113D01*
X128244314Y-115592425D01*
X128241907Y-115596613D01*
X128239305Y-115600670D01*
X128236517Y-115604591D01*
X128233549Y-115608368D01*
X128230406Y-115611997D01*
X128227094Y-115615469D01*
X128223621Y-115618781D01*
X128219993Y-115621923D01*
X128216215Y-115624892D01*
X128212294Y-115627680D01*
X128208236Y-115630281D01*
X128204049Y-115632689D01*
X128199736Y-115634897D01*
X128195306Y-115636900D01*
X128190765Y-115638690D01*
X128186118Y-115640262D01*
X128181372Y-115641610D01*
X128176534Y-115642726D01*
X128171609Y-115643606D01*
X128166603Y-115644241D01*
X128161524Y-115644628D01*
X128156377Y-115644758D01*
X128151231Y-115644628D01*
X128146152Y-115644241D01*
X128141146Y-115643606D01*
X128136221Y-115642726D01*
X128131383Y-115641610D01*
X128126637Y-115640262D01*
X128121990Y-115638690D01*
X128117448Y-115636900D01*
X128113019Y-115634897D01*
X128108706Y-115632689D01*
X128104518Y-115630281D01*
X128100461Y-115627680D01*
X128096540Y-115624892D01*
X128092762Y-115621923D01*
X128089134Y-115618781D01*
X128085661Y-115615469D01*
X128082349Y-115611997D01*
X128079206Y-115608368D01*
X128076238Y-115604591D01*
X128073450Y-115600670D01*
X128070848Y-115596613D01*
X128068441Y-115592425D01*
X128066232Y-115588113D01*
X128064230Y-115583684D01*
X128062439Y-115579143D01*
X128060867Y-115574496D01*
X128059520Y-115569751D01*
X128058403Y-115564913D01*
X128057524Y-115559988D01*
X128056888Y-115554984D01*
X128056501Y-115549905D01*
X128056371Y-115544759D01*
X128056501Y-115539613D01*
X128056888Y-115534535D01*
X128057524Y-115529530D01*
X128058403Y-115524606D01*
X128059520Y-115519768D01*
X128060867Y-115515022D01*
X128062439Y-115510376D01*
X128064230Y-115505835D01*
X128066232Y-115501405D01*
X128068441Y-115497093D01*
X128070848Y-115492906D01*
X128073450Y-115488849D01*
X128076238Y-115484928D01*
X128079206Y-115481150D01*
X128082349Y-115477522D01*
X128085661Y-115474049D01*
X128089134Y-115470738D01*
X128092762Y-115467595D01*
X128096540Y-115464627D01*
X128100461Y-115461839D01*
X128104518Y-115459238D01*
X128108706Y-115456830D01*
X128113019Y-115454621D01*
X128117448Y-115452619D01*
X128121990Y-115450829D01*
X128126637Y-115449256D01*
X128131383Y-115447909D01*
X128136221Y-115446792D01*
X128141146Y-115445913D01*
X128146152Y-115445277D01*
X128151231Y-115444891D01*
X128156377Y-115444761D01*
X128161524Y-115444891D01*
G37*
G36*
X137600526Y-128242041D02*
G01*
X137615761Y-128243200D01*
X137630774Y-128245108D01*
X137645547Y-128247746D01*
X137660060Y-128251096D01*
X137674296Y-128255139D01*
X137688235Y-128259855D01*
X137701858Y-128265227D01*
X137715146Y-128271235D01*
X137728081Y-128277860D01*
X137740644Y-128285083D01*
X137752815Y-128292887D01*
X137764576Y-128301251D01*
X137775909Y-128310157D01*
X137786794Y-128319586D01*
X137797212Y-128329520D01*
X137807145Y-128339939D01*
X137816574Y-128350824D01*
X137825480Y-128362157D01*
X137833843Y-128373919D01*
X137841646Y-128386091D01*
X137848870Y-128398655D01*
X137855494Y-128411590D01*
X137861502Y-128424879D01*
X137866873Y-128438503D01*
X137871589Y-128452442D01*
X137875632Y-128466679D01*
X137878982Y-128481193D01*
X137881620Y-128495967D01*
X137883527Y-128510980D01*
X137884686Y-128526216D01*
X137885076Y-128541654D01*
X137884686Y-128557092D01*
X137883527Y-128572328D01*
X137881620Y-128587342D01*
X137878982Y-128602115D01*
X137875632Y-128616629D01*
X137871589Y-128630865D01*
X137866873Y-128644804D01*
X137861502Y-128658428D01*
X137855494Y-128671717D01*
X137848870Y-128684652D01*
X137841646Y-128697215D01*
X137833843Y-128709386D01*
X137825480Y-128721148D01*
X137816574Y-128732481D01*
X137807145Y-128743366D01*
X137797212Y-128753785D01*
X137786794Y-128763718D01*
X137775909Y-128773147D01*
X137764576Y-128782052D01*
X137752815Y-128790416D01*
X137740644Y-128798219D01*
X137728081Y-128805443D01*
X137715146Y-128812068D01*
X137701858Y-128818075D01*
X137688235Y-128823446D01*
X137674296Y-128828163D01*
X137660060Y-128832205D01*
X137645547Y-128835555D01*
X137630774Y-128838193D01*
X137615761Y-128840101D01*
X137600526Y-128841259D01*
X137585088Y-128841650D01*
X137569651Y-128841259D01*
X137554416Y-128840101D01*
X137539403Y-128838193D01*
X137524629Y-128835555D01*
X137510115Y-128832205D01*
X137495879Y-128828163D01*
X137481940Y-128823446D01*
X137468317Y-128818075D01*
X137455028Y-128812068D01*
X137442092Y-128805443D01*
X137429529Y-128798219D01*
X137417357Y-128790416D01*
X137405595Y-128782052D01*
X137394262Y-128773147D01*
X137383376Y-128763718D01*
X137372957Y-128753785D01*
X137363023Y-128743366D01*
X137353594Y-128732481D01*
X137344687Y-128721148D01*
X137336323Y-128709386D01*
X137328519Y-128697215D01*
X137321296Y-128684652D01*
X137314670Y-128671717D01*
X137308662Y-128658428D01*
X137303290Y-128644804D01*
X137298574Y-128630865D01*
X137294531Y-128616629D01*
X137291181Y-128602115D01*
X137288542Y-128587342D01*
X137286634Y-128572328D01*
X137285476Y-128557092D01*
X137285085Y-128541654D01*
X137285476Y-128526216D01*
X137286634Y-128510980D01*
X137288542Y-128495967D01*
X137291181Y-128481193D01*
X137294531Y-128466679D01*
X137298574Y-128452442D01*
X137303290Y-128438503D01*
X137308662Y-128424879D01*
X137314670Y-128411590D01*
X137321296Y-128398655D01*
X137328519Y-128386091D01*
X137336323Y-128373919D01*
X137344687Y-128362157D01*
X137353594Y-128350824D01*
X137363023Y-128339939D01*
X137372957Y-128329520D01*
X137383376Y-128319586D01*
X137394262Y-128310157D01*
X137405595Y-128301251D01*
X137417357Y-128292887D01*
X137429529Y-128285083D01*
X137442092Y-128277860D01*
X137455028Y-128271235D01*
X137468317Y-128265227D01*
X137481940Y-128259855D01*
X137495879Y-128255139D01*
X137510115Y-128251096D01*
X137524629Y-128247746D01*
X137539403Y-128245108D01*
X137554416Y-128243200D01*
X137569651Y-128242041D01*
X137585088Y-128241651D01*
X137600526Y-128242041D01*
G37*
G36*
X150881829Y-125324583D02*
G01*
X150886907Y-125324969D01*
X150891911Y-125325605D01*
X150896835Y-125326484D01*
X150901673Y-125327601D01*
X150906417Y-125328948D01*
X150911063Y-125330521D01*
X150915604Y-125332311D01*
X150920033Y-125334314D01*
X150924345Y-125336522D01*
X150928532Y-125338930D01*
X150932589Y-125341531D01*
X150936509Y-125344319D01*
X150940287Y-125347287D01*
X150943915Y-125350430D01*
X150947387Y-125353741D01*
X150950698Y-125357214D01*
X150953841Y-125360842D01*
X150956810Y-125364620D01*
X150959597Y-125368541D01*
X150962198Y-125372598D01*
X150964606Y-125376785D01*
X150966814Y-125381097D01*
X150968817Y-125385527D01*
X150970607Y-125390068D01*
X150972179Y-125394714D01*
X150973527Y-125399460D01*
X150974643Y-125404298D01*
X150975523Y-125409222D01*
X150976158Y-125414227D01*
X150976545Y-125419305D01*
X150976675Y-125424451D01*
X150976545Y-125429598D01*
X150976158Y-125434677D01*
X150975523Y-125439682D01*
X150974643Y-125444607D01*
X150973527Y-125449446D01*
X150972179Y-125454191D01*
X150970607Y-125458838D01*
X150968817Y-125463379D01*
X150966814Y-125467809D01*
X150964606Y-125472121D01*
X150962198Y-125476308D01*
X150959597Y-125480365D01*
X150956810Y-125484286D01*
X150953841Y-125488063D01*
X150950698Y-125491692D01*
X150947387Y-125495164D01*
X150943915Y-125498475D01*
X150940287Y-125501618D01*
X150936509Y-125504586D01*
X150932589Y-125507374D01*
X150928532Y-125509975D01*
X150924345Y-125512382D01*
X150920033Y-125514590D01*
X150915604Y-125516593D01*
X150911063Y-125518383D01*
X150906417Y-125519955D01*
X150901673Y-125521302D01*
X150896835Y-125522419D01*
X150891911Y-125523298D01*
X150886907Y-125523934D01*
X150881829Y-125524320D01*
X150876684Y-125524450D01*
X150871537Y-125524320D01*
X150866458Y-125523934D01*
X150861453Y-125523298D01*
X150856528Y-125522419D01*
X150851689Y-125521302D01*
X150846943Y-125519955D01*
X150842296Y-125518383D01*
X150837755Y-125516593D01*
X150833325Y-125514590D01*
X150829013Y-125512382D01*
X150824825Y-125509975D01*
X150820767Y-125507374D01*
X150816846Y-125504586D01*
X150813069Y-125501618D01*
X150809440Y-125498475D01*
X150805967Y-125495164D01*
X150802656Y-125491692D01*
X150799513Y-125488063D01*
X150796544Y-125484286D01*
X150793756Y-125480365D01*
X150791155Y-125476308D01*
X150788747Y-125472121D01*
X150786539Y-125467809D01*
X150784536Y-125463379D01*
X150782746Y-125458838D01*
X150781173Y-125454191D01*
X150779826Y-125449446D01*
X150778709Y-125444607D01*
X150777830Y-125439682D01*
X150777194Y-125434677D01*
X150776808Y-125429598D01*
X150776678Y-125424451D01*
X150776808Y-125419305D01*
X150777194Y-125414227D01*
X150777830Y-125409222D01*
X150778709Y-125404298D01*
X150779826Y-125399460D01*
X150781173Y-125394714D01*
X150782746Y-125390068D01*
X150784536Y-125385527D01*
X150786539Y-125381097D01*
X150788747Y-125376785D01*
X150791155Y-125372598D01*
X150793756Y-125368541D01*
X150796544Y-125364620D01*
X150799513Y-125360842D01*
X150802656Y-125357214D01*
X150805967Y-125353741D01*
X150809440Y-125350430D01*
X150813069Y-125347287D01*
X150816846Y-125344319D01*
X150820767Y-125341531D01*
X150824825Y-125338930D01*
X150829013Y-125336522D01*
X150833325Y-125334314D01*
X150837755Y-125332311D01*
X150842296Y-125330521D01*
X150846943Y-125328948D01*
X150851689Y-125327601D01*
X150856528Y-125326484D01*
X150861453Y-125325605D01*
X150866458Y-125324969D01*
X150871537Y-125324583D01*
X150876684Y-125324453D01*
X150881829Y-125324583D01*
G37*
G36*
X132729722Y-123371245D02*
G01*
X132744957Y-123372404D01*
X132759970Y-123374311D01*
X132774744Y-123376950D01*
X132789258Y-123380299D01*
X132803494Y-123384342D01*
X132817433Y-123389058D01*
X132831056Y-123394429D01*
X132844345Y-123400437D01*
X132857281Y-123407062D01*
X132869844Y-123414285D01*
X132882016Y-123422088D01*
X132893778Y-123430452D01*
X132905111Y-123439358D01*
X132915997Y-123448787D01*
X132926416Y-123458720D01*
X132936350Y-123469138D01*
X132945779Y-123480023D01*
X132954686Y-123491356D01*
X132963050Y-123503118D01*
X132970854Y-123515290D01*
X132978077Y-123527853D01*
X132984703Y-123540788D01*
X132990711Y-123554077D01*
X132996083Y-123567700D01*
X133000799Y-123581639D01*
X133004842Y-123595875D01*
X133008192Y-123610389D01*
X133010831Y-123625163D01*
X133012739Y-123640177D01*
X133013897Y-123655412D01*
X133014288Y-123670850D01*
X133013897Y-123686288D01*
X133012739Y-123701524D01*
X133010831Y-123716538D01*
X133008192Y-123731311D01*
X133004842Y-123745826D01*
X133000799Y-123760062D01*
X132996083Y-123774002D01*
X132990711Y-123787625D01*
X132984703Y-123800914D01*
X132978077Y-123813850D01*
X132970854Y-123826413D01*
X132963050Y-123838585D01*
X132954686Y-123850347D01*
X132945779Y-123861680D01*
X132936350Y-123872566D01*
X132926416Y-123882985D01*
X132915997Y-123892918D01*
X132905111Y-123902347D01*
X132893778Y-123911253D01*
X132882016Y-123919618D01*
X132869844Y-123927421D01*
X132857281Y-123934645D01*
X132844345Y-123941270D01*
X132831056Y-123947278D01*
X132817433Y-123952649D01*
X132803494Y-123957366D01*
X132789258Y-123961408D01*
X132774744Y-123964758D01*
X132759970Y-123967397D01*
X132744957Y-123969304D01*
X132729722Y-123970463D01*
X132714285Y-123970853D01*
X132698847Y-123970463D01*
X132683612Y-123969304D01*
X132668599Y-123967397D01*
X132653826Y-123964758D01*
X132639312Y-123961408D01*
X132625076Y-123957366D01*
X132611136Y-123952649D01*
X132597513Y-123947278D01*
X132584224Y-123941270D01*
X132571288Y-123934645D01*
X132558725Y-123927421D01*
X132546553Y-123919618D01*
X132534791Y-123911253D01*
X132523458Y-123902347D01*
X132512572Y-123892918D01*
X132502153Y-123882985D01*
X132492219Y-123872566D01*
X132482790Y-123861680D01*
X132473884Y-123850347D01*
X132465519Y-123838585D01*
X132457716Y-123826413D01*
X132450492Y-123813850D01*
X132443866Y-123800914D01*
X132437858Y-123787625D01*
X132432486Y-123774002D01*
X132427770Y-123760062D01*
X132423727Y-123745826D01*
X132420377Y-123731311D01*
X132417738Y-123716538D01*
X132415830Y-123701524D01*
X132414672Y-123686288D01*
X132414282Y-123670850D01*
X132414672Y-123655412D01*
X132415830Y-123640177D01*
X132417738Y-123625163D01*
X132420377Y-123610389D01*
X132423727Y-123595875D01*
X132427770Y-123581639D01*
X132432486Y-123567700D01*
X132437858Y-123554077D01*
X132443866Y-123540788D01*
X132450492Y-123527853D01*
X132457716Y-123515290D01*
X132465519Y-123503118D01*
X132473884Y-123491356D01*
X132482790Y-123480023D01*
X132492219Y-123469138D01*
X132502153Y-123458720D01*
X132512572Y-123448787D01*
X132523458Y-123439358D01*
X132534791Y-123430452D01*
X132546553Y-123422088D01*
X132558725Y-123414285D01*
X132571288Y-123407062D01*
X132584224Y-123400437D01*
X132597513Y-123394429D01*
X132611136Y-123389058D01*
X132625076Y-123384342D01*
X132639312Y-123380299D01*
X132653826Y-123376950D01*
X132668599Y-123374311D01*
X132683612Y-123372404D01*
X132698847Y-123371245D01*
X132714285Y-123370855D01*
X132729722Y-123371245D01*
G37*
G36*
X144322228Y-109488394D02*
G01*
X144327306Y-109488780D01*
X144332310Y-109489416D01*
X144337234Y-109490295D01*
X144342072Y-109491412D01*
X144346817Y-109492759D01*
X144351463Y-109494331D01*
X144356003Y-109496122D01*
X144360432Y-109498124D01*
X144364744Y-109500333D01*
X144368931Y-109502740D01*
X144372988Y-109505341D01*
X144376908Y-109508129D01*
X144380686Y-109511098D01*
X144384314Y-109514241D01*
X144387787Y-109517552D01*
X144391097Y-109521025D01*
X144394240Y-109524653D01*
X144397209Y-109528431D01*
X144399997Y-109532351D01*
X144402597Y-109536409D01*
X144405005Y-109540596D01*
X144407213Y-109544908D01*
X144409216Y-109549338D01*
X144411006Y-109553879D01*
X144412578Y-109558525D01*
X144413926Y-109563270D01*
X144415042Y-109568108D01*
X144415922Y-109573033D01*
X144416558Y-109578038D01*
X144416944Y-109583116D01*
X144417074Y-109588262D01*
X144416944Y-109593409D01*
X144416558Y-109598488D01*
X144415922Y-109603493D01*
X144415042Y-109608418D01*
X144413926Y-109613256D01*
X144412578Y-109618002D01*
X144411006Y-109622649D01*
X144409216Y-109627190D01*
X144407213Y-109631620D01*
X144405005Y-109635931D01*
X144402597Y-109640119D01*
X144399997Y-109644176D01*
X144397209Y-109648097D01*
X144394240Y-109651874D01*
X144391097Y-109655502D01*
X144387787Y-109658975D01*
X144384314Y-109662286D01*
X144380686Y-109665429D01*
X144376908Y-109668397D01*
X144372988Y-109671185D01*
X144368931Y-109673786D01*
X144364744Y-109676193D01*
X144360432Y-109678401D01*
X144356003Y-109680403D01*
X144351463Y-109682194D01*
X144346817Y-109683766D01*
X144342072Y-109685113D01*
X144337234Y-109686229D01*
X144332310Y-109687109D01*
X144327306Y-109687744D01*
X144322228Y-109688130D01*
X144317083Y-109688261D01*
X144311936Y-109688130D01*
X144306857Y-109687744D01*
X144301852Y-109687109D01*
X144296927Y-109686229D01*
X144292088Y-109685113D01*
X144287342Y-109683766D01*
X144282696Y-109682194D01*
X144278154Y-109680403D01*
X144273724Y-109678401D01*
X144269412Y-109676193D01*
X144265224Y-109673786D01*
X144261167Y-109671185D01*
X144257246Y-109668397D01*
X144253468Y-109665429D01*
X144249839Y-109662286D01*
X144246366Y-109658975D01*
X144243055Y-109655502D01*
X144239912Y-109651874D01*
X144236943Y-109648097D01*
X144234155Y-109644176D01*
X144231554Y-109640119D01*
X144229146Y-109635931D01*
X144226938Y-109631620D01*
X144224935Y-109627190D01*
X144223145Y-109622649D01*
X144221573Y-109618002D01*
X144220225Y-109613256D01*
X144219109Y-109608418D01*
X144218229Y-109603493D01*
X144217593Y-109598488D01*
X144217207Y-109593409D01*
X144217077Y-109588262D01*
X144217207Y-109583116D01*
X144217593Y-109578038D01*
X144218229Y-109573033D01*
X144219109Y-109568108D01*
X144220225Y-109563270D01*
X144221573Y-109558525D01*
X144223145Y-109553879D01*
X144224935Y-109549338D01*
X144226938Y-109544908D01*
X144229146Y-109540596D01*
X144231554Y-109536409D01*
X144234155Y-109532351D01*
X144236943Y-109528431D01*
X144239912Y-109524653D01*
X144243055Y-109521025D01*
X144246366Y-109517552D01*
X144249839Y-109514241D01*
X144253468Y-109511098D01*
X144257246Y-109508129D01*
X144261167Y-109505341D01*
X144265224Y-109502740D01*
X144269412Y-109500333D01*
X144273724Y-109498124D01*
X144278154Y-109496122D01*
X144282696Y-109494331D01*
X144287342Y-109492759D01*
X144292088Y-109491412D01*
X144296927Y-109490295D01*
X144301852Y-109489416D01*
X144306857Y-109488780D01*
X144311936Y-109488394D01*
X144317083Y-109488264D01*
X144322228Y-109488394D01*
G37*
%TD*%
D12*
%TO.P,MM1,2,COSn*%
%TO.N,RX_COS_B*%
X124572600Y-127163200D03*
D13*
%TO.P,MM1,4,SINn*%
%TO.N,RX_SIN_B*%
X124572600Y-113353200D03*
D14*
%TO.P,MM1,6,TXn*%
%TO.N,TX2*%
X123222600Y-120224055D03*
D15*
%TO.P,MM1,COS*%
%TO.N,N/C*%
X146104580Y-129924052D03*
X153685880Y-114974055D03*
X150726370Y-125298757D03*
X126175880Y-127344055D03*
X144473272Y-111911863D03*
X151475994Y-123497348D03*
X128375393Y-125469653D03*
X144299673Y-130670156D03*
X137588497Y-128541751D03*
X132725880Y-123670947D03*
X146225880Y-107654055D03*
X149344076Y-116782659D03*
X135825085Y-132798755D03*
%TO.P,MM1,SIN*%
X151475994Y-116956363D03*
X144303082Y-109783458D03*
X146271978Y-132883955D03*
X132714285Y-116782659D03*
X149347485Y-123670947D03*
X150726370Y-115154760D03*
X153605880Y-125374055D03*
X137588497Y-111911960D03*
X128460165Y-115026762D03*
X144473272Y-128541654D03*
X135789791Y-107569659D03*
X125415880Y-114674055D03*
X146101171Y-110529562D03*
%TO.P,MM1,TX*%
X126932583Y-120226855D03*
%TD*%
D16*
%TO.P,JP1,1,A*%
%TO.N,CAN-*%
X152621157Y-58541999D03*
D17*
%TO.P,JP1,2,B*%
%TO.N,Net-(JP1-Pad2)*%
X152621157Y-61081999D03*
%TD*%
D16*
%TO.P,J8,1,Pin_1*%
%TO.N,3V3*%
X117103463Y-84838199D03*
D17*
%TO.P,J8,2,Pin_2*%
%TO.N,NRST*%
X117103463Y-82298199D03*
%TO.P,J8,3,Pin_3*%
%TO.N,SWD_SWO*%
X119643463Y-84838199D03*
%TO.P,J8,4,Pin_4*%
%TO.N,SWD_CLK*%
X119643463Y-82298199D03*
%TO.P,J8,5,Pin_5*%
%TO.N,SWD_SWDIO*%
X122183463Y-84838199D03*
%TO.P,J8,6,Pin_6*%
%TO.N,GND*%
X122183463Y-82298199D03*
%TD*%
D18*
%TO.P,J6,1,Pin_1*%
%TO.N,VPP*%
X162722599Y-51478199D03*
D19*
%TO.P,J6,2,Pin_2*%
%TO.N,GND*%
X159222600Y-51478200D03*
%TD*%
D20*
%TO.P,J3,1,Pin_1*%
%TO.N,CAN-*%
X129081000Y-54602500D03*
D21*
%TO.P,J3,2,Pin_2*%
%TO.N,CAN+*%
X131580999Y-54602499D03*
%TD*%
D22*
%TO.P,J1,6,Shield*%
%TO.N,GND*%
X111464999Y-74920582D03*
X111464999Y-69460582D03*
D23*
X114464999Y-69770582D03*
X114464999Y-74610582D03*
%TD*%
D18*
%TO.P,J5,1,Pin_1*%
%TO.N,VPP*%
X123189999Y-51561999D03*
D19*
%TO.P,J5,2,Pin_2*%
%TO.N,GND*%
X119690000Y-51562000D03*
%TD*%
D24*
%TO.P,J7,1,Pin_1*%
%TO.N,MOTOR_B1*%
X170134000Y-79010200D03*
D25*
%TO.P,J7,2,Pin_2*%
%TO.N,MOTOR_B2*%
X170133999Y-76510199D03*
%TO.P,J7,3,Pin_3*%
%TO.N,MOTOR_A1*%
X170133999Y-74010199D03*
%TO.P,J7,4,Pin_4*%
%TO.N,MOTOR_A2*%
X170133999Y-71510199D03*
%TD*%
D20*
%TO.P,J4,1,Pin_1*%
%TO.N,CAN-*%
X150896000Y-54729500D03*
D21*
%TO.P,J4,2,Pin_2*%
%TO.N,CAN+*%
X153395999Y-54729499D03*
%TD*%
D26*
%TO.N,GND*%
X124428673Y-61366400D03*
X154697600Y-58403200D03*
X121428673Y-64366400D03*
X154697600Y-59703200D03*
X155508200Y-74228200D03*
X154508200Y-73228200D03*
X121428673Y-61366400D03*
X158508200Y-73228200D03*
X161354178Y-69126778D03*
X121572600Y-95927700D03*
X126428673Y-66366400D03*
X158508200Y-76228200D03*
X165887400Y-70078600D03*
X159597600Y-61403200D03*
X136597600Y-50903200D03*
X120897600Y-106028200D03*
X122428673Y-66366400D03*
X111627600Y-81923200D03*
X157508200Y-76228200D03*
X157508200Y-74228200D03*
X155508200Y-75228200D03*
X122428673Y-62366400D03*
X126428673Y-65366400D03*
X169457600Y-62743200D03*
X165862000Y-81102200D03*
X123428673Y-64366400D03*
X154508200Y-76228200D03*
X137497600Y-53003200D03*
X144597600Y-53103200D03*
X131897600Y-50903200D03*
X110442600Y-93598200D03*
X144097600Y-50803200D03*
X111487600Y-88413200D03*
X165887400Y-81991200D03*
X126428673Y-62366400D03*
X116674592Y-95180192D03*
X135397600Y-53003200D03*
X122542200Y-78064600D03*
X125428673Y-64366400D03*
X125428673Y-66366400D03*
X127197600Y-52903200D03*
X157508200Y-75228200D03*
X156508200Y-74228200D03*
X165887400Y-68351400D03*
X139795149Y-77541506D03*
X131528872Y-61691172D03*
X157508200Y-73228200D03*
X132097600Y-56703200D03*
X127497600Y-56303200D03*
X133297600Y-56403200D03*
X125428673Y-63366400D03*
X151097600Y-56603200D03*
X137847600Y-50943200D03*
X160447600Y-61413200D03*
X133897600Y-54203200D03*
X156508200Y-75228200D03*
X130897600Y-56703200D03*
X158508200Y-74228200D03*
X124428673Y-65366400D03*
X123428673Y-63366400D03*
X125428673Y-62366400D03*
X155508200Y-76228200D03*
X154134255Y-68561724D03*
X155497600Y-55503200D03*
X151797600Y-51403200D03*
X124428673Y-62366400D03*
X123428673Y-65366400D03*
X156508200Y-73228200D03*
X130497600Y-51103200D03*
X148597600Y-50803200D03*
X127197600Y-55303200D03*
X122428673Y-61366400D03*
X170377600Y-61553200D03*
X152697600Y-52303200D03*
X144547600Y-90353200D03*
X124428673Y-66366400D03*
X121428673Y-63366400D03*
X128197600Y-52203200D03*
X158508200Y-77228200D03*
X126428673Y-61366400D03*
X127197600Y-53903200D03*
X126945608Y-97605192D03*
X123428673Y-62366400D03*
X124428673Y-64366400D03*
X124428673Y-63366400D03*
X114579400Y-66776600D03*
X132522671Y-70254255D03*
X165887400Y-69240400D03*
X121756000Y-91096000D03*
X135097600Y-50903200D03*
X139097600Y-56303200D03*
X133597600Y-50903200D03*
X155508200Y-73228200D03*
X154997600Y-53003200D03*
X123348100Y-70124600D03*
X123428673Y-61366400D03*
X158508200Y-75228200D03*
X129527600Y-89763200D03*
X138321333Y-84629467D03*
X149097600Y-55503200D03*
X148997600Y-54303200D03*
X146797600Y-53103200D03*
X129597600Y-56703200D03*
X125428673Y-65366400D03*
X154508200Y-77228200D03*
X134397600Y-53103200D03*
X125428673Y-61366400D03*
X132547600Y-86403200D03*
X154508200Y-75228200D03*
X145197600Y-50803200D03*
X155397600Y-54403200D03*
X133597600Y-55403200D03*
X123428673Y-66366400D03*
X129397600Y-51603200D03*
X146340950Y-74139988D03*
X165862000Y-80264000D03*
X123222623Y-100577218D03*
X153897600Y-52503200D03*
X147997600Y-53303200D03*
X168292600Y-63908200D03*
X171337364Y-88542964D03*
X133377891Y-70787309D03*
X121428673Y-66366400D03*
X123647600Y-58003200D03*
X153697600Y-56703200D03*
X122428673Y-65366400D03*
X121428673Y-65366400D03*
X126428673Y-64366400D03*
X119872600Y-106853200D03*
X155508200Y-77228200D03*
X128497600Y-56603200D03*
X145797600Y-53103200D03*
X122428673Y-64366400D03*
X141172973Y-82867817D03*
X146497600Y-50803200D03*
X160160000Y-80240800D03*
X157508200Y-77228200D03*
X111582600Y-54628200D03*
X122428673Y-63366400D03*
X154797600Y-61003200D03*
X138497600Y-73792700D03*
X156508200Y-77228200D03*
X147497600Y-50803200D03*
X126428673Y-63366400D03*
X154508200Y-74228200D03*
X156508200Y-76228200D03*
X136397600Y-53003200D03*
X130461567Y-70253700D03*
X149697600Y-50803200D03*
X154797600Y-62103200D03*
X119749728Y-72331828D03*
X150797600Y-50703200D03*
X121428673Y-62366400D03*
%TO.N,NRST*%
X131538100Y-82178757D03*
X112687600Y-94223200D03*
%TO.N,3V3*%
X111577600Y-84893200D03*
X141996551Y-83691394D03*
X158587600Y-82703200D03*
X118338600Y-68427600D03*
X121565463Y-97739050D03*
X124677600Y-78853200D03*
X111737600Y-78343200D03*
X136647600Y-78742700D03*
X117144800Y-68173600D03*
X123647200Y-92964000D03*
X133947600Y-72703200D03*
X117932200Y-67487800D03*
X131454245Y-62687885D03*
X118999000Y-67081400D03*
X132747600Y-88103200D03*
X117170200Y-66802000D03*
X111507600Y-102073200D03*
%TO.N,VPP*%
X149758400Y-74142600D03*
X162371270Y-70185988D03*
X150520400Y-73304400D03*
X163017200Y-73431400D03*
X149357809Y-73145052D03*
X162946149Y-74311100D03*
X163467600Y-60792056D03*
X113106200Y-66192400D03*
X163467600Y-59663200D03*
X163397600Y-58573200D03*
%TO.N,MOTOR_A2*%
X148767800Y-75768200D03*
X150723600Y-75768200D03*
X149707600Y-75768200D03*
%TO.N,MOTOR_A1*%
X149995509Y-79192476D03*
X148166709Y-79217876D03*
X149081109Y-79217876D03*
%TO.N,SWD_CLK*%
X119637600Y-80843200D03*
X126902222Y-80507822D03*
%TO.N,SWD_SWO*%
X126847600Y-84503200D03*
X121263010Y-81102700D03*
%TO.N,CAN-*%
X141507600Y-50803200D03*
%TO.N,CAN+*%
X140197600Y-50803200D03*
X157073600Y-58623200D03*
%TO.N,Net-(R1-Pad2)*%
X115237600Y-88403200D03*
X122529600Y-67564000D03*
%TO.N,Net-(R4-Pad2)*%
X126742967Y-85497211D03*
X119557600Y-77903200D03*
%TO.N,CAN_SILENT*%
X127906920Y-79534017D03*
X125347600Y-56003200D03*
%TO.N,PWM_TMC_CURRSET*%
X128389048Y-70720789D03*
X143998352Y-73228322D03*
%TO.N,I2C_SDA*%
X131918100Y-72283316D03*
X114147600Y-103581200D03*
%TO.N,I2C_SCL*%
X132426016Y-73170786D03*
X115239800Y-102387400D03*
%TO.N,TMC_SKIP*%
X130367222Y-77983578D03*
X158318200Y-68808600D03*
%TO.N,TMC_STALL*%
X160172400Y-70205600D03*
X141147600Y-96152700D03*
%TO.N,ADC_IPS_COS*%
X136432035Y-81518765D03*
X118110000Y-97815400D03*
%TO.N,ADC_IPS_COSN*%
X119497600Y-95728200D03*
X135452324Y-78591959D03*
%TO.N,ADC_IPS_SIN*%
X122747600Y-99103700D03*
X137532099Y-80533503D03*
%TO.N,ADC_IPS_SINN*%
X137155600Y-79603479D03*
X121547600Y-99103700D03*
%TO.N,SPI_TMC_CS*%
X142347600Y-78953198D03*
X143901839Y-77398961D03*
%TO.N,SPI_CLK*%
X141697100Y-77968427D03*
X142997600Y-76653200D03*
%TO.N,TMC_STEP_EN*%
X160080773Y-71990243D03*
X145300840Y-77018680D03*
%TO.N,TMC_DIR*%
X130459331Y-76559824D03*
X147197600Y-83653200D03*
%TO.N,TMC_STEP*%
X131298099Y-75353200D03*
X145747600Y-82153200D03*
%TO.N,TMC_EN*%
X129747600Y-72951711D03*
X157604343Y-69650813D03*
%TO.N,TMC_STEP_GATE*%
X159590353Y-71119328D03*
X129388105Y-70750627D03*
%TO.N,TMC_STEP_RDY*%
X162479773Y-72584989D03*
X161061400Y-79222600D03*
%TO.N,CAN_RX*%
X129948957Y-80420840D03*
X142787600Y-56303200D03*
%TO.N,CAN_TX*%
X130223824Y-81381805D03*
X137757600Y-54683200D03*
%TO.N,TX1*%
X124897600Y-107673200D03*
X120897600Y-115403200D03*
%TO.N,Net-(C18-Pad2)*%
X157226000Y-68707000D03*
X162381358Y-68099598D03*
%TO.N,Net-(D6-Pad2)*%
X164430000Y-72796400D03*
X146481800Y-77266800D03*
X147472400Y-77266800D03*
X148386800Y-77292200D03*
X166787600Y-72803200D03*
X165735000Y-72771000D03*
%TO.N,TX2*%
X122097600Y-115303200D03*
X122107600Y-110343200D03*
%TO.N,RX_COS_B*%
X124021684Y-103686125D03*
%TO.N,RX_SIN_B*%
X122997600Y-104603200D03*
%TO.N,CAN_ADDR0*%
X149367600Y-89043200D03*
X161442222Y-87997822D03*
%TO.N,CAN_ADDR1*%
X135518874Y-83146547D03*
X158642222Y-90797822D03*
X140510458Y-81824046D03*
X150147600Y-89883200D03*
%TO.N,CAN_ADDR2*%
X139962978Y-80987822D03*
X156942222Y-92497822D03*
X134697600Y-82253200D03*
X150747600Y-90713200D03*
%TO.N,CAN_ADDR3*%
X139197600Y-80303200D03*
X135297600Y-81403200D03*
X151407600Y-91703200D03*
X155247600Y-94753200D03*
%TO.N,CAN_ADDR4*%
X160697600Y-97403200D03*
X152167600Y-92603200D03*
X142567216Y-80733584D03*
X133837600Y-76883200D03*
%TO.N,CAN_ADDR5*%
X152977600Y-93302700D03*
X160347600Y-100103200D03*
X134497600Y-75953200D03*
X143697600Y-80503200D03*
%TD*%
D27*
%TO.N,NRST*%
X112687600Y-93593200D02*
X118337600Y-87943200D01*
X131538100Y-82263482D02*
X131538100Y-82178757D01*
X112687600Y-94223200D02*
X112687600Y-93593200D01*
X118407600Y-87883200D02*
X118407600Y-83634000D01*
X118424800Y-83616800D02*
X117109000Y-82301000D01*
X125858382Y-87943200D02*
X131538100Y-82263482D01*
X118407600Y-83634000D02*
X118424800Y-83616800D01*
X118337600Y-87943200D02*
X118347600Y-87943200D01*
X118347600Y-87943200D02*
X118407600Y-87883200D01*
X118347600Y-87943200D02*
X125858382Y-87943200D01*
D28*
%TO.N,MOTOR_A2*%
X161280273Y-71951649D02*
X161854248Y-71377674D01*
X152232600Y-75768200D02*
X152492600Y-76028200D01*
X150723600Y-75768200D02*
X152232600Y-75768200D01*
X161859949Y-71379701D02*
X161868631Y-71379701D01*
X161874419Y-71385489D02*
X162868121Y-71385489D01*
X160020000Y-75230800D02*
X161280273Y-73970527D01*
X160020000Y-78257400D02*
X160020000Y-75230800D01*
X161854248Y-71374000D02*
X161859949Y-71379701D01*
X154576200Y-79171800D02*
X159105600Y-79171800D01*
X161280273Y-73970527D02*
X161280273Y-71951649D01*
X169597101Y-71379701D02*
X169753000Y-71535600D01*
X161854248Y-71377674D02*
X161854248Y-71374000D01*
X162868121Y-71385489D02*
X162873909Y-71379701D01*
X151172600Y-75768200D02*
X152492600Y-77088200D01*
X152492600Y-76028200D02*
X152492600Y-77088200D01*
X148767800Y-75768200D02*
X151172600Y-75768200D01*
X159105600Y-79171800D02*
X160020000Y-78257400D01*
X162873909Y-71379701D02*
X169597101Y-71379701D01*
X152492600Y-77088200D02*
X154576200Y-79171800D01*
X161868631Y-71379701D02*
X161874419Y-71385489D01*
%TO.N,MOTOR_A1*%
X165074600Y-84759800D02*
X167284400Y-82550000D01*
X152323800Y-84759800D02*
X165074600Y-84759800D01*
X167284400Y-82550000D02*
X167284400Y-75311000D01*
X148700109Y-81136109D02*
X152323800Y-84759800D01*
X168559800Y-74035600D02*
X169753000Y-74035600D01*
X167284400Y-75311000D02*
X168559800Y-74035600D01*
X148700109Y-78938476D02*
X148700109Y-81136109D01*
D27*
%TO.N,SWD_CLK*%
X120077600Y-80403200D02*
X126797600Y-80403200D01*
X119637600Y-80843200D02*
X120077600Y-80403200D01*
X126797600Y-80403200D02*
X126902222Y-80507822D01*
%TO.N,SWD_SWO*%
X121382510Y-80983200D02*
X121263010Y-81102700D01*
X126847600Y-84503200D02*
X123327600Y-80983200D01*
X123327600Y-80983200D02*
X121382510Y-80983200D01*
D29*
%TO.N,CAN+*%
X153396000Y-54945600D02*
X157073600Y-58623200D01*
X153396000Y-54729500D02*
X153396000Y-54945600D01*
D27*
%TO.N,Net-(R1-Pad2)*%
X115237600Y-88403200D02*
X115237600Y-81233955D01*
X115237600Y-81233955D02*
X122529600Y-73941955D01*
X122529600Y-73941955D02*
X122529600Y-67564000D01*
%TO.N,Net-(R4-Pad2)*%
X127601723Y-84738336D02*
X127601723Y-80218064D01*
X126842848Y-85497211D02*
X127601723Y-84738336D01*
X127601723Y-80218064D02*
X127046360Y-79662701D01*
X121317101Y-79662701D02*
X119557600Y-77903200D01*
X127046360Y-79662701D02*
X121317101Y-79662701D01*
X126742967Y-85497211D02*
X126842848Y-85497211D01*
%TO.N,CAN_SILENT*%
X127657600Y-66855600D02*
X127657600Y-58313200D01*
X127906920Y-79534017D02*
X127748417Y-79534017D01*
X127748417Y-79534017D02*
X123847101Y-75632701D01*
X127657600Y-58313200D02*
X125347600Y-56003200D01*
X123847101Y-75632701D02*
X123847101Y-70666099D01*
X123847101Y-70666099D02*
X127657600Y-66855600D01*
%TO.N,PWM_TMC_CURRSET*%
X140107600Y-73583200D02*
X143643474Y-73583200D01*
X139617600Y-73093200D02*
X140107600Y-73583200D01*
X136837600Y-73093200D02*
X139617600Y-73093200D01*
X143643474Y-73583200D02*
X143998352Y-73228322D01*
X129816637Y-69293200D02*
X133037600Y-69293200D01*
X133037600Y-69293200D02*
X136837600Y-73093200D01*
X128389048Y-70720789D02*
X129816637Y-69293200D01*
%TO.N,I2C_SDA*%
X114147600Y-98883200D02*
X114147600Y-103581200D01*
X132667600Y-79923200D02*
X132667600Y-83763200D01*
X131918100Y-72283316D02*
X131647984Y-72013200D01*
X128827600Y-76482332D02*
X129407600Y-77062332D01*
X129407600Y-78013200D02*
X130517600Y-79123200D01*
X129517600Y-72013200D02*
X128827600Y-72703200D01*
X130517600Y-79123200D02*
X131867600Y-79123200D01*
X128827600Y-72703200D02*
X128827600Y-76482332D01*
X131647984Y-72013200D02*
X129517600Y-72013200D01*
X131867600Y-79123200D02*
X132667600Y-79923200D01*
X129647600Y-86783200D02*
X129647600Y-88057438D01*
X118102600Y-94928200D02*
X114147600Y-98883200D01*
X132667600Y-83763200D02*
X129647600Y-86783200D01*
X129407600Y-77062332D02*
X129407600Y-78013200D01*
X122776838Y-94928200D02*
X118102600Y-94928200D01*
X129647600Y-88057438D02*
X122776838Y-94928200D01*
%TO.N,I2C_SCL*%
X132617600Y-72979202D02*
X132426016Y-73170786D01*
X114554000Y-104444800D02*
X113639600Y-104444800D01*
X112826800Y-103632000D02*
X112826800Y-96664000D01*
X115544600Y-102692200D02*
X115544600Y-103454200D01*
X115544600Y-103454200D02*
X114554000Y-104444800D01*
X132617600Y-71823200D02*
X132617600Y-72979202D01*
X132237600Y-82903200D02*
X132237600Y-81408194D01*
X113639600Y-104444800D02*
X112826800Y-103632000D01*
X122267600Y-92873200D02*
X132237600Y-82903200D01*
X128527600Y-76747324D02*
X128027600Y-76247324D01*
X128027600Y-72183200D02*
X128667600Y-71543200D01*
X116617600Y-92873200D02*
X122267600Y-92873200D01*
X132237600Y-81408194D02*
X128527600Y-77698194D01*
X128667600Y-71543200D02*
X132337600Y-71543200D01*
X115239800Y-102387400D02*
X115544600Y-102692200D01*
X112826800Y-96664000D02*
X116617600Y-92873200D01*
X128527600Y-77698194D02*
X128527600Y-76747324D01*
X132337600Y-71543200D02*
X132617600Y-71823200D01*
X128027600Y-76247324D02*
X128027600Y-72183200D01*
%TO.N,TMC_SKIP*%
X132113581Y-74254188D02*
X130842872Y-74254189D01*
X145466122Y-74025571D02*
X145466122Y-74033912D01*
X129759830Y-76849568D02*
X130247600Y-77337338D01*
X158673800Y-69570600D02*
X157691200Y-70553200D01*
X129759830Y-75337231D02*
X129759830Y-76849568D01*
X158673800Y-69164200D02*
X158673800Y-69570600D01*
X143906834Y-75593200D02*
X135742618Y-75593200D01*
X148938494Y-70553200D02*
X145466122Y-74025571D01*
X158318200Y-68808600D02*
X158673800Y-69164200D01*
X130842872Y-74254189D02*
X129759830Y-75337231D01*
X157691200Y-70553200D02*
X148938494Y-70553200D01*
X135742618Y-75593200D02*
X134837635Y-74688217D01*
X132547611Y-74688217D02*
X132113581Y-74254188D01*
X130247600Y-77337338D02*
X130247600Y-78253200D01*
X134837635Y-74688217D02*
X132547611Y-74688217D01*
X145466122Y-74033912D02*
X143906834Y-75593200D01*
%TO.N,TMC_STALL*%
X158775400Y-70205600D02*
X157556200Y-71424800D01*
X147040451Y-73431549D02*
X147040451Y-74429732D01*
X160172400Y-70205600D02*
X158775400Y-70205600D01*
X145447600Y-75353200D02*
X144601340Y-76199460D01*
X147040451Y-74429732D02*
X146116983Y-75353200D01*
X148047101Y-82412701D02*
X148047101Y-94563699D01*
X146116983Y-75353200D02*
X145447600Y-75353200D01*
X144601340Y-78966940D02*
X148047101Y-82412701D01*
X148047101Y-94563699D02*
X146458100Y-96152700D01*
X144601340Y-76199460D02*
X144601340Y-78966940D01*
X146458100Y-96152700D02*
X141147600Y-96152700D01*
X149047200Y-71424800D02*
X147040451Y-73431549D01*
X157556200Y-71424800D02*
X149047200Y-71424800D01*
%TO.N,ADC_IPS_COS*%
X135516470Y-80603200D02*
X136432035Y-81518765D01*
X134887600Y-85813200D02*
X133998099Y-84923699D01*
X118110000Y-97815400D02*
X120097800Y-99803200D01*
X134847600Y-80603200D02*
X135516470Y-80603200D01*
X133998099Y-81452701D02*
X134847600Y-80603200D01*
X133998099Y-84923699D02*
X133998099Y-81452701D01*
X130797600Y-99803200D02*
X134887600Y-95713200D01*
X134887600Y-95713200D02*
X134887600Y-85813200D01*
X120097800Y-99803200D02*
X130797600Y-99803200D01*
%TO.N,ADC_IPS_COSN*%
X136001083Y-78043200D02*
X135452324Y-78591959D01*
X119497600Y-95728200D02*
X118822600Y-95728200D01*
X146488967Y-89561833D02*
X146488967Y-86774567D01*
X116797600Y-97753200D02*
X116797600Y-99028200D01*
X116797600Y-99028200D02*
X119046119Y-101276719D01*
X141049078Y-81334678D02*
X141049078Y-81049678D01*
X141049078Y-81049678D02*
X138042600Y-78043200D01*
X134774081Y-101276719D02*
X146488967Y-89561833D01*
X118822600Y-95728200D02*
X116797600Y-97753200D01*
X119046119Y-101276719D02*
X134774081Y-101276719D01*
X146488967Y-86774567D02*
X141049078Y-81334678D01*
X138042600Y-78043200D02*
X136001083Y-78043200D01*
%TO.N,ADC_IPS_SIN*%
X137101935Y-80533503D02*
X137532099Y-80533503D01*
X122747600Y-99103700D02*
X133598588Y-88252712D01*
X133598588Y-81032212D02*
X134427111Y-80203689D01*
X133598588Y-88252712D02*
X133598588Y-81032212D01*
X136772121Y-80203689D02*
X137101935Y-80533503D01*
X134427111Y-80203689D02*
X136772121Y-80203689D01*
%TO.N,ADC_IPS_SINN*%
X131757706Y-86073094D02*
X133117600Y-84713200D01*
X134217600Y-79603200D02*
X137155321Y-79603200D01*
X133117600Y-80703200D02*
X134217600Y-79603200D01*
X133117600Y-84713200D02*
X133117600Y-80703200D01*
X131757706Y-88893594D02*
X131757706Y-86073094D01*
X137155321Y-79603200D02*
X137155600Y-79603479D01*
X121547600Y-99103700D02*
X131757706Y-88893594D01*
%TO.N,SPI_TMC_CS*%
X142347600Y-78953198D02*
X143901839Y-77398961D01*
%TO.N,SPI_CLK*%
X142997600Y-76653200D02*
X141697100Y-77953700D01*
X141697100Y-77953700D02*
X141697100Y-77968427D01*
%TO.N,TMC_STEP_EN*%
X147548600Y-73660000D02*
X149250400Y-71958200D01*
X147548600Y-74625200D02*
X147548600Y-73660000D01*
X149250400Y-71958200D02*
X160048730Y-71958200D01*
X160048730Y-71958200D02*
X160080773Y-71990243D01*
X145110200Y-77063600D02*
X147548600Y-74625200D01*
%TO.N,TMC_DIR*%
X135335367Y-77154678D02*
X134797344Y-77692701D01*
X132317600Y-76382445D02*
X132317600Y-75023200D01*
X146037344Y-81453699D02*
X142298087Y-81453699D01*
X147197600Y-82613955D02*
X146037344Y-81453699D01*
X138419078Y-77154678D02*
X135335367Y-77154678D01*
X134797344Y-77692701D02*
X133627856Y-77692701D01*
X141848099Y-80583699D02*
X138419078Y-77154678D01*
X130459331Y-75202724D02*
X130459331Y-76559824D01*
X141848099Y-81003711D02*
X141848099Y-80583699D01*
X131008356Y-74653699D02*
X130459331Y-75202724D01*
X131948099Y-74653699D02*
X131008356Y-74653699D01*
X142298087Y-81453699D02*
X141848099Y-81003711D01*
X133627856Y-77692701D02*
X132317600Y-76382445D01*
X132317600Y-75023200D02*
X131948099Y-74653699D01*
X147197600Y-83653200D02*
X147197600Y-82613955D01*
%TO.N,TMC_STEP*%
X131298099Y-75353200D02*
X131317600Y-75372701D01*
X141448589Y-81169195D02*
X142432594Y-82153200D01*
X138223585Y-77554191D02*
X141448589Y-80779196D01*
X135500847Y-77554191D02*
X138223585Y-77554191D01*
X131317600Y-75372701D02*
X131317600Y-77173200D01*
X141448589Y-80779196D02*
X141448589Y-81169195D01*
X131317600Y-77173200D02*
X132697600Y-78553200D01*
X134501838Y-78553200D02*
X135500847Y-77554191D01*
X142432594Y-82153200D02*
X145747600Y-82153200D01*
X132697600Y-78553200D02*
X134501838Y-78553200D01*
%TO.N,TMC_EN*%
X135257901Y-74263501D02*
X132687889Y-74263501D01*
X145066611Y-73868428D02*
X143851839Y-75083200D01*
X143851839Y-75083200D02*
X136077600Y-75083200D01*
X132687889Y-74263501D02*
X132279063Y-73854677D01*
X136077600Y-75083200D02*
X135257901Y-74263501D01*
X145066612Y-73860088D02*
X145066611Y-73868428D01*
X157604343Y-69650813D02*
X149275887Y-69650813D01*
X131471576Y-73854678D02*
X130650566Y-73854677D01*
X149275887Y-69650813D02*
X145066612Y-73860088D01*
X130650566Y-73854677D02*
X129747600Y-72951711D01*
X132279063Y-73854677D02*
X131471576Y-73854678D01*
%TO.N,TMC_STEP_GATE*%
X129677878Y-70953690D02*
X132513084Y-70953690D01*
X144667101Y-73702944D02*
X144667101Y-73692944D01*
X133202594Y-71643200D02*
X133976845Y-71643200D01*
X162991800Y-67208400D02*
X163398200Y-67614800D01*
X144667101Y-73692944D02*
X151151645Y-67208400D01*
X160350872Y-71119328D02*
X159590353Y-71119328D01*
X136886845Y-74553200D02*
X139537600Y-74553200D01*
X139537600Y-74553200D02*
X139987600Y-74103200D01*
X132513084Y-70953690D02*
X133202594Y-71643200D01*
X139987600Y-74103200D02*
X144266845Y-74103200D01*
X133976845Y-71643200D02*
X136886845Y-74553200D01*
X163398200Y-68072000D02*
X160350872Y-71119328D01*
X151151645Y-67208400D02*
X162991800Y-67208400D01*
X163398200Y-67614800D02*
X163398200Y-68072000D01*
X144266845Y-74103200D02*
X144667101Y-73702944D01*
%TO.N,TMC_STEP_RDY*%
X162479773Y-72584989D02*
X162179784Y-72884978D01*
X161442400Y-79222600D02*
X161061400Y-79222600D01*
X162179784Y-72884978D02*
X162179784Y-78485216D01*
X162179784Y-78485216D02*
X161442400Y-79222600D01*
%TO.N,CAN_RX*%
X141797600Y-57293200D02*
X136247600Y-57293200D01*
X127727600Y-77653200D02*
X129948957Y-79874557D01*
X132007600Y-59163200D02*
X130236719Y-60934081D01*
X130236719Y-60934081D02*
X130236719Y-66914081D01*
X130236719Y-66914081D02*
X126167600Y-70983200D01*
X126167600Y-74952318D02*
X127727600Y-76512318D01*
X127727600Y-76512318D02*
X127727600Y-77653200D01*
X134377600Y-59163200D02*
X132007600Y-59163200D01*
X142787600Y-56303200D02*
X141797600Y-57293200D01*
X129948957Y-79874557D02*
X129948957Y-80420840D01*
X136247600Y-57293200D02*
X134377600Y-59163200D01*
X126167600Y-70983200D02*
X126167600Y-74952318D01*
%TO.N,CAN_TX*%
X137547600Y-54683200D02*
X133897600Y-58333200D01*
X129836960Y-81381805D02*
X130223824Y-81381805D01*
X125196600Y-70574200D02*
X125196600Y-75834452D01*
X129067600Y-66703200D02*
X125196600Y-70574200D01*
X133897600Y-58333200D02*
X130917600Y-58333200D01*
X128606421Y-80151266D02*
X129836960Y-81381805D01*
X129067600Y-60183200D02*
X129067600Y-66703200D01*
X130917600Y-58333200D02*
X129067600Y-60183200D01*
X128606421Y-79244273D02*
X128606421Y-80151266D01*
X137757600Y-54683200D02*
X137547600Y-54683200D01*
X125196600Y-75834452D02*
X128606421Y-79244273D01*
%TO.N,Net-(C18-Pad2)*%
X162371857Y-68109099D02*
X162381358Y-68099598D01*
X157823901Y-68109099D02*
X162371857Y-68109099D01*
X157226000Y-68707000D02*
X157823901Y-68109099D01*
D30*
%TO.N,Net-(D6-Pad2)*%
X164430000Y-74005600D02*
X164500400Y-74005600D01*
D28*
X148361400Y-77266800D02*
X148386800Y-77292200D01*
X164049000Y-79587800D02*
X162133101Y-81503699D01*
D30*
X166787600Y-72803200D02*
X166772400Y-72803200D01*
D28*
X146481800Y-77266800D02*
X147472400Y-77266800D01*
X162133101Y-81503699D02*
X152445899Y-81503699D01*
D30*
X166772400Y-72803200D02*
X164430000Y-75145600D01*
X164430000Y-72796400D02*
X164430000Y-74005600D01*
D28*
X151434800Y-80492600D02*
X151434800Y-78028800D01*
X151434800Y-78028800D02*
X150698200Y-77292200D01*
X150698200Y-77292200D02*
X148386800Y-77292200D01*
D30*
X164500400Y-74005600D02*
X165735000Y-72771000D01*
X164430000Y-74005600D02*
X164430000Y-75145600D01*
X164430000Y-79206800D02*
X164049000Y-79587800D01*
D28*
X152445899Y-81503699D02*
X151434800Y-80492600D01*
D30*
X164430000Y-75145600D02*
X164430000Y-79206800D01*
D28*
X147472400Y-77266800D02*
X148361400Y-77266800D01*
D31*
%TO.N,TX2*%
X120921600Y-118995200D02*
X120921600Y-116479200D01*
X123222600Y-120224055D02*
X122150455Y-120224055D01*
X120921600Y-116479200D02*
X122097600Y-115303200D01*
X122150455Y-120224055D02*
X120921600Y-118995200D01*
%TO.N,RX_COS_B*%
X119297600Y-102603200D02*
X122997600Y-102603200D01*
X124532600Y-127203200D02*
X121364183Y-127203200D01*
D27*
X123897600Y-103503200D02*
X124021684Y-103627284D01*
D31*
X113997600Y-119836617D02*
X113997600Y-107903200D01*
X121364183Y-127203200D02*
X113997600Y-119836617D01*
X122997600Y-102603200D02*
X123897600Y-103503200D01*
D27*
X124021684Y-103627284D02*
X124021684Y-103686125D01*
D31*
X113997600Y-107903200D02*
X119297600Y-102603200D01*
%TO.N,RX_SIN_B*%
X119797600Y-103403200D02*
X121797600Y-103403200D01*
X115797600Y-107403200D02*
X119797600Y-103403200D01*
X121797600Y-103403200D02*
X122997600Y-104603200D01*
X124572600Y-113353200D02*
X117517600Y-113353200D01*
X115797600Y-111633200D02*
X115797600Y-107403200D01*
X117517600Y-113353200D02*
X115797600Y-111633200D01*
D27*
%TO.N,CAN_ADDR0*%
X161442222Y-88188578D02*
X160587600Y-89043200D01*
X160587600Y-89043200D02*
X149367600Y-89043200D01*
X161442222Y-87997822D02*
X161442222Y-88188578D01*
%TO.N,CAN_ADDR1*%
X158642222Y-90797822D02*
X157727600Y-89883200D01*
X157727600Y-89883200D02*
X150147600Y-89883200D01*
X139187957Y-83146547D02*
X140510458Y-81824046D01*
X135518874Y-83146547D02*
X139187957Y-83146547D01*
%TO.N,CAN_ADDR2*%
X138333023Y-82617777D02*
X139962978Y-80987822D01*
X155147600Y-90703200D02*
X150757600Y-90703200D01*
X150757600Y-90703200D02*
X150747600Y-90713200D01*
X134697600Y-82253200D02*
X135612231Y-82253200D01*
X135612231Y-82253200D02*
X135976809Y-82617777D01*
X135976809Y-82617777D02*
X138333023Y-82617777D01*
X156942222Y-92497822D02*
X155147600Y-90703200D01*
%TO.N,CAN_ADDR3*%
X155247600Y-94753200D02*
X155247600Y-92753200D01*
X155247600Y-92753200D02*
X154197600Y-91703200D01*
X135327225Y-81403200D02*
X136142291Y-82218266D01*
X135297600Y-81403200D02*
X135327225Y-81403200D01*
X154197600Y-91703200D02*
X151407600Y-91703200D01*
X137282534Y-82218266D02*
X138547600Y-80953200D01*
X136142291Y-82218266D02*
X137282534Y-82218266D01*
X138547600Y-80953200D02*
X139197600Y-80303200D01*
%TO.N,CAN_ADDR4*%
X140497600Y-78668206D02*
X142247610Y-80418217D01*
X140497600Y-77003200D02*
X140497600Y-78668206D01*
X142247610Y-80418217D02*
X142247610Y-80448227D01*
X154697600Y-97403200D02*
X153677101Y-96382701D01*
X160697600Y-97403200D02*
X154697600Y-97403200D01*
X153677101Y-96382701D02*
X153677101Y-92993456D01*
X140247600Y-76753200D02*
X140497600Y-77003200D01*
X142281859Y-80448227D02*
X142567216Y-80733584D01*
X133837600Y-76883200D02*
X133967600Y-76753200D01*
X153677101Y-92993456D02*
X153286845Y-92603200D01*
X153286845Y-92603200D02*
X152167600Y-92603200D01*
X142247610Y-80448227D02*
X142281859Y-80448227D01*
X133967600Y-76753200D02*
X140247600Y-76753200D01*
%TO.N,CAN_ADDR5*%
X152977600Y-97283200D02*
X152977600Y-93302700D01*
X140497600Y-76303200D02*
X140997600Y-76803200D01*
X140997600Y-76803200D02*
X140997600Y-78603212D01*
X155797600Y-100103200D02*
X152977600Y-97283200D01*
X143228483Y-80034083D02*
X143697600Y-80503200D01*
X142428470Y-80034083D02*
X143228483Y-80034083D01*
X160347600Y-100103200D02*
X155797600Y-100103200D01*
X140997600Y-78603212D02*
X142428470Y-80034083D01*
X134847600Y-76303200D02*
X140497600Y-76303200D01*
X134497600Y-75953200D02*
X134847600Y-76303200D01*
%TD*%
%TA.AperFunction,Conductor*%
%TO.N,GND*%
G36*
X156334600Y-47520081D02*
G01*
X156380719Y-47566200D01*
X156397600Y-47629200D01*
X156397600Y-55163200D01*
X158871600Y-55163200D01*
X158934600Y-55180081D01*
X158980719Y-55226200D01*
X158997600Y-55289200D01*
X158997600Y-62777200D01*
X158980719Y-62840200D01*
X158934600Y-62886319D01*
X158871600Y-62903200D01*
X156497600Y-62903200D01*
X156497600Y-62919790D01*
X156497600Y-64477200D01*
X156480719Y-64540200D01*
X156434600Y-64586319D01*
X156371600Y-64603200D01*
X152723600Y-64603200D01*
X152660600Y-64586319D01*
X152614481Y-64540200D01*
X152597600Y-64477200D01*
X152597600Y-62919790D01*
X152597600Y-62903200D01*
X152581010Y-62903200D01*
X150823600Y-62903200D01*
X150760600Y-62886319D01*
X150714481Y-62840200D01*
X150697600Y-62777200D01*
X150697600Y-61082000D01*
X151365881Y-61082000D01*
X151366360Y-61087475D01*
X151384471Y-61294497D01*
X151384472Y-61294503D01*
X151384951Y-61299977D01*
X151386372Y-61305283D01*
X151386374Y-61305290D01*
X151433885Y-61482603D01*
X151441583Y-61511330D01*
X151534056Y-61709639D01*
X151537209Y-61714142D01*
X151537212Y-61714147D01*
X151610261Y-61818471D01*
X151659560Y-61888877D01*
X151814281Y-62043598D01*
X151993519Y-62169102D01*
X152191828Y-62261575D01*
X152403181Y-62318207D01*
X152621158Y-62337277D01*
X152839135Y-62318207D01*
X153050488Y-62261575D01*
X153248797Y-62169102D01*
X153428035Y-62043598D01*
X153582756Y-61888877D01*
X153708260Y-61709639D01*
X153800733Y-61511330D01*
X153857365Y-61299977D01*
X153876435Y-61082000D01*
X153857365Y-60864023D01*
X153800733Y-60652670D01*
X153708260Y-60454362D01*
X153705105Y-60449856D01*
X153585915Y-60279634D01*
X153585912Y-60279631D01*
X153582756Y-60275123D01*
X153428035Y-60120402D01*
X153287090Y-60021711D01*
X153246114Y-59973734D01*
X153233535Y-59911905D01*
X153252508Y-59851729D01*
X153298276Y-59808297D01*
X153359361Y-59792499D01*
X153502676Y-59792499D01*
X153596462Y-59777646D01*
X153709500Y-59720050D01*
X153799208Y-59630342D01*
X153856804Y-59517304D01*
X153871658Y-59423519D01*
X153871657Y-57660482D01*
X153856804Y-57566696D01*
X153799208Y-57453658D01*
X153709500Y-57363950D01*
X153700668Y-57359450D01*
X153700667Y-57359449D01*
X153605295Y-57310854D01*
X153605291Y-57310852D01*
X153596462Y-57306354D01*
X153586670Y-57304803D01*
X153507567Y-57292274D01*
X153507560Y-57292273D01*
X153502677Y-57291500D01*
X153497723Y-57291500D01*
X151744594Y-57291500D01*
X151744581Y-57291500D01*
X151739640Y-57291501D01*
X151734759Y-57292273D01*
X151734746Y-57292275D01*
X151655651Y-57304802D01*
X151655648Y-57304802D01*
X151645854Y-57306354D01*
X151637017Y-57310856D01*
X151637016Y-57310857D01*
X151541648Y-57359449D01*
X151541644Y-57359451D01*
X151532816Y-57363950D01*
X151525807Y-57370958D01*
X151525804Y-57370961D01*
X151450119Y-57446646D01*
X151450116Y-57446649D01*
X151443108Y-57453658D01*
X151438609Y-57462486D01*
X151438607Y-57462490D01*
X151390012Y-57557862D01*
X151390009Y-57557868D01*
X151385512Y-57566696D01*
X151383961Y-57576485D01*
X151383961Y-57576487D01*
X151371432Y-57655590D01*
X151371431Y-57655598D01*
X151370658Y-57660481D01*
X151370658Y-57665433D01*
X151370658Y-57665434D01*
X151370658Y-59418563D01*
X151370658Y-59418575D01*
X151370659Y-59423518D01*
X151371432Y-59428399D01*
X151371433Y-59428411D01*
X151381873Y-59494328D01*
X151385512Y-59517304D01*
X151390015Y-59526141D01*
X151431212Y-59606996D01*
X151443108Y-59630342D01*
X151532816Y-59720050D01*
X151645854Y-59777646D01*
X151739639Y-59792500D01*
X151882956Y-59792499D01*
X151944039Y-59808297D01*
X151989808Y-59851729D01*
X152008781Y-59911904D01*
X151996202Y-59973733D01*
X151955225Y-60021712D01*
X151818787Y-60117246D01*
X151818780Y-60117251D01*
X151814281Y-60120402D01*
X151810391Y-60124291D01*
X151810385Y-60124297D01*
X151663455Y-60271227D01*
X151663449Y-60271233D01*
X151659560Y-60275123D01*
X151656408Y-60279624D01*
X151656400Y-60279634D01*
X151537210Y-60449856D01*
X151537204Y-60449865D01*
X151534056Y-60454362D01*
X151531734Y-60459340D01*
X151531733Y-60459343D01*
X151443906Y-60647687D01*
X151443903Y-60647693D01*
X151441583Y-60652670D01*
X151440160Y-60657978D01*
X151440160Y-60657980D01*
X151386374Y-60858709D01*
X151386372Y-60858718D01*
X151384951Y-60864023D01*
X151384472Y-60869494D01*
X151384471Y-60869502D01*
X151380386Y-60916202D01*
X151365881Y-61082000D01*
X150697600Y-61082000D01*
X150697600Y-56256000D01*
X150714481Y-56193000D01*
X150760600Y-56146881D01*
X150823600Y-56130000D01*
X151559223Y-56130000D01*
X151561694Y-56130000D01*
X151598569Y-56127098D01*
X151756398Y-56081244D01*
X151897865Y-55997581D01*
X152014081Y-55881365D01*
X152097744Y-55739898D01*
X152133870Y-55615552D01*
X152170801Y-55556850D01*
X152233202Y-55526582D01*
X152302168Y-55533922D01*
X152356802Y-55576645D01*
X152447152Y-55701001D01*
X152447155Y-55701005D01*
X152450478Y-55705578D01*
X152454563Y-55709484D01*
X152454566Y-55709487D01*
X152478409Y-55732283D01*
X152613175Y-55861132D01*
X152801032Y-55985135D01*
X153008012Y-56073603D01*
X153227463Y-56123691D01*
X153452330Y-56133790D01*
X153577100Y-56116888D01*
X153634291Y-56122359D01*
X153683108Y-56152653D01*
X156251381Y-58720926D01*
X156275805Y-58755345D01*
X156285396Y-58788628D01*
X156285864Y-58788522D01*
X156287439Y-58795426D01*
X156288232Y-58802455D01*
X156290568Y-58809131D01*
X156290569Y-58809135D01*
X156345473Y-58966042D01*
X156345475Y-58966046D01*
X156347811Y-58972722D01*
X156443784Y-59125462D01*
X156571338Y-59253016D01*
X156724078Y-59348989D01*
X156894345Y-59408568D01*
X157073600Y-59428765D01*
X157252855Y-59408568D01*
X157423122Y-59348989D01*
X157575862Y-59253016D01*
X157703416Y-59125462D01*
X157799389Y-58972722D01*
X157858968Y-58802455D01*
X157879165Y-58623200D01*
X157858968Y-58443945D01*
X157799389Y-58273678D01*
X157703416Y-58120938D01*
X157575862Y-57993384D01*
X157569868Y-57989618D01*
X157569866Y-57989616D01*
X157429113Y-57901175D01*
X157429110Y-57901173D01*
X157423122Y-57897411D01*
X157416446Y-57895075D01*
X157416442Y-57895073D01*
X157282013Y-57848035D01*
X157252855Y-57837832D01*
X157245824Y-57837039D01*
X157238922Y-57835464D01*
X157239028Y-57834996D01*
X157205746Y-57825405D01*
X157171327Y-57800981D01*
X154649524Y-55279178D01*
X154618356Y-55227672D01*
X154614644Y-55167584D01*
X154615440Y-55163200D01*
X154646500Y-54992047D01*
X154646500Y-54523345D01*
X154631377Y-54355312D01*
X154571493Y-54138330D01*
X154473829Y-53935527D01*
X154435920Y-53883350D01*
X154344847Y-53757998D01*
X154344844Y-53757995D01*
X154341522Y-53753422D01*
X154337435Y-53749515D01*
X154337433Y-53749512D01*
X154208690Y-53626422D01*
X154178825Y-53597868D01*
X153990968Y-53473865D01*
X153983956Y-53470868D01*
X153789196Y-53387623D01*
X153789195Y-53387622D01*
X153783988Y-53385397D01*
X153778475Y-53384138D01*
X153778470Y-53384137D01*
X153570054Y-53336568D01*
X153570051Y-53336567D01*
X153564537Y-53335309D01*
X153554247Y-53334846D01*
X153345320Y-53325463D01*
X153345311Y-53325463D01*
X153339670Y-53325210D01*
X153334077Y-53325967D01*
X153334067Y-53325968D01*
X153122214Y-53354666D01*
X153122210Y-53354666D01*
X153116613Y-53355425D01*
X153111241Y-53357170D01*
X153111234Y-53357172D01*
X152907914Y-53423235D01*
X152907908Y-53423237D01*
X152902536Y-53424983D01*
X152897563Y-53427658D01*
X152897556Y-53427662D01*
X152709301Y-53528966D01*
X152709292Y-53528971D01*
X152704319Y-53531648D01*
X152699902Y-53535169D01*
X152699898Y-53535173D01*
X152532754Y-53668466D01*
X152532746Y-53668472D01*
X152528334Y-53671992D01*
X152524618Y-53676244D01*
X152524614Y-53676249D01*
X152383956Y-53837244D01*
X152383951Y-53837249D01*
X152380235Y-53841504D01*
X152377337Y-53846353D01*
X152377330Y-53846364D01*
X152362518Y-53871156D01*
X152322154Y-53912734D01*
X152267449Y-53931848D01*
X152209974Y-53924456D01*
X152161887Y-53892121D01*
X152133357Y-53841683D01*
X152133305Y-53841504D01*
X152097744Y-53719102D01*
X152092505Y-53710244D01*
X152067798Y-53668466D01*
X152014081Y-53577635D01*
X151897865Y-53461419D01*
X151836255Y-53424983D01*
X151763220Y-53381790D01*
X151763216Y-53381788D01*
X151756398Y-53377756D01*
X151730466Y-53370221D01*
X151604753Y-53333698D01*
X151604747Y-53333696D01*
X151598569Y-53331902D01*
X151592156Y-53331397D01*
X151592149Y-53331396D01*
X151564152Y-53329193D01*
X151564140Y-53329192D01*
X151561694Y-53329000D01*
X150230306Y-53329000D01*
X150227860Y-53329192D01*
X150227847Y-53329193D01*
X150199850Y-53331396D01*
X150199841Y-53331397D01*
X150193431Y-53331902D01*
X150187254Y-53333696D01*
X150187246Y-53333698D01*
X150043215Y-53375544D01*
X150043213Y-53375544D01*
X150035602Y-53377756D01*
X150028785Y-53381787D01*
X150028779Y-53381790D01*
X149900955Y-53457385D01*
X149900951Y-53457387D01*
X149894135Y-53461419D01*
X149888533Y-53467020D01*
X149888529Y-53467024D01*
X149783524Y-53572029D01*
X149783520Y-53572033D01*
X149777919Y-53577635D01*
X149773887Y-53584451D01*
X149773885Y-53584455D01*
X149698290Y-53712279D01*
X149698287Y-53712285D01*
X149694256Y-53719102D01*
X149692044Y-53726713D01*
X149692044Y-53726715D01*
X149650198Y-53870746D01*
X149650196Y-53870754D01*
X149648402Y-53876931D01*
X149647897Y-53883341D01*
X149647896Y-53883350D01*
X149645693Y-53911347D01*
X149645692Y-53911360D01*
X149645500Y-53913806D01*
X149645500Y-55545194D01*
X149645692Y-55547640D01*
X149645693Y-55547652D01*
X149647896Y-55575649D01*
X149647897Y-55575656D01*
X149648402Y-55582069D01*
X149650196Y-55588247D01*
X149650198Y-55588253D01*
X149673837Y-55669616D01*
X149694256Y-55739898D01*
X149698288Y-55746716D01*
X149698290Y-55746720D01*
X149762335Y-55855014D01*
X149777919Y-55881365D01*
X149783524Y-55886970D01*
X149784659Y-55888105D01*
X149785615Y-55889666D01*
X149788381Y-55893231D01*
X149787987Y-55893536D01*
X149815397Y-55938264D01*
X149820013Y-55996911D01*
X149797500Y-56051261D01*
X149752767Y-56089467D01*
X149695564Y-56103200D01*
X143914190Y-56103200D01*
X143897600Y-56103200D01*
X143897600Y-56119790D01*
X143897600Y-57069200D01*
X143880719Y-57132200D01*
X143834600Y-57178319D01*
X143771600Y-57195200D01*
X143309954Y-57195200D01*
X143247772Y-57178787D01*
X143201790Y-57133825D01*
X143183986Y-57072027D01*
X143198999Y-57009493D01*
X143242918Y-56962513D01*
X143249310Y-56958496D01*
X143289862Y-56933016D01*
X143417416Y-56805462D01*
X143513389Y-56652722D01*
X143572968Y-56482455D01*
X143593165Y-56303200D01*
X143572968Y-56123945D01*
X143513389Y-55953678D01*
X143509624Y-55947686D01*
X143421183Y-55806933D01*
X143421182Y-55806932D01*
X143417416Y-55800938D01*
X143289862Y-55673384D01*
X143283868Y-55669618D01*
X143283866Y-55669616D01*
X143143113Y-55581175D01*
X143143110Y-55581173D01*
X143137122Y-55577411D01*
X143130446Y-55575075D01*
X143130442Y-55575073D01*
X142973532Y-55520168D01*
X142973528Y-55520167D01*
X142966855Y-55517832D01*
X142959828Y-55517040D01*
X142959827Y-55517040D01*
X142822871Y-55501609D01*
X142787600Y-55497635D01*
X142763537Y-55500346D01*
X142615372Y-55517040D01*
X142615369Y-55517040D01*
X142608345Y-55517832D01*
X142601673Y-55520166D01*
X142601667Y-55520168D01*
X142444757Y-55575073D01*
X142444750Y-55575076D01*
X142438078Y-55577411D01*
X142432092Y-55581171D01*
X142432086Y-55581175D01*
X142291333Y-55669616D01*
X142291326Y-55669621D01*
X142285338Y-55673384D01*
X142280333Y-55678388D01*
X142280329Y-55678392D01*
X142162792Y-55795929D01*
X142162788Y-55795933D01*
X142157784Y-55800938D01*
X142154021Y-55806926D01*
X142154016Y-55806933D01*
X142065575Y-55947686D01*
X142065571Y-55947692D01*
X142061811Y-55953678D01*
X142059476Y-55960350D01*
X142059473Y-55960357D01*
X142004568Y-56117267D01*
X142004566Y-56117273D01*
X142002232Y-56123945D01*
X142001440Y-56130969D01*
X142001440Y-56130972D01*
X141999648Y-56146881D01*
X141982035Y-56303200D01*
X141982827Y-56310229D01*
X141982827Y-56310234D01*
X141985139Y-56330758D01*
X141978860Y-56386478D01*
X141949027Y-56433957D01*
X141627191Y-56755795D01*
X141586313Y-56783109D01*
X141538095Y-56792700D01*
X136450103Y-56792700D01*
X136392900Y-56778967D01*
X136348167Y-56740761D01*
X136325654Y-56686411D01*
X136330270Y-56627764D01*
X136361008Y-56577605D01*
X136887352Y-56051261D01*
X137442137Y-55496475D01*
X137503200Y-55462729D01*
X137564421Y-55466173D01*
X137564768Y-55464656D01*
X137571661Y-55466229D01*
X137578345Y-55468568D01*
X137757600Y-55488765D01*
X137936855Y-55468568D01*
X138107122Y-55408989D01*
X138259862Y-55313016D01*
X138387416Y-55185462D01*
X138483389Y-55032722D01*
X138542968Y-54862455D01*
X138563165Y-54683200D01*
X138542968Y-54503945D01*
X138483389Y-54333678D01*
X138387416Y-54180938D01*
X138259862Y-54053384D01*
X138253868Y-54049618D01*
X138253866Y-54049616D01*
X138113113Y-53961175D01*
X138113110Y-53961173D01*
X138107122Y-53957411D01*
X138100446Y-53955075D01*
X138100442Y-53955073D01*
X137943532Y-53900168D01*
X137943528Y-53900167D01*
X137936855Y-53897832D01*
X137929828Y-53897040D01*
X137929827Y-53897040D01*
X137764629Y-53878427D01*
X137757600Y-53877635D01*
X137750571Y-53878427D01*
X137585372Y-53897040D01*
X137585369Y-53897040D01*
X137578345Y-53897832D01*
X137571673Y-53900166D01*
X137571667Y-53900168D01*
X137414757Y-53955073D01*
X137414750Y-53955076D01*
X137408078Y-53957411D01*
X137402092Y-53961171D01*
X137402086Y-53961175D01*
X137261333Y-54049616D01*
X137261326Y-54049621D01*
X137255338Y-54053384D01*
X137250333Y-54058388D01*
X137250329Y-54058392D01*
X137132792Y-54175929D01*
X137132788Y-54175933D01*
X137127784Y-54180938D01*
X137124021Y-54186926D01*
X137124016Y-54186933D01*
X137035575Y-54327686D01*
X137035571Y-54327692D01*
X137031811Y-54333678D01*
X137029476Y-54340350D01*
X137029473Y-54340357D01*
X137008895Y-54399167D01*
X136972232Y-54503945D01*
X136971441Y-54510964D01*
X136971438Y-54510978D01*
X136971223Y-54512894D01*
X136970158Y-54516589D01*
X136969864Y-54517878D01*
X136969791Y-54517861D01*
X136959536Y-54553451D01*
X136935111Y-54587873D01*
X134364691Y-57158295D01*
X134323814Y-57185609D01*
X134275596Y-57195200D01*
X127299603Y-57195200D01*
X127251385Y-57185609D01*
X127210511Y-57158297D01*
X126234502Y-56182288D01*
X126207191Y-56141414D01*
X126197600Y-56093196D01*
X126197600Y-55418194D01*
X127830500Y-55418194D01*
X127830692Y-55420640D01*
X127830693Y-55420652D01*
X127832896Y-55448649D01*
X127832897Y-55448656D01*
X127833402Y-55455069D01*
X127835196Y-55461247D01*
X127835198Y-55461253D01*
X127870299Y-55582069D01*
X127879256Y-55612898D01*
X127883288Y-55619716D01*
X127883290Y-55619720D01*
X127936378Y-55709487D01*
X127962919Y-55754365D01*
X128079135Y-55870581D01*
X128117950Y-55893536D01*
X128209810Y-55947862D01*
X128220602Y-55954244D01*
X128378431Y-56000098D01*
X128415306Y-56003000D01*
X129744223Y-56003000D01*
X129746694Y-56003000D01*
X129783569Y-56000098D01*
X129941398Y-55954244D01*
X130082865Y-55870581D01*
X130199081Y-55754365D01*
X130282744Y-55612898D01*
X130318870Y-55488552D01*
X130355801Y-55429850D01*
X130418202Y-55399582D01*
X130487168Y-55406922D01*
X130541802Y-55449645D01*
X130632152Y-55574001D01*
X130632155Y-55574005D01*
X130635478Y-55578578D01*
X130639563Y-55582484D01*
X130639566Y-55582487D01*
X130663409Y-55605283D01*
X130798175Y-55734132D01*
X130986032Y-55858135D01*
X131193012Y-55946603D01*
X131412463Y-55996691D01*
X131637330Y-56006790D01*
X131860387Y-55976575D01*
X132074464Y-55907017D01*
X132272681Y-55800352D01*
X132448666Y-55660008D01*
X132596765Y-55490496D01*
X132712215Y-55297264D01*
X132791307Y-55086524D01*
X132831500Y-54865047D01*
X132831500Y-54396345D01*
X132816377Y-54228312D01*
X132756493Y-54011330D01*
X132658829Y-53808527D01*
X132599389Y-53726715D01*
X132529847Y-53630998D01*
X132529844Y-53630995D01*
X132526522Y-53626422D01*
X132522435Y-53622515D01*
X132522433Y-53622512D01*
X132424591Y-53528966D01*
X132363825Y-53470868D01*
X132175968Y-53346865D01*
X132148337Y-53335055D01*
X131974196Y-53260623D01*
X131974195Y-53260622D01*
X131968988Y-53258397D01*
X131963475Y-53257138D01*
X131963470Y-53257137D01*
X131755054Y-53209568D01*
X131755051Y-53209567D01*
X131749537Y-53208309D01*
X131739247Y-53207846D01*
X131530320Y-53198463D01*
X131530311Y-53198463D01*
X131524670Y-53198210D01*
X131519077Y-53198967D01*
X131519067Y-53198968D01*
X131307214Y-53227666D01*
X131307210Y-53227666D01*
X131301613Y-53228425D01*
X131296241Y-53230170D01*
X131296234Y-53230172D01*
X131092914Y-53296235D01*
X131092908Y-53296237D01*
X131087536Y-53297983D01*
X131082563Y-53300658D01*
X131082556Y-53300662D01*
X130894301Y-53401966D01*
X130894292Y-53401971D01*
X130889319Y-53404648D01*
X130884902Y-53408169D01*
X130884898Y-53408173D01*
X130717754Y-53541466D01*
X130717746Y-53541472D01*
X130713334Y-53544992D01*
X130709618Y-53549244D01*
X130709614Y-53549249D01*
X130568956Y-53710244D01*
X130568951Y-53710249D01*
X130565235Y-53714504D01*
X130562337Y-53719353D01*
X130562330Y-53719364D01*
X130547518Y-53744156D01*
X130507154Y-53785734D01*
X130452449Y-53804848D01*
X130394974Y-53797456D01*
X130346887Y-53765121D01*
X130318357Y-53714683D01*
X130317659Y-53712279D01*
X130282744Y-53592102D01*
X130199081Y-53450635D01*
X130082865Y-53334419D01*
X130067721Y-53325463D01*
X129948220Y-53254790D01*
X129948216Y-53254788D01*
X129941398Y-53250756D01*
X129915466Y-53243221D01*
X129789753Y-53206698D01*
X129789747Y-53206696D01*
X129783569Y-53204902D01*
X129777156Y-53204397D01*
X129777149Y-53204396D01*
X129749152Y-53202193D01*
X129749140Y-53202192D01*
X129746694Y-53202000D01*
X128415306Y-53202000D01*
X128412860Y-53202192D01*
X128412847Y-53202193D01*
X128384850Y-53204396D01*
X128384841Y-53204397D01*
X128378431Y-53204902D01*
X128372254Y-53206696D01*
X128372246Y-53206698D01*
X128228215Y-53248544D01*
X128228213Y-53248544D01*
X128220602Y-53250756D01*
X128213785Y-53254787D01*
X128213779Y-53254790D01*
X128085955Y-53330385D01*
X128085951Y-53330387D01*
X128079135Y-53334419D01*
X128073533Y-53340020D01*
X128073529Y-53340024D01*
X127968524Y-53445029D01*
X127968520Y-53445033D01*
X127962919Y-53450635D01*
X127958887Y-53457451D01*
X127958885Y-53457455D01*
X127883290Y-53585279D01*
X127883287Y-53585285D01*
X127879256Y-53592102D01*
X127877044Y-53599713D01*
X127877044Y-53599715D01*
X127835198Y-53743746D01*
X127835196Y-53743754D01*
X127833402Y-53749931D01*
X127832897Y-53756341D01*
X127832896Y-53756350D01*
X127830693Y-53784347D01*
X127830692Y-53784360D01*
X127830500Y-53786806D01*
X127830500Y-55418194D01*
X126197600Y-55418194D01*
X126197600Y-50803200D01*
X139392035Y-50803200D01*
X139412232Y-50982455D01*
X139414567Y-50989128D01*
X139414568Y-50989132D01*
X139469473Y-51146042D01*
X139469475Y-51146046D01*
X139471811Y-51152722D01*
X139567784Y-51305462D01*
X139695338Y-51433016D01*
X139848078Y-51528989D01*
X140018345Y-51588568D01*
X140197600Y-51608765D01*
X140376855Y-51588568D01*
X140547122Y-51528989D01*
X140699862Y-51433016D01*
X140763505Y-51369372D01*
X140819989Y-51336761D01*
X140885211Y-51336761D01*
X140941695Y-51369373D01*
X141005338Y-51433016D01*
X141158078Y-51528989D01*
X141328345Y-51588568D01*
X141507600Y-51608765D01*
X141686855Y-51588568D01*
X141857122Y-51528989D01*
X142009862Y-51433016D01*
X142137416Y-51305462D01*
X142233389Y-51152722D01*
X142292968Y-50982455D01*
X142313165Y-50803200D01*
X142292968Y-50623945D01*
X142233389Y-50453678D01*
X142137416Y-50300938D01*
X142009862Y-50173384D01*
X142003868Y-50169618D01*
X142003866Y-50169616D01*
X141863113Y-50081175D01*
X141863110Y-50081173D01*
X141857122Y-50077411D01*
X141850446Y-50075075D01*
X141850442Y-50075073D01*
X141693532Y-50020168D01*
X141693528Y-50020167D01*
X141686855Y-50017832D01*
X141679828Y-50017040D01*
X141679827Y-50017040D01*
X141514629Y-49998427D01*
X141507600Y-49997635D01*
X141500571Y-49998427D01*
X141335372Y-50017040D01*
X141335369Y-50017040D01*
X141328345Y-50017832D01*
X141321673Y-50020166D01*
X141321667Y-50020168D01*
X141164757Y-50075073D01*
X141164750Y-50075076D01*
X141158078Y-50077411D01*
X141152092Y-50081171D01*
X141152086Y-50081175D01*
X141011333Y-50169616D01*
X141011326Y-50169621D01*
X141005338Y-50173384D01*
X141000333Y-50178388D01*
X141000329Y-50178392D01*
X140941695Y-50237027D01*
X140885211Y-50269639D01*
X140819989Y-50269639D01*
X140763505Y-50237027D01*
X140704870Y-50178392D01*
X140699862Y-50173384D01*
X140693868Y-50169618D01*
X140693866Y-50169616D01*
X140553113Y-50081175D01*
X140553110Y-50081173D01*
X140547122Y-50077411D01*
X140540446Y-50075075D01*
X140540442Y-50075073D01*
X140383532Y-50020168D01*
X140383528Y-50020167D01*
X140376855Y-50017832D01*
X140369828Y-50017040D01*
X140369827Y-50017040D01*
X140204629Y-49998427D01*
X140197600Y-49997635D01*
X140190571Y-49998427D01*
X140025372Y-50017040D01*
X140025369Y-50017040D01*
X140018345Y-50017832D01*
X140011673Y-50020166D01*
X140011667Y-50020168D01*
X139854757Y-50075073D01*
X139854750Y-50075076D01*
X139848078Y-50077411D01*
X139842092Y-50081171D01*
X139842086Y-50081175D01*
X139701333Y-50169616D01*
X139701326Y-50169621D01*
X139695338Y-50173384D01*
X139690333Y-50178388D01*
X139690329Y-50178392D01*
X139572792Y-50295929D01*
X139572788Y-50295933D01*
X139567784Y-50300938D01*
X139564021Y-50306926D01*
X139564016Y-50306933D01*
X139475575Y-50447686D01*
X139475571Y-50447692D01*
X139471811Y-50453678D01*
X139469476Y-50460350D01*
X139469473Y-50460357D01*
X139414568Y-50617267D01*
X139414566Y-50617273D01*
X139412232Y-50623945D01*
X139392035Y-50803200D01*
X126197600Y-50803200D01*
X126197600Y-47629200D01*
X126214481Y-47566200D01*
X126260600Y-47520081D01*
X126323600Y-47503200D01*
X156271600Y-47503200D01*
X156334600Y-47520081D01*
G37*
%TD.AperFunction*%
%TD*%
%TA.AperFunction,Conductor*%
%TO.N,MOTOR_A1*%
G36*
X150206472Y-78345757D02*
G01*
X150252591Y-78391876D01*
X150269472Y-78454876D01*
X150269472Y-79574476D01*
X150252591Y-79637476D01*
X150206472Y-79683595D01*
X150143472Y-79700476D01*
X147575291Y-79700476D01*
X147512518Y-79683726D01*
X147466434Y-79637928D01*
X147449293Y-79575260D01*
X147442359Y-78461531D01*
X147459166Y-78397872D01*
X147505786Y-78351381D01*
X147569490Y-78334752D01*
X149167936Y-78349153D01*
X149861220Y-78328930D01*
X149864895Y-78328876D01*
X150143472Y-78328876D01*
X150206472Y-78345757D01*
G37*
%TD.AperFunction*%
%TD*%
M02*
