%TF.GenerationSoftware,KiCad,Pcbnew,(7.0.0)*%
%TF.CreationDate,2023-03-13T17:48:54-07:00*%
%TF.ProjectId,DaisyStepperDriver,44616973-7953-4746-9570-706572447269,rev?*%
%TF.SameCoordinates,Original*%
%TF.FileFunction,Soldermask,Top*%
%TF.FilePolarity,Negative*%
%FSLAX46Y46*%
G04 Gerber Fmt 4.6, Leading zero omitted, Abs format (unit mm)*
G04 Created by KiCad (PCBNEW (7.0.0)) date 2023-03-13 17:48:54*
%MOMM*%
%LPD*%
G01*
G04 APERTURE LIST*
G04 Aperture macros list*
%AMRoundRect*
0 Rectangle with rounded corners*
0 $1 Rounding radius*
0 $2 $3 $4 $5 $6 $7 $8 $9 X,Y pos of 4 corners*
0 Add a 4 corners polygon primitive as box body*
4,1,4,$2,$3,$4,$5,$6,$7,$8,$9,$2,$3,0*
0 Add four circle primitives for the rounded corners*
1,1,$1+$1,$2,$3*
1,1,$1+$1,$4,$5*
1,1,$1+$1,$6,$7*
1,1,$1+$1,$8,$9*
0 Add four rect primitives between the rounded corners*
20,1,$1+$1,$2,$3,$4,$5,0*
20,1,$1+$1,$4,$5,$6,$7,0*
20,1,$1+$1,$6,$7,$8,$9,0*
20,1,$1+$1,$8,$9,$2,$3,0*%
%AMRotRect*
0 Rectangle, with rotation*
0 The origin of the aperture is its center*
0 $1 length*
0 $2 width*
0 $3 Rotation angle, in degrees counterclockwise*
0 Add horizontal line*
21,1,$1,$2,0,0,$3*%
G04 Aperture macros list end*
%ADD10C,0.120000*%
%ADD11R,0.900000X1.200000*%
%ADD12RoundRect,0.150001X0.220203X0.253003X-0.334524X0.024361X-0.220203X-0.253003X0.334524X-0.024361X0*%
%ADD13RoundRect,0.150001X0.334686X0.022025X-0.218432X0.254534X-0.334686X-0.022025X0.218432X-0.254534X0*%
%ADD14RoundRect,0.150001X0.300000X0.150000X-0.300000X0.150000X-0.300000X-0.150000X0.300000X-0.150000X0*%
%ADD15C,0.600002*%
%ADD16RoundRect,0.225000X0.017678X-0.335876X0.335876X-0.017678X-0.017678X0.335876X-0.335876X0.017678X0*%
%ADD17RoundRect,0.225000X-0.017678X0.335876X-0.335876X0.017678X0.017678X-0.335876X0.335876X-0.017678X0*%
%ADD18R,0.650000X1.050000*%
%ADD19RoundRect,0.250000X-0.250000X-0.475000X0.250000X-0.475000X0.250000X0.475000X-0.250000X0.475000X0*%
%ADD20RoundRect,0.225000X0.225000X0.250000X-0.225000X0.250000X-0.225000X-0.250000X0.225000X-0.250000X0*%
%ADD21RoundRect,0.225000X-0.250000X0.225000X-0.250000X-0.225000X0.250000X-0.225000X0.250000X0.225000X0*%
%ADD22R,1.700000X1.700000*%
%ADD23O,1.700000X1.700000*%
%ADD24RoundRect,0.225000X0.335876X0.017678X0.017678X0.335876X-0.335876X-0.017678X-0.017678X-0.335876X0*%
%ADD25R,1.300000X1.000000*%
%ADD26RoundRect,0.200000X0.200000X0.275000X-0.200000X0.275000X-0.200000X-0.275000X0.200000X-0.275000X0*%
%ADD27RoundRect,0.200000X-0.335876X-0.053033X-0.053033X-0.335876X0.335876X0.053033X0.053033X0.335876X0*%
%ADD28RoundRect,0.200000X0.335876X0.053033X0.053033X0.335876X-0.335876X-0.053033X-0.053033X-0.335876X0*%
%ADD29R,0.450000X0.600000*%
%ADD30RoundRect,0.200000X-0.200000X-0.275000X0.200000X-0.275000X0.200000X0.275000X-0.200000X0.275000X0*%
%ADD31RotRect,1.900000X1.100000X225.000000*%
%ADD32RoundRect,0.250000X-0.312500X-0.625000X0.312500X-0.625000X0.312500X0.625000X-0.312500X0.625000X0*%
%ADD33RoundRect,0.218750X0.218750X0.256250X-0.218750X0.256250X-0.218750X-0.256250X0.218750X-0.256250X0*%
%ADD34RoundRect,0.250000X-1.450000X0.312500X-1.450000X-0.312500X1.450000X-0.312500X1.450000X0.312500X0*%
%ADD35RoundRect,0.250000X1.250000X0.550000X-1.250000X0.550000X-1.250000X-0.550000X1.250000X-0.550000X0*%
%ADD36RoundRect,0.225000X-0.335876X-0.017678X-0.017678X-0.335876X0.335876X0.017678X0.017678X0.335876X0*%
%ADD37R,2.000000X1.100000*%
%ADD38R,0.800000X0.800000*%
%ADD39R,2.200000X0.800000*%
%ADD40R,6.400000X5.800000*%
%ADD41RoundRect,0.150000X0.587500X0.150000X-0.587500X0.150000X-0.587500X-0.150000X0.587500X-0.150000X0*%
%ADD42R,2.400000X2.400000*%
%ADD43C,2.400000*%
%ADD44RoundRect,0.250000X-0.600000X-0.750000X0.600000X-0.750000X0.600000X0.750000X-0.600000X0.750000X0*%
%ADD45O,1.700000X2.000000*%
%ADD46RoundRect,0.150000X0.512500X0.150000X-0.512500X0.150000X-0.512500X-0.150000X0.512500X-0.150000X0*%
%ADD47R,2.440000X1.120000*%
%ADD48RoundRect,0.100000X0.521491X-0.380070X-0.380070X0.521491X-0.521491X0.380070X0.380070X-0.521491X0*%
%ADD49R,1.650000X0.400000*%
%ADD50R,2.000000X1.350000*%
%ADD51R,1.500000X2.000000*%
%ADD52R,2.500000X1.430000*%
%ADD53R,0.700000X1.825000*%
%ADD54O,1.700000X1.350000*%
%ADD55O,1.500000X1.100000*%
%ADD56RoundRect,0.075000X0.075000X-0.662500X0.075000X0.662500X-0.075000X0.662500X-0.075000X-0.662500X0*%
%ADD57RoundRect,0.075000X0.662500X-0.075000X0.662500X0.075000X-0.662500X0.075000X-0.662500X-0.075000X0*%
%ADD58R,5.000000X5.000000*%
%ADD59RoundRect,0.225000X-0.225000X-0.250000X0.225000X-0.250000X0.225000X0.250000X-0.225000X0.250000X0*%
%ADD60RoundRect,0.250000X0.250000X0.475000X-0.250000X0.475000X-0.250000X-0.475000X0.250000X-0.475000X0*%
%ADD61RoundRect,0.225000X0.250000X-0.225000X0.250000X0.225000X-0.250000X0.225000X-0.250000X-0.225000X0*%
%ADD62RoundRect,0.250000X0.725000X-0.600000X0.725000X0.600000X-0.725000X0.600000X-0.725000X-0.600000X0*%
%ADD63O,1.950000X1.700000*%
%ADD64RoundRect,0.150000X0.150000X-0.825000X0.150000X0.825000X-0.150000X0.825000X-0.150000X-0.825000X0*%
%ADD65RotRect,1.500000X0.900000X135.000000*%
%ADD66RoundRect,0.200000X-0.275000X0.200000X-0.275000X-0.200000X0.275000X-0.200000X0.275000X0.200000X0*%
%ADD67RoundRect,0.218750X-0.026517X0.335876X-0.335876X0.026517X0.026517X-0.335876X0.335876X-0.026517X0*%
%ADD68RoundRect,0.200000X0.275000X-0.200000X0.275000X0.200000X-0.275000X0.200000X-0.275000X-0.200000X0*%
%ADD69R,2.400000X0.740000*%
%ADD70RoundRect,0.075000X0.548008X-0.441942X-0.441942X0.548008X-0.548008X0.441942X0.441942X-0.548008X0*%
%ADD71RoundRect,0.075000X0.548008X0.441942X0.441942X0.548008X-0.548008X-0.441942X-0.441942X-0.548008X0*%
%ADD72RoundRect,0.250000X0.550000X-1.250000X0.550000X1.250000X-0.550000X1.250000X-0.550000X-1.250000X0*%
G04 APERTURE END LIST*
D10*
%TO.C,D6*%
X164900000Y-71050200D02*
X164900000Y-71850200D01*
X167200000Y-72250200D02*
X167400000Y-72250200D01*
X164900000Y-71850200D02*
X165350000Y-71450200D01*
X165350000Y-71450200D02*
X164900000Y-71050200D01*
X167400000Y-70650200D02*
X167200000Y-70650200D01*
X167400000Y-72250200D02*
X167400000Y-70650200D01*
%TO.C,D5*%
X167360000Y-79870200D02*
X167360000Y-78270200D01*
X167160000Y-79870200D02*
X167360000Y-79870200D01*
X165310000Y-79070200D02*
X164860000Y-78670200D01*
X164860000Y-78670200D02*
X164860000Y-79470200D01*
X167360000Y-78270200D02*
X167160000Y-78270200D01*
X164860000Y-79470200D02*
X165310000Y-79070200D01*
%TO.C,D8*%
X132001601Y-68592460D02*
X130905585Y-68132840D01*
X131612692Y-67425733D02*
X132001601Y-68592460D01*
X130834874Y-69759186D02*
X131329849Y-69264211D01*
X130905585Y-68132840D02*
X131612692Y-67425733D01*
X129915636Y-70678425D02*
X130410610Y-70183450D01*
X131754113Y-68839947D02*
X132249088Y-68344972D01*
X131082362Y-69511698D02*
X129986346Y-69052079D01*
X129067107Y-69971318D02*
X129774214Y-69264211D01*
X129986346Y-69052079D02*
X130693453Y-68344972D01*
X129774214Y-69264211D02*
X130163123Y-70430937D01*
X130693453Y-68344972D02*
X131082362Y-69511698D01*
X130163123Y-70430937D02*
X129067107Y-69971318D01*
%TO.C,D4*%
X164860000Y-76409600D02*
X164860000Y-77209600D01*
X167360000Y-76009600D02*
X167160000Y-76009600D01*
X164860000Y-77209600D02*
X165310000Y-76809600D01*
X165310000Y-76809600D02*
X164860000Y-76409600D01*
X167360000Y-77609600D02*
X167360000Y-76009600D01*
X167160000Y-77609600D02*
X167360000Y-77609600D01*
%TO.C,D7*%
X164880000Y-73717200D02*
X164880000Y-74517200D01*
X164880000Y-74517200D02*
X165330000Y-74117200D01*
X165330000Y-74117200D02*
X164880000Y-73717200D01*
X167380000Y-73317200D02*
X167180000Y-73317200D01*
X167380000Y-74917200D02*
X167380000Y-73317200D01*
X167180000Y-74917200D02*
X167380000Y-74917200D01*
%TD*%
D11*
%TO.C,D9*%
X163729399Y-65354199D03*
X167029399Y-65354199D03*
%TD*%
D12*
%TO.C,MM1*%
X124835471Y-127796099D03*
X124572600Y-127163200D03*
D13*
X124272600Y-114013200D03*
X124572600Y-113353200D03*
D14*
X123222600Y-120224055D03*
X123222600Y-120224055D03*
D15*
X146104580Y-129924052D03*
X153685880Y-114974055D03*
X150726370Y-125298757D03*
X126175880Y-127344055D03*
X144473272Y-111911863D03*
X151475994Y-123497348D03*
X128375393Y-125469653D03*
X144299673Y-130670156D03*
X137588497Y-128541751D03*
X132725880Y-123670947D03*
X146225880Y-107654055D03*
X149344076Y-116782659D03*
X135825085Y-132798755D03*
X151475994Y-116956363D03*
X144303082Y-109783458D03*
X146271978Y-132883955D03*
X132714285Y-116782659D03*
X149347485Y-123670947D03*
X150726370Y-115154760D03*
X153605880Y-125374055D03*
X137588497Y-111911960D03*
X128460165Y-115026762D03*
X144473272Y-128541654D03*
X135789791Y-107569659D03*
X125415880Y-114674055D03*
X146101171Y-110529562D03*
X126932583Y-120226855D03*
%TD*%
D16*
%TO.C,C34*%
X125849592Y-98101208D03*
X126945608Y-97005192D03*
%TD*%
D17*
%TO.C,C27*%
X125068616Y-105132184D03*
X123972600Y-106228200D03*
%TD*%
D16*
%TO.C,C35*%
X126649592Y-99501208D03*
X127745608Y-98405192D03*
%TD*%
D17*
%TO.C,C29*%
X123195608Y-104905192D03*
X122099592Y-106001208D03*
%TD*%
D18*
%TO.C,SW1*%
X110442599Y-91618199D03*
X110442599Y-95768199D03*
X112592599Y-91618199D03*
X112592599Y-95768199D03*
%TD*%
D19*
%TO.C,C4*%
X117109200Y-59359800D03*
X119009200Y-59359800D03*
%TD*%
D20*
%TO.C,C15*%
X162623533Y-71374000D03*
X161073533Y-71374000D03*
%TD*%
D21*
%TO.C,C3*%
X114707600Y-92858200D03*
X114707600Y-94408200D03*
%TD*%
D22*
%TO.C,JP1*%
X152621157Y-58541999D03*
D23*
X152621157Y-61081999D03*
%TD*%
D24*
%TO.C,C33*%
X117347600Y-96993200D03*
X116251584Y-95897184D03*
%TD*%
D25*
%TO.C,SW2*%
X110355096Y-78331887D03*
X114255096Y-80081887D03*
X110355096Y-81831887D03*
%TD*%
D16*
%TO.C,C12*%
X139253592Y-84063208D03*
X140349608Y-82967192D03*
%TD*%
D26*
%TO.C,R18*%
X126414800Y-69748400D03*
X124764800Y-69748400D03*
%TD*%
D24*
%TO.C,C24*%
X123295608Y-96301208D03*
X122199592Y-95205192D03*
%TD*%
D26*
%TO.C,R7*%
X125272600Y-57093200D03*
X123622600Y-57093200D03*
%TD*%
D27*
%TO.C,R2*%
X126264237Y-102094837D03*
X127430963Y-103261563D03*
%TD*%
%TO.C,R3*%
X125180874Y-103136474D03*
X126347600Y-104303200D03*
%TD*%
D28*
%TO.C,R12*%
X113411000Y-102489000D03*
X112244274Y-101322274D03*
%TD*%
D29*
%TO.C,D1*%
X113097999Y-65027866D03*
X113097999Y-67127866D03*
%TD*%
D30*
%TO.C,R9*%
X129089000Y-62909800D03*
X130739000Y-62909800D03*
%TD*%
D22*
%TO.C,J8*%
X117103463Y-84838199D03*
D23*
X117103463Y-82298199D03*
X119643463Y-84838199D03*
X119643463Y-82298199D03*
X122183463Y-84838199D03*
X122183463Y-82298199D03*
%TD*%
D31*
%TO.C,Y1*%
X140998319Y-86857616D03*
X138382024Y-89473911D03*
X140008369Y-91100256D03*
X142624664Y-88483961D03*
%TD*%
D29*
%TO.C,D2*%
X111153999Y-65018866D03*
X111153999Y-67118866D03*
%TD*%
D32*
%TO.C,R13*%
X153221704Y-67335400D03*
X156146704Y-67335400D03*
%TD*%
D26*
%TO.C,R19*%
X126414800Y-71272400D03*
X124764800Y-71272400D03*
%TD*%
D17*
%TO.C,C7*%
X133324600Y-88468200D03*
X132228584Y-89564216D03*
%TD*%
D20*
%TO.C,C21*%
X160160000Y-81254600D03*
X158610000Y-81254600D03*
%TD*%
D33*
%TO.C,D3*%
X130708500Y-61391800D03*
X129133500Y-61391800D03*
%TD*%
D24*
%TO.C,C26*%
X123997600Y-108401208D03*
X122901584Y-107305192D03*
%TD*%
D34*
%TO.C,F1*%
X112082000Y-59241367D03*
X112082000Y-63516367D03*
%TD*%
D35*
%TO.C,C40*%
X170377600Y-59703200D03*
X165977600Y-59703200D03*
%TD*%
D36*
%TO.C,C1*%
X137288337Y-91224929D03*
X138384353Y-92320945D03*
%TD*%
D20*
%TO.C,C13*%
X148428258Y-74389555D03*
X146878258Y-74389555D03*
%TD*%
D37*
%TO.C,D6*%
X166349999Y-71450199D03*
D38*
X164449999Y-71450199D03*
%TD*%
D28*
%TO.C,R14*%
X115116044Y-101332200D03*
X113949318Y-100165474D03*
%TD*%
D26*
%TO.C,R17*%
X126414800Y-68224400D03*
X124764800Y-68224400D03*
%TD*%
D19*
%TO.C,C11*%
X119096943Y-68453000D03*
X120996943Y-68453000D03*
%TD*%
D39*
%TO.C,U1*%
X117719999Y-61600999D03*
X117719999Y-62740999D03*
D40*
X124019999Y-63880999D03*
D39*
X117719999Y-65020999D03*
X117719999Y-66160999D03*
%TD*%
D41*
%TO.C,U7*%
X114695100Y-57511502D03*
X114695100Y-55611502D03*
X112820100Y-56561502D03*
%TD*%
D42*
%TO.C,J6*%
X162722599Y-51478199D03*
D43*
X159222600Y-51478200D03*
%TD*%
D20*
%TO.C,C25*%
X141498000Y-56313200D03*
X139948000Y-56313200D03*
%TD*%
D36*
%TO.C,C30*%
X118799592Y-104055192D03*
X119895608Y-105151208D03*
%TD*%
D24*
%TO.C,C36*%
X137565608Y-74261208D03*
X136469592Y-73165192D03*
%TD*%
D44*
%TO.C,J3*%
X129081000Y-54602500D03*
D45*
X131580999Y-54602499D03*
%TD*%
D17*
%TO.C,C6*%
X124385608Y-77745192D03*
X123289592Y-78841208D03*
%TD*%
D46*
%TO.C,U5*%
X118841100Y-73289200D03*
X118841100Y-72339200D03*
X118841100Y-71389200D03*
X116566100Y-71389200D03*
X116566100Y-72339200D03*
X116566100Y-73289200D03*
%TD*%
D47*
%TO.C,SW4*%
X171337363Y-100023199D03*
X171337363Y-97483199D03*
X171337363Y-94943199D03*
X171337363Y-92403199D03*
X171337363Y-89863199D03*
X171337363Y-87323199D03*
X162727363Y-87323199D03*
X162727363Y-89863199D03*
X162727363Y-92403199D03*
X162727363Y-94943199D03*
X162727363Y-97483199D03*
X162727363Y-100023199D03*
%TD*%
D37*
%TO.C,D5*%
X166309999Y-79070199D03*
D38*
X164409999Y-79070199D03*
%TD*%
D48*
%TO.C,U6*%
X121192425Y-104470761D03*
X121652045Y-104011142D03*
X122111664Y-103551522D03*
X122571283Y-103091903D03*
X123030903Y-102632283D03*
X123490522Y-102172664D03*
X123950142Y-101713045D03*
X124409761Y-101253425D03*
X120361575Y-97205239D03*
X119901955Y-97664858D03*
X119442336Y-98124478D03*
X118982717Y-98584097D03*
X118523097Y-99043717D03*
X118063478Y-99503336D03*
X117603858Y-99962955D03*
X117144239Y-100422575D03*
%TD*%
D24*
%TO.C,C32*%
X118785645Y-96276208D03*
X117689629Y-95180192D03*
%TD*%
%TO.C,C31*%
X122145608Y-97251208D03*
X121049592Y-96155192D03*
%TD*%
D36*
%TO.C,C28*%
X117199592Y-104555192D03*
X118295608Y-105651208D03*
%TD*%
D32*
%TO.C,R15*%
X164211000Y-69418200D03*
X167136000Y-69418200D03*
%TD*%
D26*
%TO.C,R8*%
X155669158Y-63627000D03*
X154019158Y-63627000D03*
%TD*%
D49*
%TO.C,J1*%
X114344999Y-70890582D03*
X114344999Y-71540582D03*
X114344999Y-72190582D03*
X114344999Y-72840582D03*
X114344999Y-73490582D03*
D50*
X112394999Y-74940582D03*
D51*
X114464999Y-75090582D03*
D52*
X111194999Y-73150582D03*
X111194999Y-71230582D03*
D51*
X114444999Y-69340582D03*
D53*
X113144999Y-75190582D03*
D54*
X111464999Y-74920582D03*
X111464999Y-69460582D03*
D55*
X114464999Y-69770582D03*
D53*
X113144999Y-69240582D03*
D50*
X112394999Y-69460582D03*
D55*
X114464999Y-74610582D03*
%TD*%
D24*
%TO.C,C14*%
X122920608Y-109476208D03*
X121824592Y-108380192D03*
%TD*%
D56*
%TO.C,U4*%
X153818267Y-79448100D03*
X154318267Y-79448100D03*
X154818267Y-79448100D03*
X155318267Y-79448100D03*
X155818267Y-79448100D03*
X156318267Y-79448100D03*
X156818267Y-79448100D03*
X157318267Y-79448100D03*
X157818267Y-79448100D03*
X158318267Y-79448100D03*
X158818267Y-79448100D03*
X159318267Y-79448100D03*
D57*
X160730767Y-78035600D03*
X160730767Y-77535600D03*
X160730767Y-77035600D03*
X160730767Y-76535600D03*
X160730767Y-76035600D03*
X160730767Y-75535600D03*
X160730767Y-75035600D03*
X160730767Y-74535600D03*
X160730767Y-74035600D03*
X160730767Y-73535600D03*
X160730767Y-73035600D03*
X160730767Y-72535600D03*
D56*
X159318267Y-71123100D03*
X158818267Y-71123100D03*
X158318267Y-71123100D03*
X157818267Y-71123100D03*
X157318267Y-71123100D03*
X156818267Y-71123100D03*
X156318267Y-71123100D03*
X155818267Y-71123100D03*
X155318267Y-71123100D03*
X154818267Y-71123100D03*
X154318267Y-71123100D03*
X153818267Y-71123100D03*
D57*
X152405767Y-72535600D03*
X152405767Y-73035600D03*
X152405767Y-73535600D03*
X152405767Y-74035600D03*
X152405767Y-74535600D03*
X152405767Y-75035600D03*
X152405767Y-75535600D03*
X152405767Y-76035600D03*
X152405767Y-76535600D03*
X152405767Y-77035600D03*
X152405767Y-77535600D03*
X152405767Y-78035600D03*
D58*
X156568266Y-75285599D03*
%TD*%
D59*
%TO.C,C20*%
X148830475Y-71347755D03*
X150380475Y-71347755D03*
%TD*%
D60*
%TO.C,C17*%
X152638800Y-69585135D03*
X150738800Y-69585135D03*
%TD*%
D17*
%TO.C,C10*%
X129681608Y-87793192D03*
X128585592Y-88889208D03*
%TD*%
D26*
%TO.C,R10*%
X165408930Y-63423800D03*
X163758930Y-63423800D03*
%TD*%
D30*
%TO.C,R4*%
X115852600Y-78033200D03*
X117502600Y-78033200D03*
%TD*%
D61*
%TO.C,C38*%
X111057600Y-57556502D03*
X111057600Y-56006502D03*
%TD*%
D42*
%TO.C,J5*%
X123189999Y-51561999D03*
D43*
X119690000Y-51562000D03*
%TD*%
D25*
%TO.C,SW3*%
X110281888Y-84940079D03*
X114181888Y-86690079D03*
X110281888Y-88440079D03*
%TD*%
D62*
%TO.C,J7*%
X170134000Y-79010200D03*
D63*
X170133999Y-76510199D03*
X170133999Y-74010199D03*
X170133999Y-71510199D03*
%TD*%
D21*
%TO.C,C9*%
X115493800Y-65255000D03*
X115493800Y-66805000D03*
%TD*%
D64*
%TO.C,U3*%
X138932600Y-54318200D03*
X140202600Y-54318200D03*
X141472600Y-54318200D03*
X142742600Y-54318200D03*
X142742600Y-49368200D03*
X141472600Y-49368200D03*
X140202600Y-49368200D03*
X138932600Y-49368200D03*
%TD*%
D65*
%TO.C,D8*%
X132885483Y-69334921D03*
X131930889Y-70289515D03*
X130976295Y-71244109D03*
X130410609Y-66860047D03*
X129456015Y-67814641D03*
X128501421Y-68769235D03*
%TD*%
D24*
%TO.C,C5*%
X135347600Y-72153200D03*
X134251584Y-71057184D03*
%TD*%
D17*
%TO.C,C8*%
X131800600Y-87833200D03*
X130704584Y-88929216D03*
%TD*%
D20*
%TO.C,C18*%
X165290800Y-67284600D03*
X163740800Y-67284600D03*
%TD*%
D66*
%TO.C,R6*%
X122815600Y-70163200D03*
X122815600Y-71813200D03*
%TD*%
D67*
%TO.C,L1*%
X141501447Y-83974353D03*
X140387753Y-85088047D03*
%TD*%
D32*
%TO.C,R16*%
X164145500Y-81102200D03*
X167070500Y-81102200D03*
%TD*%
D37*
%TO.C,D4*%
X166309999Y-76809599D03*
D38*
X164409999Y-76809599D03*
%TD*%
D44*
%TO.C,J4*%
X150896000Y-54729500D03*
D45*
X153395999Y-54729499D03*
%TD*%
D20*
%TO.C,C16*%
X148415258Y-72865555D03*
X146865258Y-72865555D03*
%TD*%
D68*
%TO.C,R5*%
X121247600Y-71803200D03*
X121247600Y-70153200D03*
%TD*%
D24*
%TO.C,C19*%
X125516008Y-100497008D03*
X124419992Y-99400992D03*
%TD*%
D20*
%TO.C,C22*%
X155705032Y-69240400D03*
X154155032Y-69240400D03*
%TD*%
D69*
%TO.C,J2*%
X121755999Y-92963999D03*
X117855999Y-92963999D03*
X121755999Y-91693999D03*
X117855999Y-91693999D03*
X121755999Y-90423999D03*
X117855999Y-90423999D03*
X121755999Y-89153999D03*
X117855999Y-89153999D03*
X121755999Y-87883999D03*
X117855999Y-87883999D03*
%TD*%
D16*
%TO.C,C37*%
X122239592Y-77771208D03*
X123335608Y-76675192D03*
%TD*%
D24*
%TO.C,C2*%
X143845353Y-86859945D03*
X142749337Y-85763929D03*
%TD*%
D68*
%TO.C,R1*%
X114727600Y-91098200D03*
X114727600Y-89448200D03*
%TD*%
D20*
%TO.C,C39*%
X114967600Y-54121502D03*
X113417600Y-54121502D03*
%TD*%
D37*
%TO.C,D7*%
X166329999Y-74117199D03*
D38*
X164429999Y-74117199D03*
%TD*%
D70*
%TO.C,U2*%
X133958781Y-86797681D03*
X134312334Y-86444128D03*
X134665887Y-86090575D03*
X135019441Y-85737021D03*
X135372994Y-85383468D03*
X135726548Y-85029914D03*
X136080101Y-84676361D03*
X136433654Y-84322808D03*
X136787208Y-83969254D03*
X137140761Y-83615701D03*
X137494314Y-83262148D03*
X137847868Y-82908594D03*
X138201421Y-82555041D03*
X138554975Y-82201487D03*
X138908528Y-81847934D03*
X139262081Y-81494381D03*
D71*
X139262081Y-78772019D03*
X138908528Y-78418466D03*
X138554975Y-78064913D03*
X138201421Y-77711359D03*
X137847868Y-77357806D03*
X137494314Y-77004252D03*
X137140761Y-76650699D03*
X136787208Y-76297146D03*
X136433654Y-75943592D03*
X136080101Y-75590039D03*
X135726548Y-75236486D03*
X135372994Y-74882932D03*
X135019441Y-74529379D03*
X134665887Y-74175825D03*
X134312334Y-73822272D03*
X133958781Y-73468719D03*
D70*
X131236419Y-73468719D03*
X130882866Y-73822272D03*
X130529313Y-74175825D03*
X130175759Y-74529379D03*
X129822206Y-74882932D03*
X129468652Y-75236486D03*
X129115099Y-75590039D03*
X128761546Y-75943592D03*
X128407992Y-76297146D03*
X128054439Y-76650699D03*
X127700886Y-77004252D03*
X127347332Y-77357806D03*
X126993779Y-77711359D03*
X126640225Y-78064913D03*
X126286672Y-78418466D03*
X125933119Y-78772019D03*
D71*
X125933119Y-81494381D03*
X126286672Y-81847934D03*
X126640225Y-82201487D03*
X126993779Y-82555041D03*
X127347332Y-82908594D03*
X127700886Y-83262148D03*
X128054439Y-83615701D03*
X128407992Y-83969254D03*
X128761546Y-84322808D03*
X129115099Y-84676361D03*
X129468652Y-85029914D03*
X129822206Y-85383468D03*
X130175759Y-85737021D03*
X130529313Y-86090575D03*
X130882866Y-86444128D03*
X131236419Y-86797681D03*
%TD*%
D72*
%TO.C,C23*%
X159942015Y-68062200D03*
X159942015Y-63662200D03*
%TD*%
M02*
